0
SECTION
2
HEADER
9
$INSUNITS
70
4
9
$ACADVER
1
AC1014
9
$HANDSEED
5
FFFF
0
ENDSEC
0
SECTION
2
TABLES
0
TABLE
2
VPORT
5
8
100
AcDbSymbolTable
0
ENDTAB
0
TABLE
2
LTYPE
5
5
100
AcDbSymbolTable
0
LTYPE
5
14
100
AcDbSymbolTableRecord
100
AcDbLinetypeTableRecord
2
BYBLOCK
70
0
0
LTYPE
5
15
100
AcDbSymbolTableRecord
100
AcDbLinetypeTableRecord
2
BYLAYER
70
0
0
ENDTAB
0
TABLE
2
LAYER
5
2
100
AcDbSymbolTable
70
2
0
LAYER
5
50
100
AcDbSymbolTableRecord
100
AcDbLayerTableRecord
2
0
70
0
6
CONTINUOUS
0
ENDTAB
0
TABLE
2
STYLE
5
3
100
AcDbSymbolTable
70
1
0
STYLE
5
11
100
AcDbSymbolTableRecord
100
AcDbTextStyleTableRecord
2
STANDARD
70
0
0
ENDTAB
0
TABLE
2
VIEW
5
6
100
AcDbSymbolTable
70
0
0
ENDTAB
0
TABLE
2
UCS
5
7
100
AcDbSymbolTable
70
0
0
ENDTAB
0
TABLE
2
APPID
5
9
100
AcDbSymbolTable
70
2
0
APPID
5
12
100
AcDbSymbolTableRecord
100
AcDbRegAppTableRecord
2
ACAD
70
0
0
ENDTAB
0
TABLE
2
DIMSTYLE
5
A
100
AcDbSymbolTable
70
1
0
ENDTAB
0
TABLE
2
BLOCK_RECORD
5
1
100
AcDbSymbolTable
70
1
0
BLOCK_RECORD
5
1F
100
AcDbSymbolTableRecord
100
AcDbBlockTableRecord
2
*MODEL_SPACE
0
BLOCK_RECORD
5
1B
100
AcDbSymbolTableRecord
100
AcDbBlockTableRecord
2
*PAPER_SPACE
0
ENDTAB
0
ENDSEC
0
SECTION
2
BLOCKS
0
BLOCK
5
20
100
AcDbEntity
100
AcDbBlockBegin
2
*MODEL_SPACE
0
ENDBLK
5
21
100
AcDbEntity
100
AcDbBlockEnd
0
BLOCK
5
1C
100
AcDbEntity
100
AcDbBlockBegin
2
*PAPER_SPACE
0
ENDBLK
5
1D
100
AcDbEntity
100
AcDbBlockEnd
0
ENDSEC
0
SECTION
2
ENTITIES
0
CIRCLE
5
100
100
AcDbEntity
8
0
100
AcDbCircle
10
-54.474999941294641
20
3.3249999965811217
30
0
40
1.25
210
0
220
-0
230
1
0
CIRCLE
5
101
100
AcDbEntity
8
0
100
AcDbCircle
10
-2.6750000587053622
20
3.3249999965811217
30
0
40
1.25
210
0
220
-0
230
1
0
LWPOLYLINE
5
102
100
AcDbEntity
8
0
100
AcDbPolyline
90
4
70
1
43
0.0
10
-21.575000000000006
20
-54.625
10
-21.575000000000006
20
-40.625
10
-35.57500000000001
20
-40.625
10
-35.57500000000001
20
-54.625
0
LWPOLYLINE
5
103
100
AcDbEntity
8
0
100
AcDbPolyline
90
4
70
1
43
0.0
10
-35.57500000000001
20
-16.525000000000002
10
-21.575000000000006
20
-16.525000000000002
10
-21.575000000000006
20
-2.5249999999999995
10
-35.57500000000001
20
-2.5249999999999995
0
LWPOLYLINE
5
104
100
AcDbEntity
8
0
100
AcDbPolyline
90
4
70
1
43
0.0
10
-40.625000000000007
20
-21.575000000000003
10
-54.625000000000014
20
-21.575000000000003
10
-54.625000000000014
20
-35.575000000000003
10
-40.625000000000007
20
-35.575000000000003
0
LWPOLYLINE
5
105
100
AcDbEntity
8
0
100
AcDbPolyline
90
4
70
1
43
0.0
10
-2.5249999999999995
20
-21.575000000000003
10
-16.525000000000002
20
-21.575000000000006
10
-16.525000000000002
20
-35.575000000000003
10
-2.5249999999999995
20
-35.575000000000003
0
LWPOLYLINE
5
106
100
AcDbEntity
8
0
100
AcDbPolyline
90
4
70
1
43
0.0
10
-2.5250000000000017
20
-40.625
10
-16.525000000000002
20
-40.625
10
-16.525000000000002
20
-54.625
10
-2.5250000000000017
20
-54.625
0
LWPOLYLINE
5
107
100
AcDbEntity
8
0
100
AcDbPolyline
90
4
70
1
43
0.0
10
-2.5249999999999995
20
-2.5250000000000039
10
-16.525000000000002
20
-2.5250000000000039
10
-16.525000000000002
20
-16.525000000000002
10
-2.5249999999999995
20
-16.525000000000002
0
LWPOLYLINE
5
108
100
AcDbEntity
8
0
100
AcDbPolyline
90
4
70
1
43
0.0
10
-21.575000000000006
20
-21.575000000000003
10
-35.57500000000001
20
-21.575000000000003
10
-35.57500000000001
20
-35.575000000000003
10
-21.575000000000006
20
-35.575000000000003
0
LWPOLYLINE
5
109
100
AcDbEntity
8
0
100
AcDbPolyline
90
4
70
1
43
0.0
10
-40.625000000000007
20
-16.525000000000002
10
-40.625000000000007
20
-2.5250000000000039
10
-54.625000000000014
20
-2.5250000000000039
10
-54.625000000000014
20
-16.525000000000002
0
LWPOLYLINE
5
110
100
AcDbEntity
8
0
100
AcDbPolyline
90
4
70
1
43
0.0
10
-40.625000000000007
20
-54.625
10
-40.625000000000007
20
-40.625
10
-54.625
20
-40.625
10
-54.625
20
-54.625
0
CIRCLE
5
111
100
AcDbEntity
8
0
100
AcDbCircle
10
-2.6750000587053622
20
-60.474999996581118
30
0
40
1.25
210
0
220
-0
230
1
0
CIRCLE
5
112
100
AcDbEntity
8
0
100
AcDbCircle
10
-54.474999941294641
20
-60.474999996581118
30
0
40
1.25
210
0
220
-0
230
1
0
LINE
5
113
100
AcDbEntity
8
0
100
AcDbLine
10
-57.150000012653493
20
-57.149999999999956
30
0
11
-57.149999873340164
21
-60.474999995613878
31
0
0
ARC
5
114
100
AcDbEntity
8
0
100
AcDbCircle
10
-54.474999941294641
20
-60.474999996581118
30
0
40
2.6749999320455231
210
0
220
0
230
1
100
AcDbArc
50
180
51
360
0
LINE
5
115
100
AcDbEntity
8
0
100
AcDbLine
10
-51.799999941294686
20
-60.474999997548416
30
0
11
-51.799999943931283
21
-59.650000007989739
31
0
0
ARC
5
116
100
AcDbEntity
8
0
100
AcDbCircle
10
-49.299999943931248
20
-59.650000000000027
30
0
40
2.5000000000000355
210
0
220
0
230
1
100
AcDbArc
50
90.00000000000081
51
180
0
LINE
5
117
100
AcDbEntity
8
0
100
AcDbLine
10
-49.299999943931283
20
-57.149999999999991
30
0
11
-7.8500000560687155
21
-57.149999999999999
31
0
0
ARC
5
118
100
AcDbEntity
8
0
100
AcDbCircle
10
-7.8500000560687422
20
-59.65000000000002
30
0
40
2.5000000000000258
210
0
220
0
230
1
100
AcDbArc
50
0
51
89.999999999999389
0
LINE
5
119
100
AcDbEntity
8
0
100
AcDbLine
10
-5.3500000560687164
20
-59.650000007989739
30
0
11
-5.3499999907508213
21
-60.474999997548437
31
0
0
ARC
5
120
100
AcDbEntity
8
0
100
AcDbCircle
10
-2.6750000587053622
20
-60.474999996581118
30
0
40
2.6749999320454587
210
0
220
0
230
1
100
AcDbArc
50
-180
51
0
0
LINE
5
121
100
AcDbEntity
8
0
100
AcDbLine
10
-1.2665983262216685e-07
20
-60.474999995613878
30
0
11
0
21
-57.149999999999999
31
0
0
LINE
5
122
100
AcDbEntity
8
0
100
AcDbLine
10
0
20
-57.149999999999999
30
0
11
1.2653497138970238e-08
21
-4.4408920985006262e-14
31
0
0
LINE
5
123
100
AcDbEntity
8
0
100
AcDbLine
10
1.2653497138970238e-08
20
-4.4408920985006262e-14
30
0
11
-1.2665983262216685e-07
21
3.3249999956138776
31
0
0
ARC
5
124
100
AcDbEntity
8
0
100
AcDbCircle
10
-2.6750000587053622
20
3.3249999965811217
30
0
40
2.6749999320455298
210
-0
220
0
230
1
100
AcDbArc
50
0
51
180
0
LINE
5
125
100
AcDbEntity
8
0
100
AcDbLine
10
-5.3500000587053096
20
3.3249999975484186
30
0
11
-5.3500000560687164
21
2.5000000079897422
31
0
0
ARC
5
126
100
AcDbEntity
8
0
100
AcDbCircle
10
-7.8500000560687351
20
2.5000000000000098
30
0
40
2.5000000000000187
210
0
220
0
230
1
100
AcDbArc
50
-89.999999999999588
51
0
0
LINE
5
127
100
AcDbEntity
8
0
100
AcDbLine
10
-7.8500000560687164
20
-8.8817841970012523e-15
30
0
11
-49.299999943931283
21
-8.8817841970012523e-15
31
0
0
ARC
5
128
100
AcDbEntity
8
0
100
AcDbCircle
10
-49.299999943931255
20
2.5000000000000151
30
0
40
2.5000000000000266
210
0
220
0
230
1
100
AcDbArc
50
180
51
269.99999999999932
0
LINE
5
129
100
AcDbEntity
8
0
100
AcDbLine
10
-51.799999943931283
20
2.5000000079897422
30
0
11
-51.799999941294686
21
3.324999997548419
31
0
0
ARC
5
130
100
AcDbEntity
8
0
100
AcDbCircle
10
-54.474999941294641
20
3.3249999965811217
30
0
40
2.6749999999999474
210
0
220
-0
230
1
100
AcDbArc
50
0
51
180
0
LINE
5
131
100
AcDbEntity
8
0
100
AcDbLine
10
-57.149999873340164
20
3.3249999956138772
30
0
11
-57.150000012653493
21
-4.4408920985006262e-14
31
0
0
LINE
5
132
100
AcDbEntity
8
0
100
AcDbLine
10
-57.150000012653493
20
-4.4408920985006262e-14
30
0
11
-57.150000012653493
21
-57.149999999999956
31
0
0
ENDSEC
0
SECTION
2
OBJECTS
0
DICTIONARY
5
C
100
AcDbDictionary
3
ACAD_GROUP
350
D
3
ACAD_MLINESTYLE
350
17
0
DICTIONARY
5
D
100
AcDbDictionary
0
DICTIONARY
5
1A
330
C
100
AcDbDictionary
0
DICTIONARY
5
17
100
AcDbDictionary
0
ENDSEC
0
EOF
