%TF.GenerationSoftware,KiCad,Pcbnew,(5.99.0-11539-gc946070005)*%
%TF.CreationDate,2021-11-17T23:23:06-06:00*%
%TF.ProjectId,QS-09,51532d30-392e-46b6-9963-61645f706362,rev?*%
%TF.SameCoordinates,Original*%
%TF.FileFunction,Soldermask,Top*%
%TF.FilePolarity,Negative*%
%FSLAX46Y46*%
G04 Gerber Fmt 4.6, Leading zero omitted, Abs format (unit mm)*
G04 Created by KiCad (PCBNEW (5.99.0-11539-gc946070005)) date 2021-11-17 23:23:06*
%MOMM*%
%LPD*%
G01*
G04 APERTURE LIST*
%ADD10C,0.010000*%
%ADD11R,2.000000X2.000000*%
%ADD12C,2.000000*%
%ADD13R,2.000000X3.200000*%
%ADD14C,1.524000*%
%ADD15C,1.701800*%
%ADD16C,3.987800*%
%ADD17C,4.250000*%
%ADD18C,0.650000*%
%ADD19O,1.100000X2.200000*%
%ADD20O,1.300000X1.900000*%
G04 APERTURE END LIST*
D10*
%TO.C,Ref\u002A\u002A*%
X120859071Y-33485538D02*
X121032602Y-33487604D01*
X121032602Y-33487604D02*
X121173114Y-33490957D01*
X121173114Y-33490957D02*
X121278178Y-33495521D01*
X121278178Y-33495521D02*
X121345361Y-33501223D01*
X121345361Y-33501223D02*
X121370573Y-33506745D01*
X121370573Y-33506745D02*
X121379791Y-33512969D01*
X121379791Y-33512969D02*
X121387512Y-33523270D01*
X121387512Y-33523270D02*
X121393867Y-33541165D01*
X121393867Y-33541165D02*
X121398990Y-33570168D01*
X121398990Y-33570168D02*
X121403013Y-33613798D01*
X121403013Y-33613798D02*
X121406069Y-33675568D01*
X121406069Y-33675568D02*
X121408290Y-33758997D01*
X121408290Y-33758997D02*
X121409809Y-33867600D01*
X121409809Y-33867600D02*
X121410758Y-34004892D01*
X121410758Y-34004892D02*
X121411270Y-34174391D01*
X121411270Y-34174391D02*
X121411478Y-34379612D01*
X121411478Y-34379612D02*
X121411515Y-34592595D01*
X121411515Y-34592595D02*
X121411252Y-34848950D01*
X121411252Y-34848950D02*
X121410423Y-35065534D01*
X121410423Y-35065534D02*
X121408968Y-35244908D01*
X121408968Y-35244908D02*
X121406828Y-35389628D01*
X121406828Y-35389628D02*
X121403944Y-35502257D01*
X121403944Y-35502257D02*
X121400254Y-35585352D01*
X121400254Y-35585352D02*
X121395700Y-35641473D01*
X121395700Y-35641473D02*
X121390223Y-35673180D01*
X121390223Y-35673180D02*
X121386115Y-35681933D01*
X121386115Y-35681933D02*
X121362211Y-35691121D01*
X121362211Y-35691121D02*
X121309154Y-35698091D01*
X121309154Y-35698091D02*
X121223871Y-35703001D01*
X121223871Y-35703001D02*
X121103293Y-35706008D01*
X121103293Y-35706008D02*
X120944350Y-35707271D01*
X120944350Y-35707271D02*
X120891979Y-35707333D01*
X120891979Y-35707333D02*
X120738175Y-35707072D01*
X120738175Y-35707072D02*
X120621146Y-35706005D01*
X120621146Y-35706005D02*
X120535333Y-35703705D01*
X120535333Y-35703705D02*
X120475178Y-35699744D01*
X120475178Y-35699744D02*
X120435123Y-35693695D01*
X120435123Y-35693695D02*
X120409612Y-35685132D01*
X120409612Y-35685132D02*
X120393086Y-35673628D01*
X120393086Y-35673628D02*
X120388212Y-35668625D01*
X120388212Y-35668625D02*
X120377562Y-35652626D01*
X120377562Y-35652626D02*
X120369281Y-35627687D01*
X120369281Y-35627687D02*
X120363079Y-35588849D01*
X120363079Y-35588849D02*
X120358670Y-35531154D01*
X120358670Y-35531154D02*
X120355765Y-35449642D01*
X120355765Y-35449642D02*
X120354076Y-35339355D01*
X120354076Y-35339355D02*
X120353316Y-35195332D01*
X120353316Y-35195332D02*
X120353182Y-35065375D01*
X120353182Y-35065375D02*
X120353182Y-34500833D01*
X120353182Y-34500833D02*
X120166727Y-34500833D01*
X120166727Y-34500833D02*
X120082392Y-34501046D01*
X120082392Y-34501046D02*
X120017809Y-34498371D01*
X120017809Y-34498371D02*
X119970350Y-34487842D01*
X119970350Y-34487842D02*
X119937388Y-34464490D01*
X119937388Y-34464490D02*
X119916297Y-34423348D01*
X119916297Y-34423348D02*
X119904449Y-34359448D01*
X119904449Y-34359448D02*
X119899217Y-34267822D01*
X119899217Y-34267822D02*
X119897975Y-34143503D01*
X119897975Y-34143503D02*
X119898098Y-33992833D01*
X119898098Y-33992833D02*
X119898324Y-33843581D01*
X119898324Y-33843581D02*
X119899327Y-33730995D01*
X119899327Y-33730995D02*
X119901594Y-33649407D01*
X119901594Y-33649407D02*
X119905613Y-33593150D01*
X119905613Y-33593150D02*
X119911869Y-33556559D01*
X119911869Y-33556559D02*
X119920851Y-33533966D01*
X119920851Y-33533966D02*
X119933046Y-33519704D01*
X119933046Y-33519704D02*
X119939185Y-33514877D01*
X119939185Y-33514877D02*
X119958013Y-33506254D01*
X119958013Y-33506254D02*
X119991160Y-33499375D01*
X119991160Y-33499375D02*
X120042820Y-33494064D01*
X120042820Y-33494064D02*
X120117185Y-33490144D01*
X120117185Y-33490144D02*
X120218447Y-33487440D01*
X120218447Y-33487440D02*
X120350799Y-33485775D01*
X120350799Y-33485775D02*
X120518433Y-33484974D01*
X120518433Y-33484974D02*
X120654952Y-33484833D01*
X120654952Y-33484833D02*
X120859071Y-33485538D01*
X120859071Y-33485538D02*
X120859071Y-33485538D01*
G36*
X120859071Y-33485538D02*
G01*
X121032602Y-33487604D01*
X121173114Y-33490957D01*
X121278178Y-33495521D01*
X121345361Y-33501223D01*
X121370573Y-33506745D01*
X121379791Y-33512969D01*
X121387512Y-33523270D01*
X121393867Y-33541165D01*
X121398990Y-33570168D01*
X121403013Y-33613798D01*
X121406069Y-33675568D01*
X121408290Y-33758997D01*
X121409809Y-33867600D01*
X121410758Y-34004892D01*
X121411270Y-34174391D01*
X121411478Y-34379612D01*
X121411515Y-34592595D01*
X121411252Y-34848950D01*
X121410423Y-35065534D01*
X121408968Y-35244908D01*
X121406828Y-35389628D01*
X121403944Y-35502257D01*
X121400254Y-35585352D01*
X121395700Y-35641473D01*
X121390223Y-35673180D01*
X121386115Y-35681933D01*
X121362211Y-35691121D01*
X121309154Y-35698091D01*
X121223871Y-35703001D01*
X121103293Y-35706008D01*
X120944350Y-35707271D01*
X120891979Y-35707333D01*
X120738175Y-35707072D01*
X120621146Y-35706005D01*
X120535333Y-35703705D01*
X120475178Y-35699744D01*
X120435123Y-35693695D01*
X120409612Y-35685132D01*
X120393086Y-35673628D01*
X120388212Y-35668625D01*
X120377562Y-35652626D01*
X120369281Y-35627687D01*
X120363079Y-35588849D01*
X120358670Y-35531154D01*
X120355765Y-35449642D01*
X120354076Y-35339355D01*
X120353316Y-35195332D01*
X120353182Y-35065375D01*
X120353182Y-34500833D01*
X120166727Y-34500833D01*
X120082392Y-34501046D01*
X120017809Y-34498371D01*
X119970350Y-34487842D01*
X119937388Y-34464490D01*
X119916297Y-34423348D01*
X119904449Y-34359448D01*
X119899217Y-34267822D01*
X119897975Y-34143503D01*
X119898098Y-33992833D01*
X119898324Y-33843581D01*
X119899327Y-33730995D01*
X119901594Y-33649407D01*
X119905613Y-33593150D01*
X119911869Y-33556559D01*
X119920851Y-33533966D01*
X119933046Y-33519704D01*
X119939185Y-33514877D01*
X119958013Y-33506254D01*
X119991160Y-33499375D01*
X120042820Y-33494064D01*
X120117185Y-33490144D01*
X120218447Y-33487440D01*
X120350799Y-33485775D01*
X120518433Y-33484974D01*
X120654952Y-33484833D01*
X120859071Y-33485538D01*
G37*
X120859071Y-33485538D02*
X121032602Y-33487604D01*
X121173114Y-33490957D01*
X121278178Y-33495521D01*
X121345361Y-33501223D01*
X121370573Y-33506745D01*
X121379791Y-33512969D01*
X121387512Y-33523270D01*
X121393867Y-33541165D01*
X121398990Y-33570168D01*
X121403013Y-33613798D01*
X121406069Y-33675568D01*
X121408290Y-33758997D01*
X121409809Y-33867600D01*
X121410758Y-34004892D01*
X121411270Y-34174391D01*
X121411478Y-34379612D01*
X121411515Y-34592595D01*
X121411252Y-34848950D01*
X121410423Y-35065534D01*
X121408968Y-35244908D01*
X121406828Y-35389628D01*
X121403944Y-35502257D01*
X121400254Y-35585352D01*
X121395700Y-35641473D01*
X121390223Y-35673180D01*
X121386115Y-35681933D01*
X121362211Y-35691121D01*
X121309154Y-35698091D01*
X121223871Y-35703001D01*
X121103293Y-35706008D01*
X120944350Y-35707271D01*
X120891979Y-35707333D01*
X120738175Y-35707072D01*
X120621146Y-35706005D01*
X120535333Y-35703705D01*
X120475178Y-35699744D01*
X120435123Y-35693695D01*
X120409612Y-35685132D01*
X120393086Y-35673628D01*
X120388212Y-35668625D01*
X120377562Y-35652626D01*
X120369281Y-35627687D01*
X120363079Y-35588849D01*
X120358670Y-35531154D01*
X120355765Y-35449642D01*
X120354076Y-35339355D01*
X120353316Y-35195332D01*
X120353182Y-35065375D01*
X120353182Y-34500833D01*
X120166727Y-34500833D01*
X120082392Y-34501046D01*
X120017809Y-34498371D01*
X119970350Y-34487842D01*
X119937388Y-34464490D01*
X119916297Y-34423348D01*
X119904449Y-34359448D01*
X119899217Y-34267822D01*
X119897975Y-34143503D01*
X119898098Y-33992833D01*
X119898324Y-33843581D01*
X119899327Y-33730995D01*
X119901594Y-33649407D01*
X119905613Y-33593150D01*
X119911869Y-33556559D01*
X119920851Y-33533966D01*
X119933046Y-33519704D01*
X119939185Y-33514877D01*
X119958013Y-33506254D01*
X119991160Y-33499375D01*
X120042820Y-33494064D01*
X120117185Y-33490144D01*
X120218447Y-33487440D01*
X120350799Y-33485775D01*
X120518433Y-33484974D01*
X120654952Y-33484833D01*
X120859071Y-33485538D01*
X115862160Y-34711096D02*
X115998217Y-34712787D01*
X115998217Y-34712787D02*
X116122639Y-34715858D01*
X116122639Y-34715858D02*
X116228683Y-34720309D01*
X116228683Y-34720309D02*
X116309607Y-34726141D01*
X116309607Y-34726141D02*
X116358665Y-34733352D01*
X116358665Y-34733352D02*
X116369615Y-34737900D01*
X116369615Y-34737900D02*
X116378610Y-34767657D01*
X116378610Y-34767657D02*
X116385786Y-34831942D01*
X116385786Y-34831942D02*
X116391144Y-34922987D01*
X116391144Y-34922987D02*
X116394682Y-35033028D01*
X116394682Y-35033028D02*
X116396402Y-35154296D01*
X116396402Y-35154296D02*
X116396303Y-35279025D01*
X116396303Y-35279025D02*
X116394386Y-35399449D01*
X116394386Y-35399449D02*
X116390649Y-35507800D01*
X116390649Y-35507800D02*
X116385094Y-35596314D01*
X116385094Y-35596314D02*
X116377720Y-35657222D01*
X116377720Y-35657222D02*
X116369615Y-35681933D01*
X116369615Y-35681933D02*
X116340924Y-35689903D01*
X116340924Y-35689903D02*
X116276665Y-35696492D01*
X116276665Y-35696492D02*
X116183582Y-35701701D01*
X116183582Y-35701701D02*
X116068418Y-35705530D01*
X116068418Y-35705530D02*
X115937916Y-35707979D01*
X115937916Y-35707979D02*
X115798818Y-35709048D01*
X115798818Y-35709048D02*
X115657870Y-35708737D01*
X115657870Y-35708737D02*
X115521813Y-35707046D01*
X115521813Y-35707046D02*
X115397390Y-35703975D01*
X115397390Y-35703975D02*
X115291346Y-35699524D01*
X115291346Y-35699524D02*
X115210423Y-35693692D01*
X115210423Y-35693692D02*
X115161365Y-35686481D01*
X115161365Y-35686481D02*
X115150415Y-35681933D01*
X115150415Y-35681933D02*
X115141420Y-35652176D01*
X115141420Y-35652176D02*
X115134244Y-35587891D01*
X115134244Y-35587891D02*
X115128886Y-35496846D01*
X115128886Y-35496846D02*
X115125347Y-35386805D01*
X115125347Y-35386805D02*
X115123628Y-35265537D01*
X115123628Y-35265537D02*
X115123726Y-35140808D01*
X115123726Y-35140808D02*
X115125644Y-35020384D01*
X115125644Y-35020384D02*
X115129380Y-34912033D01*
X115129380Y-34912033D02*
X115134936Y-34823519D01*
X115134936Y-34823519D02*
X115142309Y-34762611D01*
X115142309Y-34762611D02*
X115150415Y-34737900D01*
X115150415Y-34737900D02*
X115179106Y-34729930D01*
X115179106Y-34729930D02*
X115243364Y-34723341D01*
X115243364Y-34723341D02*
X115336448Y-34718132D01*
X115336448Y-34718132D02*
X115451612Y-34714303D01*
X115451612Y-34714303D02*
X115582114Y-34711854D01*
X115582114Y-34711854D02*
X115721211Y-34710785D01*
X115721211Y-34710785D02*
X115862160Y-34711096D01*
X115862160Y-34711096D02*
X115862160Y-34711096D01*
G36*
X115862160Y-34711096D02*
G01*
X115998217Y-34712787D01*
X116122639Y-34715858D01*
X116228683Y-34720309D01*
X116309607Y-34726141D01*
X116358665Y-34733352D01*
X116369615Y-34737900D01*
X116378610Y-34767657D01*
X116385786Y-34831942D01*
X116391144Y-34922987D01*
X116394682Y-35033028D01*
X116396402Y-35154296D01*
X116396303Y-35279025D01*
X116394386Y-35399449D01*
X116390649Y-35507800D01*
X116385094Y-35596314D01*
X116377720Y-35657222D01*
X116369615Y-35681933D01*
X116340924Y-35689903D01*
X116276665Y-35696492D01*
X116183582Y-35701701D01*
X116068418Y-35705530D01*
X115937916Y-35707979D01*
X115798818Y-35709048D01*
X115657870Y-35708737D01*
X115521813Y-35707046D01*
X115397390Y-35703975D01*
X115291346Y-35699524D01*
X115210423Y-35693692D01*
X115161365Y-35686481D01*
X115150415Y-35681933D01*
X115141420Y-35652176D01*
X115134244Y-35587891D01*
X115128886Y-35496846D01*
X115125347Y-35386805D01*
X115123628Y-35265537D01*
X115123726Y-35140808D01*
X115125644Y-35020384D01*
X115129380Y-34912033D01*
X115134936Y-34823519D01*
X115142309Y-34762611D01*
X115150415Y-34737900D01*
X115179106Y-34729930D01*
X115243364Y-34723341D01*
X115336448Y-34718132D01*
X115451612Y-34714303D01*
X115582114Y-34711854D01*
X115721211Y-34710785D01*
X115862160Y-34711096D01*
G37*
X115862160Y-34711096D02*
X115998217Y-34712787D01*
X116122639Y-34715858D01*
X116228683Y-34720309D01*
X116309607Y-34726141D01*
X116358665Y-34733352D01*
X116369615Y-34737900D01*
X116378610Y-34767657D01*
X116385786Y-34831942D01*
X116391144Y-34922987D01*
X116394682Y-35033028D01*
X116396402Y-35154296D01*
X116396303Y-35279025D01*
X116394386Y-35399449D01*
X116390649Y-35507800D01*
X116385094Y-35596314D01*
X116377720Y-35657222D01*
X116369615Y-35681933D01*
X116340924Y-35689903D01*
X116276665Y-35696492D01*
X116183582Y-35701701D01*
X116068418Y-35705530D01*
X115937916Y-35707979D01*
X115798818Y-35709048D01*
X115657870Y-35708737D01*
X115521813Y-35707046D01*
X115397390Y-35703975D01*
X115291346Y-35699524D01*
X115210423Y-35693692D01*
X115161365Y-35686481D01*
X115150415Y-35681933D01*
X115141420Y-35652176D01*
X115134244Y-35587891D01*
X115128886Y-35496846D01*
X115125347Y-35386805D01*
X115123628Y-35265537D01*
X115123726Y-35140808D01*
X115125644Y-35020384D01*
X115129380Y-34912033D01*
X115134936Y-34823519D01*
X115142309Y-34762611D01*
X115150415Y-34737900D01*
X115179106Y-34729930D01*
X115243364Y-34723341D01*
X115336448Y-34718132D01*
X115451612Y-34714303D01*
X115582114Y-34711854D01*
X115721211Y-34710785D01*
X115862160Y-34711096D01*
%TD*%
D11*
%TO.C,SW5*%
X134818750Y-32900000D03*
D12*
X139818750Y-32900000D03*
X137318750Y-32900000D03*
D13*
X142918750Y-25400000D03*
X131718750Y-25400000D03*
D12*
X139818750Y-18400000D03*
X134818750Y-18400000D03*
%TD*%
D11*
%TO.C,SW1*%
X96718750Y-32900000D03*
D12*
X101718750Y-32900000D03*
X99218750Y-32900000D03*
D13*
X93618750Y-25400000D03*
X104818750Y-25400000D03*
D12*
X101718750Y-18400000D03*
X96718750Y-18400000D03*
%TD*%
D14*
%TO.C,SW3*%
X114458750Y-22860000D03*
X120808750Y-20320000D03*
D15*
X123348750Y-25400000D03*
D16*
X118268750Y-25400000D03*
D15*
X113188750Y-25400000D03*
%TD*%
%TO.C,SW10*%
X123348750Y-63500000D03*
D14*
X114458750Y-60960000D03*
D15*
X113188750Y-63500000D03*
D14*
X120808750Y-58420000D03*
D16*
X118268750Y-63500000D03*
%TD*%
D17*
%TO.C,D17*%
X118268750Y-68500000D03*
%TD*%
%TO.C,D15*%
X137318750Y-49450000D03*
%TD*%
%TO.C,D12*%
X137318750Y-30400000D03*
%TD*%
D14*
%TO.C,SW6*%
X95408750Y-41910000D03*
X101758750Y-39370000D03*
D16*
X99218750Y-44450000D03*
D15*
X104298750Y-44450000D03*
X94138750Y-44450000D03*
%TD*%
D18*
%TO.C,J1*%
X115378750Y-16205250D03*
X121158750Y-16205250D03*
D19*
X113968750Y-16756250D03*
D20*
X122568750Y-12556250D03*
D19*
X122568750Y-16756250D03*
D20*
X113968750Y-12556250D03*
%TD*%
D17*
%TO.C,D10*%
X99218750Y-30400000D03*
%TD*%
%TO.C,D11*%
X118268750Y-30400000D03*
%TD*%
%TO.C,D16*%
X99218750Y-68500000D03*
%TD*%
D15*
%TO.C,SW7*%
X123348750Y-44450000D03*
X113188750Y-44450000D03*
D16*
X118268750Y-44450000D03*
D14*
X120808750Y-39370000D03*
X114458750Y-41910000D03*
%TD*%
%TO.C,SW11*%
X133508750Y-60960000D03*
D16*
X137318750Y-63500000D03*
D14*
X139858750Y-58420000D03*
D15*
X132238750Y-63500000D03*
X142398750Y-63500000D03*
%TD*%
D14*
%TO.C,SW4*%
X139858750Y-20320000D03*
D15*
X132238750Y-25400000D03*
D16*
X137318750Y-25400000D03*
D14*
X133508750Y-22860000D03*
D15*
X142398750Y-25400000D03*
%TD*%
%TO.C,SW8*%
X132238750Y-44450000D03*
D14*
X139858750Y-39370000D03*
D16*
X137318750Y-44450000D03*
D14*
X133508750Y-41910000D03*
D15*
X142398750Y-44450000D03*
%TD*%
D17*
%TO.C,D18*%
X137318750Y-68500000D03*
%TD*%
%TO.C,D14*%
X118268750Y-49450000D03*
%TD*%
D15*
%TO.C,SW9*%
X94138750Y-63500000D03*
X104298750Y-63500000D03*
D14*
X101758750Y-58420000D03*
X95408750Y-60960000D03*
D16*
X99218750Y-63500000D03*
%TD*%
D17*
%TO.C,D13*%
X99218750Y-49450000D03*
%TD*%
D16*
%TO.C,SW2*%
X99218750Y-25400000D03*
D14*
X95408750Y-22860000D03*
X101758750Y-20320000D03*
D15*
X94138750Y-25400000D03*
X104298750Y-25400000D03*
%TD*%
M02*
