%TF.GenerationSoftware,KiCad,Pcbnew,(5.99.0-11539-gc946070005)*%
%TF.CreationDate,2021-08-10T02:47:10-05:00*%
%TF.ProjectId,QS-09,51532d30-392e-46b6-9963-61645f706362,rev?*%
%TF.SameCoordinates,Original*%
%TF.FileFunction,Soldermask,Top*%
%TF.FilePolarity,Negative*%
%FSLAX46Y46*%
G04 Gerber Fmt 4.6, Leading zero omitted, Abs format (unit mm)*
G04 Created by KiCad (PCBNEW (5.99.0-11539-gc946070005)) date 2021-08-10 02:47:10*
%MOMM*%
%LPD*%
G01*
G04 APERTURE LIST*
%ADD10R,2.000000X2.000000*%
%ADD11C,2.000000*%
%ADD12R,2.000000X3.200000*%
%ADD13C,1.524000*%
%ADD14C,1.701800*%
%ADD15C,3.987800*%
%ADD16C,4.250000*%
%ADD17C,0.650000*%
%ADD18O,1.100000X2.200000*%
%ADD19O,1.300000X1.900000*%
G04 APERTURE END LIST*
D10*
%TO.C,SW5*%
X134818750Y-32900000D03*
D11*
X139818750Y-32900000D03*
X137318750Y-32900000D03*
D12*
X142918750Y-25400000D03*
X131718750Y-25400000D03*
D11*
X139818750Y-18400000D03*
X134818750Y-18400000D03*
%TD*%
D10*
%TO.C,SW1*%
X96718750Y-32900000D03*
D11*
X101718750Y-32900000D03*
X99218750Y-32900000D03*
D12*
X93618750Y-25400000D03*
X104818750Y-25400000D03*
D11*
X101718750Y-18400000D03*
X96718750Y-18400000D03*
%TD*%
D13*
%TO.C,SW3*%
X114458750Y-22860000D03*
X120808750Y-20320000D03*
D14*
X123348750Y-25400000D03*
D15*
X118268750Y-25400000D03*
D14*
X113188750Y-25400000D03*
%TD*%
%TO.C,SW10*%
X123348750Y-63500000D03*
D13*
X114458750Y-60960000D03*
D14*
X113188750Y-63500000D03*
D13*
X120808750Y-58420000D03*
D15*
X118268750Y-63500000D03*
%TD*%
D16*
%TO.C,D17*%
X118268750Y-68500000D03*
%TD*%
%TO.C,D15*%
X137318750Y-49450000D03*
%TD*%
%TO.C,D12*%
X137318750Y-30400000D03*
%TD*%
D13*
%TO.C,SW6*%
X95408750Y-41910000D03*
X101758750Y-39370000D03*
D15*
X99218750Y-44450000D03*
D14*
X104298750Y-44450000D03*
X94138750Y-44450000D03*
%TD*%
D17*
%TO.C,J1*%
X115378750Y-16205250D03*
X121158750Y-16205250D03*
D18*
X113968750Y-16756250D03*
D19*
X122568750Y-12556250D03*
D18*
X122568750Y-16756250D03*
D19*
X113968750Y-12556250D03*
%TD*%
D16*
%TO.C,D10*%
X99218750Y-30400000D03*
%TD*%
%TO.C,D11*%
X118268750Y-30400000D03*
%TD*%
%TO.C,D16*%
X99218750Y-68500000D03*
%TD*%
D14*
%TO.C,SW7*%
X123348750Y-44450000D03*
X113188750Y-44450000D03*
D15*
X118268750Y-44450000D03*
D13*
X120808750Y-39370000D03*
X114458750Y-41910000D03*
%TD*%
%TO.C,SW11*%
X133508750Y-60960000D03*
D15*
X137318750Y-63500000D03*
D13*
X139858750Y-58420000D03*
D14*
X132238750Y-63500000D03*
X142398750Y-63500000D03*
%TD*%
D13*
%TO.C,SW4*%
X139858750Y-20320000D03*
D14*
X132238750Y-25400000D03*
D15*
X137318750Y-25400000D03*
D13*
X133508750Y-22860000D03*
D14*
X142398750Y-25400000D03*
%TD*%
%TO.C,SW8*%
X132238750Y-44450000D03*
D13*
X139858750Y-39370000D03*
D15*
X137318750Y-44450000D03*
D13*
X133508750Y-41910000D03*
D14*
X142398750Y-44450000D03*
%TD*%
D16*
%TO.C,D18*%
X137318750Y-68500000D03*
%TD*%
%TO.C,D14*%
X118268750Y-49450000D03*
%TD*%
D14*
%TO.C,SW9*%
X94138750Y-63500000D03*
X104298750Y-63500000D03*
D13*
X101758750Y-58420000D03*
X95408750Y-60960000D03*
D15*
X99218750Y-63500000D03*
%TD*%
D16*
%TO.C,D13*%
X99218750Y-49450000D03*
%TD*%
D15*
%TO.C,SW2*%
X99218750Y-25400000D03*
D13*
X95408750Y-22860000D03*
X101758750Y-20320000D03*
D14*
X94138750Y-25400000D03*
X104298750Y-25400000D03*
%TD*%
M02*
