M48
; DRILL file {KiCad (5.99.0-11539-gc946070005)} date Sun Sep  5 12:57:40 2021
; FORMAT={-:-/ absolute / inch / decimal}
; #@! TF.CreationDate,2021-09-05T12:57:40-05:00
; #@! TF.GenerationSoftware,Kicad,Pcbnew,(5.99.0-11539-gc946070005)
; #@! TF.FileFunction,NonPlated,1,2,NPTH
FMAT,2
INCH
; #@! TA.AperFunction,NonPlated,NPTH,ComponentDrill
T1C0.0256
; #@! TA.AperFunction,NonPlated,NPTH,ComponentDrill
T2C0.0670
; #@! TA.AperFunction,NonPlated,NPTH,ComponentDrill
T3C0.1570
; #@! TA.AperFunction,NonPlated,NPTH,ComponentDrill
T4C0.1673
%
G90
G05
T1
X4.5425Y-0.638
X4.77Y-0.638
T2
X3.7062Y-1.0
X3.7062Y-1.75
X3.7062Y-2.5
X4.1063Y-1.0
X4.1063Y-1.75
X4.1063Y-2.5
X4.4562Y-1.0
X4.4562Y-1.75
X4.4562Y-2.5
X4.8563Y-1.0
X4.8563Y-1.75
X4.8563Y-2.5
X5.2062Y-1.0
X5.2062Y-1.75
X5.2062Y-2.5
X5.6063Y-1.0
X5.6063Y-1.75
X5.6063Y-2.5
T3
X3.9062Y-1.0
X3.9062Y-1.75
X3.9062Y-2.5
X4.6562Y-1.0
X4.6562Y-1.75
X4.6562Y-2.5
X5.4062Y-1.0
X5.4062Y-1.75
X5.4062Y-2.5
T4
X3.9062Y-1.1969
X3.9062Y-1.9469
X3.9062Y-2.6969
X4.6562Y-1.1969
X4.6562Y-1.9469
X4.6562Y-2.6969
X5.4062Y-1.1969
X5.4062Y-1.9469
X5.4062Y-2.6969
T0
M30
