%TF.GenerationSoftware,KiCad,Pcbnew,(6.0.0)*%
%TF.CreationDate,2022-02-02T15:10:05-06:00*%
%TF.ProjectId,QS-09,51532d30-392e-46b6-9963-61645f706362,rev?*%
%TF.SameCoordinates,Original*%
%TF.FileFunction,Legend,Bot*%
%TF.FilePolarity,Positive*%
%FSLAX46Y46*%
G04 Gerber Fmt 4.6, Leading zero omitted, Abs format (unit mm)*
G04 Created by KiCad (PCBNEW (6.0.0)) date 2022-02-02 15:10:05*
%MOMM*%
%LPD*%
G01*
G04 APERTURE LIST*
%ADD10C,0.150000*%
%ADD11C,0.010000*%
%ADD12C,0.120000*%
%ADD13C,0.100000*%
G04 APERTURE END LIST*
D10*
X144003690Y-72047619D02*
X144092976Y-72000000D01*
X144176309Y-71904761D01*
X144301309Y-71761904D01*
X144390595Y-71714285D01*
X144485833Y-71714285D01*
X144467976Y-71952380D02*
X144557261Y-71904761D01*
X144640595Y-71809523D01*
X144664404Y-71619047D01*
X144622738Y-71285714D01*
X144551309Y-71095238D01*
X144444166Y-71000000D01*
X144342976Y-70952380D01*
X144152500Y-70952380D01*
X144063214Y-71000000D01*
X143979880Y-71095238D01*
X143956071Y-71285714D01*
X143997738Y-71619047D01*
X144069166Y-71809523D01*
X144176309Y-71904761D01*
X144277500Y-71952380D01*
X144467976Y-71952380D01*
X143652500Y-71904761D02*
X143515595Y-71952380D01*
X143277500Y-71952380D01*
X143176309Y-71904761D01*
X143122738Y-71857142D01*
X143063214Y-71761904D01*
X143051309Y-71666666D01*
X143087023Y-71571428D01*
X143128690Y-71523809D01*
X143217976Y-71476190D01*
X143402500Y-71428571D01*
X143491785Y-71380952D01*
X143533452Y-71333333D01*
X143569166Y-71238095D01*
X143557261Y-71142857D01*
X143497738Y-71047619D01*
X143444166Y-71000000D01*
X143342976Y-70952380D01*
X143104880Y-70952380D01*
X142967976Y-71000000D01*
X142610833Y-71571428D02*
X141848928Y-71571428D01*
X141104880Y-70952380D02*
X141009642Y-70952380D01*
X140920357Y-71000000D01*
X140878690Y-71047619D01*
X140842976Y-71142857D01*
X140819166Y-71333333D01*
X140848928Y-71571428D01*
X140920357Y-71761904D01*
X140979880Y-71857142D01*
X141033452Y-71904761D01*
X141134642Y-71952380D01*
X141229880Y-71952380D01*
X141319166Y-71904761D01*
X141360833Y-71857142D01*
X141396547Y-71761904D01*
X141420357Y-71571428D01*
X141390595Y-71333333D01*
X141319166Y-71142857D01*
X141259642Y-71047619D01*
X141206071Y-71000000D01*
X141104880Y-70952380D01*
X140420357Y-71952380D02*
X140229880Y-71952380D01*
X140128690Y-71904761D01*
X140075119Y-71857142D01*
X139962023Y-71714285D01*
X139890595Y-71523809D01*
X139842976Y-71142857D01*
X139878690Y-71047619D01*
X139920357Y-71000000D01*
X140009642Y-70952380D01*
X140200119Y-70952380D01*
X140301309Y-71000000D01*
X140354880Y-71047619D01*
X140414404Y-71142857D01*
X140444166Y-71380952D01*
X140408452Y-71476190D01*
X140366785Y-71523809D01*
X140277500Y-71571428D01*
X140087023Y-71571428D01*
X139985833Y-71523809D01*
X139932261Y-71476190D01*
X139872738Y-71380952D01*
X138765595Y-71285714D02*
X138610833Y-71952380D01*
X138289404Y-71285714D01*
X137467976Y-71952380D02*
X138039404Y-71952380D01*
X137753690Y-71952380D02*
X137628690Y-70952380D01*
X137741785Y-71095238D01*
X137848928Y-71190476D01*
X137950119Y-71238095D01*
X137027500Y-71857142D02*
X136985833Y-71904761D01*
X137039404Y-71952380D01*
X137081071Y-71904761D01*
X137027500Y-71857142D01*
X137039404Y-71952380D01*
X136247738Y-70952380D02*
X136152500Y-70952380D01*
X136063214Y-71000000D01*
X136021547Y-71047619D01*
X135985833Y-71142857D01*
X135962023Y-71333333D01*
X135991785Y-71571428D01*
X136063214Y-71761904D01*
X136122738Y-71857142D01*
X136176309Y-71904761D01*
X136277500Y-71952380D01*
X136372738Y-71952380D01*
X136462023Y-71904761D01*
X136503690Y-71857142D01*
X136539404Y-71761904D01*
X136563214Y-71571428D01*
X136533452Y-71333333D01*
X136462023Y-71142857D01*
X136402500Y-71047619D01*
X136348928Y-71000000D01*
X136247738Y-70952380D01*
X99249434Y-71285714D02*
X99374434Y-72285714D01*
X99326815Y-71904761D02*
X99428005Y-71952380D01*
X99618482Y-71952380D01*
X99707767Y-71904761D01*
X99749434Y-71857142D01*
X99785148Y-71761904D01*
X99749434Y-71476190D01*
X99689910Y-71380952D01*
X99636339Y-71333333D01*
X99535148Y-71285714D01*
X99344672Y-71285714D01*
X99255386Y-71333333D01*
X98344672Y-71285714D02*
X98428005Y-71952380D01*
X98773244Y-71285714D02*
X98838720Y-71809523D01*
X98803005Y-71904761D01*
X98713720Y-71952380D01*
X98570863Y-71952380D01*
X98469672Y-71904761D01*
X98416101Y-71857142D01*
X97523244Y-71952380D02*
X97457767Y-71428571D01*
X97493482Y-71333333D01*
X97582767Y-71285714D01*
X97773244Y-71285714D01*
X97874434Y-71333333D01*
X97517291Y-71904761D02*
X97618482Y-71952380D01*
X97856577Y-71952380D01*
X97945863Y-71904761D01*
X97981577Y-71809523D01*
X97969672Y-71714285D01*
X97910148Y-71619047D01*
X97808958Y-71571428D01*
X97570863Y-71571428D01*
X97469672Y-71523809D01*
X97047053Y-71952380D02*
X96963720Y-71285714D01*
X96987529Y-71476190D02*
X96928005Y-71380952D01*
X96874434Y-71333333D01*
X96773244Y-71285714D01*
X96678005Y-71285714D01*
X96428005Y-71952380D02*
X96303005Y-70952380D01*
X96285148Y-71571428D02*
X96047053Y-71952380D01*
X95963720Y-71285714D02*
X96392291Y-71666666D01*
X95606577Y-71857142D02*
X95564910Y-71904761D01*
X95618482Y-71952380D01*
X95660148Y-71904761D01*
X95606577Y-71857142D01*
X95618482Y-71952380D01*
X95154196Y-71285714D02*
X95047053Y-71952380D01*
X94797053Y-71476190D01*
X94666101Y-71952380D01*
X94392291Y-71285714D01*
X93951815Y-71952380D02*
X94041101Y-71904761D01*
X94082767Y-71857142D01*
X94118482Y-71761904D01*
X94082767Y-71476190D01*
X94023244Y-71380952D01*
X93969672Y-71333333D01*
X93868482Y-71285714D01*
X93725625Y-71285714D01*
X93636339Y-71333333D01*
X93594672Y-71380952D01*
X93558958Y-71476190D01*
X93594672Y-71761904D01*
X93654196Y-71857142D01*
X93707767Y-71904761D01*
X93808958Y-71952380D01*
X93951815Y-71952380D01*
X93189910Y-71952380D02*
X93106577Y-71285714D01*
X93130386Y-71476190D02*
X93070863Y-71380952D01*
X93017291Y-71333333D01*
X92916101Y-71285714D01*
X92820863Y-71285714D01*
X92570863Y-71952380D02*
X92445863Y-70952380D01*
X92428005Y-71571428D02*
X92189910Y-71952380D01*
X92106577Y-71285714D02*
X92535148Y-71666666D01*
X91803005Y-71904761D02*
X91713720Y-71952380D01*
X91523244Y-71952380D01*
X91422053Y-71904761D01*
X91362529Y-71809523D01*
X91356577Y-71761904D01*
X91392291Y-71666666D01*
X91481577Y-71619047D01*
X91624434Y-71619047D01*
X91713720Y-71571428D01*
X91749434Y-71476190D01*
X91743482Y-71428571D01*
X91683958Y-71333333D01*
X91582767Y-71285714D01*
X91439910Y-71285714D01*
X91350624Y-71333333D01*
%TO.C,C5*%
X115599272Y-47244280D02*
X115646412Y-47244280D01*
X115740693Y-47197140D01*
X115787834Y-47149999D01*
X115834974Y-47055719D01*
X115834974Y-46961438D01*
X115811404Y-46890727D01*
X115740693Y-46772876D01*
X115669983Y-46702165D01*
X115552132Y-46631455D01*
X115481421Y-46607884D01*
X115387140Y-46607884D01*
X115292859Y-46655025D01*
X115245719Y-46702165D01*
X115198578Y-46796446D01*
X115198578Y-46843587D01*
X114703603Y-47244280D02*
X114939306Y-47008578D01*
X115198578Y-47220710D01*
X115151438Y-47220710D01*
X115080727Y-47244280D01*
X114962876Y-47362132D01*
X114939306Y-47432842D01*
X114939306Y-47479983D01*
X114962876Y-47550693D01*
X115080727Y-47668544D01*
X115151438Y-47692115D01*
X115198578Y-47692115D01*
X115269289Y-47668544D01*
X115387140Y-47550693D01*
X115410710Y-47479983D01*
X115410710Y-47432842D01*
%TO.C,D3*%
X127812828Y-27877262D02*
X127212828Y-27877262D01*
X127212828Y-28020120D01*
X127241400Y-28105834D01*
X127298542Y-28162977D01*
X127355685Y-28191548D01*
X127469971Y-28220120D01*
X127555685Y-28220120D01*
X127669971Y-28191548D01*
X127727114Y-28162977D01*
X127784257Y-28105834D01*
X127812828Y-28020120D01*
X127812828Y-27877262D01*
X127212828Y-28420120D02*
X127212828Y-28791548D01*
X127441400Y-28591548D01*
X127441400Y-28677262D01*
X127469971Y-28734405D01*
X127498542Y-28762977D01*
X127555685Y-28791548D01*
X127698542Y-28791548D01*
X127755685Y-28762977D01*
X127784257Y-28734405D01*
X127812828Y-28677262D01*
X127812828Y-28505834D01*
X127784257Y-28448691D01*
X127755685Y-28420120D01*
%TO.C,D8*%
X108824078Y-68613512D02*
X108224078Y-68613512D01*
X108224078Y-68756370D01*
X108252650Y-68842084D01*
X108309792Y-68899227D01*
X108366935Y-68927798D01*
X108481221Y-68956370D01*
X108566935Y-68956370D01*
X108681221Y-68927798D01*
X108738364Y-68899227D01*
X108795507Y-68842084D01*
X108824078Y-68756370D01*
X108824078Y-68613512D01*
X108481221Y-69299227D02*
X108452650Y-69242084D01*
X108424078Y-69213512D01*
X108366935Y-69184941D01*
X108338364Y-69184941D01*
X108281221Y-69213512D01*
X108252650Y-69242084D01*
X108224078Y-69299227D01*
X108224078Y-69413512D01*
X108252650Y-69470655D01*
X108281221Y-69499227D01*
X108338364Y-69527798D01*
X108366935Y-69527798D01*
X108424078Y-69499227D01*
X108452650Y-69470655D01*
X108481221Y-69413512D01*
X108481221Y-69299227D01*
X108509792Y-69242084D01*
X108538364Y-69213512D01*
X108595507Y-69184941D01*
X108709792Y-69184941D01*
X108766935Y-69213512D01*
X108795507Y-69242084D01*
X108824078Y-69299227D01*
X108824078Y-69413512D01*
X108795507Y-69470655D01*
X108766935Y-69499227D01*
X108709792Y-69527798D01*
X108595507Y-69527798D01*
X108538364Y-69499227D01*
X108509792Y-69470655D01*
X108481221Y-69413512D01*
%TO.C,R1*%
X107002380Y-39473333D02*
X106526190Y-39140000D01*
X107002380Y-38901904D02*
X106002380Y-38901904D01*
X106002380Y-39282857D01*
X106050000Y-39378095D01*
X106097619Y-39425714D01*
X106192857Y-39473333D01*
X106335714Y-39473333D01*
X106430952Y-39425714D01*
X106478571Y-39378095D01*
X106526190Y-39282857D01*
X106526190Y-38901904D01*
X107002380Y-40425714D02*
X107002380Y-39854285D01*
X107002380Y-40140000D02*
X106002380Y-40140000D01*
X106145238Y-40044761D01*
X106240476Y-39949523D01*
X106288095Y-39854285D01*
%TO.C,R3*%
X117376666Y-59572380D02*
X117710000Y-59096190D01*
X117948095Y-59572380D02*
X117948095Y-58572380D01*
X117567142Y-58572380D01*
X117471904Y-58620000D01*
X117424285Y-58667619D01*
X117376666Y-58762857D01*
X117376666Y-58905714D01*
X117424285Y-59000952D01*
X117471904Y-59048571D01*
X117567142Y-59096190D01*
X117948095Y-59096190D01*
X117043333Y-58572380D02*
X116424285Y-58572380D01*
X116757619Y-58953333D01*
X116614761Y-58953333D01*
X116519523Y-59000952D01*
X116471904Y-59048571D01*
X116424285Y-59143809D01*
X116424285Y-59381904D01*
X116471904Y-59477142D01*
X116519523Y-59524761D01*
X116614761Y-59572380D01*
X116900476Y-59572380D01*
X116995714Y-59524761D01*
X117043333Y-59477142D01*
%TO.C,D2*%
X109492828Y-25207262D02*
X108892828Y-25207262D01*
X108892828Y-25350120D01*
X108921400Y-25435834D01*
X108978542Y-25492977D01*
X109035685Y-25521548D01*
X109149971Y-25550120D01*
X109235685Y-25550120D01*
X109349971Y-25521548D01*
X109407114Y-25492977D01*
X109464257Y-25435834D01*
X109492828Y-25350120D01*
X109492828Y-25207262D01*
X108949971Y-25778691D02*
X108921400Y-25807262D01*
X108892828Y-25864405D01*
X108892828Y-26007262D01*
X108921400Y-26064405D01*
X108949971Y-26092977D01*
X109007114Y-26121548D01*
X109064257Y-26121548D01*
X109149971Y-26092977D01*
X109492828Y-25750120D01*
X109492828Y-26121548D01*
%TO.C,J1*%
X118602083Y-12708630D02*
X118602083Y-13422916D01*
X118649702Y-13565773D01*
X118744940Y-13661011D01*
X118887797Y-13708630D01*
X118983035Y-13708630D01*
X117602083Y-13708630D02*
X118173511Y-13708630D01*
X117887797Y-13708630D02*
X117887797Y-12708630D01*
X117983035Y-12851488D01*
X118078273Y-12946726D01*
X118173511Y-12994345D01*
%TO.C,U1*%
X108806066Y-50741818D02*
X109206759Y-51142512D01*
X109230330Y-51213223D01*
X109230330Y-51260363D01*
X109206759Y-51331074D01*
X109112478Y-51425355D01*
X109041768Y-51448925D01*
X108994627Y-51448925D01*
X108923917Y-51425355D01*
X108523223Y-51024661D01*
X108523223Y-52014610D02*
X108806066Y-51731768D01*
X108664644Y-51873189D02*
X108169669Y-51378214D01*
X108287521Y-51401785D01*
X108381801Y-51401785D01*
X108452512Y-51378214D01*
%TO.C,R2*%
X111362380Y-39473333D02*
X110886190Y-39140000D01*
X111362380Y-38901904D02*
X110362380Y-38901904D01*
X110362380Y-39282857D01*
X110410000Y-39378095D01*
X110457619Y-39425714D01*
X110552857Y-39473333D01*
X110695714Y-39473333D01*
X110790952Y-39425714D01*
X110838571Y-39378095D01*
X110886190Y-39282857D01*
X110886190Y-38901904D01*
X110457619Y-39854285D02*
X110410000Y-39901904D01*
X110362380Y-39997142D01*
X110362380Y-40235238D01*
X110410000Y-40330476D01*
X110457619Y-40378095D01*
X110552857Y-40425714D01*
X110648095Y-40425714D01*
X110790952Y-40378095D01*
X111362380Y-39806666D01*
X111362380Y-40425714D01*
%TO.C,D7*%
X104855328Y-68613512D02*
X104255328Y-68613512D01*
X104255328Y-68756370D01*
X104283900Y-68842084D01*
X104341042Y-68899227D01*
X104398185Y-68927798D01*
X104512471Y-68956370D01*
X104598185Y-68956370D01*
X104712471Y-68927798D01*
X104769614Y-68899227D01*
X104826757Y-68842084D01*
X104855328Y-68756370D01*
X104855328Y-68613512D01*
X104255328Y-69156370D02*
X104255328Y-69556370D01*
X104855328Y-69299227D01*
%TO.C,R4*%
X110666666Y-17603150D02*
X111000000Y-17126960D01*
X111238095Y-17603150D02*
X111238095Y-16603150D01*
X110857142Y-16603150D01*
X110761904Y-16650770D01*
X110714285Y-16698389D01*
X110666666Y-16793627D01*
X110666666Y-16936484D01*
X110714285Y-17031722D01*
X110761904Y-17079341D01*
X110857142Y-17126960D01*
X111238095Y-17126960D01*
X109809523Y-16936484D02*
X109809523Y-17603150D01*
X110047619Y-16555531D02*
X110285714Y-17269817D01*
X109666666Y-17269817D01*
%TO.C,C4*%
X108869273Y-45074280D02*
X108916413Y-45074280D01*
X109010694Y-45027140D01*
X109057835Y-44979999D01*
X109104975Y-44885719D01*
X109104975Y-44791438D01*
X109081405Y-44720727D01*
X109010694Y-44602876D01*
X108939984Y-44532165D01*
X108822133Y-44461455D01*
X108751422Y-44437884D01*
X108657141Y-44437884D01*
X108562860Y-44485025D01*
X108515720Y-44532165D01*
X108468579Y-44626446D01*
X108468579Y-44673587D01*
X108162166Y-45215702D02*
X108492149Y-45545685D01*
X108091456Y-44909289D02*
X108562860Y-45144991D01*
X108256447Y-45451404D01*
%TO.C,D9*%
X127632828Y-68802262D02*
X127032828Y-68802262D01*
X127032828Y-68945120D01*
X127061400Y-69030834D01*
X127118542Y-69087977D01*
X127175685Y-69116548D01*
X127289971Y-69145120D01*
X127375685Y-69145120D01*
X127489971Y-69116548D01*
X127547114Y-69087977D01*
X127604257Y-69030834D01*
X127632828Y-68945120D01*
X127632828Y-68802262D01*
X127632828Y-69430834D02*
X127632828Y-69545120D01*
X127604257Y-69602262D01*
X127575685Y-69630834D01*
X127489971Y-69687977D01*
X127375685Y-69716548D01*
X127147114Y-69716548D01*
X127089971Y-69687977D01*
X127061400Y-69659405D01*
X127032828Y-69602262D01*
X127032828Y-69487977D01*
X127061400Y-69430834D01*
X127089971Y-69402262D01*
X127147114Y-69373691D01*
X127289971Y-69373691D01*
X127347114Y-69402262D01*
X127375685Y-69430834D01*
X127404257Y-69487977D01*
X127404257Y-69602262D01*
X127375685Y-69659405D01*
X127347114Y-69687977D01*
X127289971Y-69716548D01*
%TO.C,D6*%
X127874078Y-42419762D02*
X127274078Y-42419762D01*
X127274078Y-42562620D01*
X127302650Y-42648334D01*
X127359792Y-42705477D01*
X127416935Y-42734048D01*
X127531221Y-42762620D01*
X127616935Y-42762620D01*
X127731221Y-42734048D01*
X127788364Y-42705477D01*
X127845507Y-42648334D01*
X127874078Y-42562620D01*
X127874078Y-42419762D01*
X127274078Y-43276905D02*
X127274078Y-43162620D01*
X127302650Y-43105477D01*
X127331221Y-43076905D01*
X127416935Y-43019762D01*
X127531221Y-42991191D01*
X127759792Y-42991191D01*
X127816935Y-43019762D01*
X127845507Y-43048334D01*
X127874078Y-43105477D01*
X127874078Y-43219762D01*
X127845507Y-43276905D01*
X127816935Y-43305477D01*
X127759792Y-43334048D01*
X127616935Y-43334048D01*
X127559792Y-43305477D01*
X127531221Y-43276905D01*
X127502650Y-43219762D01*
X127502650Y-43105477D01*
X127531221Y-43048334D01*
X127559792Y-43019762D01*
X127616935Y-42991191D01*
%TO.C,U2*%
X105302380Y-35428095D02*
X106111904Y-35428095D01*
X106207142Y-35475714D01*
X106254761Y-35523333D01*
X106302380Y-35618571D01*
X106302380Y-35809047D01*
X106254761Y-35904285D01*
X106207142Y-35951904D01*
X106111904Y-35999523D01*
X105302380Y-35999523D01*
X105397619Y-36428095D02*
X105350000Y-36475714D01*
X105302380Y-36570952D01*
X105302380Y-36809047D01*
X105350000Y-36904285D01*
X105397619Y-36951904D01*
X105492857Y-36999523D01*
X105588095Y-36999523D01*
X105730952Y-36951904D01*
X106302380Y-36380476D01*
X106302380Y-36999523D01*
%TO.C,D4*%
X90392828Y-46002262D02*
X89792828Y-46002262D01*
X89792828Y-46145120D01*
X89821400Y-46230834D01*
X89878542Y-46287977D01*
X89935685Y-46316548D01*
X90049971Y-46345120D01*
X90135685Y-46345120D01*
X90249971Y-46316548D01*
X90307114Y-46287977D01*
X90364257Y-46230834D01*
X90392828Y-46145120D01*
X90392828Y-46002262D01*
X89992828Y-46859405D02*
X90392828Y-46859405D01*
X89764257Y-46716548D02*
X90192828Y-46573691D01*
X90192828Y-46945120D01*
%TO.C,C2*%
X115055719Y-53309272D02*
X115055719Y-53356412D01*
X115102859Y-53450693D01*
X115150000Y-53497834D01*
X115244280Y-53544974D01*
X115338561Y-53544974D01*
X115409272Y-53521404D01*
X115527123Y-53450693D01*
X115597834Y-53379983D01*
X115668544Y-53262132D01*
X115692115Y-53191421D01*
X115692115Y-53097140D01*
X115644974Y-53002859D01*
X115597834Y-52955719D01*
X115503553Y-52908578D01*
X115456412Y-52908578D01*
X115267851Y-52720016D02*
X115267851Y-52672876D01*
X115244280Y-52602165D01*
X115126429Y-52484314D01*
X115055719Y-52460744D01*
X115008578Y-52460744D01*
X114937867Y-52484314D01*
X114890727Y-52531455D01*
X114843587Y-52625735D01*
X114843587Y-53191421D01*
X114537174Y-52885008D01*
%TO.C,C3*%
X106429273Y-47554280D02*
X106476413Y-47554280D01*
X106570694Y-47507140D01*
X106617835Y-47459999D01*
X106664975Y-47365719D01*
X106664975Y-47271438D01*
X106641405Y-47200727D01*
X106570694Y-47082876D01*
X106499984Y-47012165D01*
X106382133Y-46941455D01*
X106311422Y-46917884D01*
X106217141Y-46917884D01*
X106122860Y-46965025D01*
X106075720Y-47012165D01*
X106028579Y-47106446D01*
X106028579Y-47153587D01*
X105816447Y-47271438D02*
X105510034Y-47577851D01*
X105863588Y-47601421D01*
X105792877Y-47672132D01*
X105769307Y-47742842D01*
X105769307Y-47789983D01*
X105792877Y-47860693D01*
X105910728Y-47978544D01*
X105981439Y-48002115D01*
X106028579Y-48002115D01*
X106099290Y-47978544D01*
X106240711Y-47837123D01*
X106264281Y-47766412D01*
X106264281Y-47719272D01*
%TO.C,R6*%
X125546666Y-57222380D02*
X125880000Y-56746190D01*
X126118095Y-57222380D02*
X126118095Y-56222380D01*
X125737142Y-56222380D01*
X125641904Y-56270000D01*
X125594285Y-56317619D01*
X125546666Y-56412857D01*
X125546666Y-56555714D01*
X125594285Y-56650952D01*
X125641904Y-56698571D01*
X125737142Y-56746190D01*
X126118095Y-56746190D01*
X124689523Y-56222380D02*
X124880000Y-56222380D01*
X124975238Y-56270000D01*
X125022857Y-56317619D01*
X125118095Y-56460476D01*
X125165714Y-56650952D01*
X125165714Y-57031904D01*
X125118095Y-57127142D01*
X125070476Y-57174761D01*
X124975238Y-57222380D01*
X124784761Y-57222380D01*
X124689523Y-57174761D01*
X124641904Y-57127142D01*
X124594285Y-57031904D01*
X124594285Y-56793809D01*
X124641904Y-56698571D01*
X124689523Y-56650952D01*
X124784761Y-56603333D01*
X124975238Y-56603333D01*
X125070476Y-56650952D01*
X125118095Y-56698571D01*
X125165714Y-56793809D01*
%TO.C,D1*%
X90758928Y-26772262D02*
X90158928Y-26772262D01*
X90158928Y-26915120D01*
X90187500Y-27000834D01*
X90244642Y-27057977D01*
X90301785Y-27086548D01*
X90416071Y-27115120D01*
X90501785Y-27115120D01*
X90616071Y-27086548D01*
X90673214Y-27057977D01*
X90730357Y-27000834D01*
X90758928Y-26915120D01*
X90758928Y-26772262D01*
X90758928Y-27686548D02*
X90758928Y-27343691D01*
X90758928Y-27515120D02*
X90158928Y-27515120D01*
X90244642Y-27457977D01*
X90301785Y-27400834D01*
X90330357Y-27343691D01*
%TO.C,R5*%
X126166666Y-17533150D02*
X126500000Y-17056960D01*
X126738095Y-17533150D02*
X126738095Y-16533150D01*
X126357142Y-16533150D01*
X126261904Y-16580770D01*
X126214285Y-16628389D01*
X126166666Y-16723627D01*
X126166666Y-16866484D01*
X126214285Y-16961722D01*
X126261904Y-17009341D01*
X126357142Y-17056960D01*
X126738095Y-17056960D01*
X125261904Y-16533150D02*
X125738095Y-16533150D01*
X125785714Y-17009341D01*
X125738095Y-16961722D01*
X125642857Y-16914103D01*
X125404761Y-16914103D01*
X125309523Y-16961722D01*
X125261904Y-17009341D01*
X125214285Y-17104579D01*
X125214285Y-17342674D01*
X125261904Y-17437912D01*
X125309523Y-17485531D01*
X125404761Y-17533150D01*
X125642857Y-17533150D01*
X125738095Y-17485531D01*
X125785714Y-17437912D01*
%TO.C,Y1*%
X109177487Y-48813917D02*
X108941785Y-49049619D01*
X109601751Y-48719636D02*
X109177487Y-48813917D01*
X109271768Y-48389653D01*
X108352529Y-48460363D02*
X108635372Y-48743206D01*
X108493950Y-48601785D02*
X108988925Y-48106810D01*
X108965355Y-48224661D01*
X108965355Y-48318942D01*
X108988925Y-48389653D01*
%TO.C,F1*%
X122168571Y-34616666D02*
X122168571Y-34283333D01*
X122692380Y-34283333D02*
X121692380Y-34283333D01*
X121692380Y-34759523D01*
X122692380Y-35664285D02*
X122692380Y-35092857D01*
X122692380Y-35378571D02*
X121692380Y-35378571D01*
X121835238Y-35283333D01*
X121930476Y-35188095D01*
X121978095Y-35092857D01*
%TO.C,D5*%
X124699078Y-42419762D02*
X124099078Y-42419762D01*
X124099078Y-42562620D01*
X124127650Y-42648334D01*
X124184792Y-42705477D01*
X124241935Y-42734048D01*
X124356221Y-42762620D01*
X124441935Y-42762620D01*
X124556221Y-42734048D01*
X124613364Y-42705477D01*
X124670507Y-42648334D01*
X124699078Y-42562620D01*
X124699078Y-42419762D01*
X124099078Y-43305477D02*
X124099078Y-43019762D01*
X124384792Y-42991191D01*
X124356221Y-43019762D01*
X124327650Y-43076905D01*
X124327650Y-43219762D01*
X124356221Y-43276905D01*
X124384792Y-43305477D01*
X124441935Y-43334048D01*
X124584792Y-43334048D01*
X124641935Y-43305477D01*
X124670507Y-43276905D01*
X124699078Y-43219762D01*
X124699078Y-43076905D01*
X124670507Y-43019762D01*
X124641935Y-42991191D01*
%TO.C,C1*%
X102259272Y-51764280D02*
X102306412Y-51764280D01*
X102400693Y-51717140D01*
X102447834Y-51669999D01*
X102494974Y-51575719D01*
X102494974Y-51481438D01*
X102471404Y-51410727D01*
X102400693Y-51292876D01*
X102329983Y-51222165D01*
X102212132Y-51151455D01*
X102141421Y-51127884D01*
X102047140Y-51127884D01*
X101952859Y-51175025D01*
X101905719Y-51222165D01*
X101858578Y-51316446D01*
X101858578Y-51363587D01*
X101835008Y-52282825D02*
X102117851Y-51999983D01*
X101976429Y-52141404D02*
X101481455Y-51646429D01*
X101599306Y-51669999D01*
X101693587Y-51669999D01*
X101764297Y-51646429D01*
D11*
%TO.C,Ref\u002A\u002A*%
X128499141Y-58315922D02*
X128361518Y-58317764D01*
X128361518Y-58317764D02*
X128239923Y-58321091D01*
X128239923Y-58321091D02*
X128141819Y-58325901D01*
X128141819Y-58325901D02*
X128074667Y-58332196D01*
X128074667Y-58332196D02*
X128054403Y-58336071D01*
X128054403Y-58336071D02*
X127987315Y-58367782D01*
X127987315Y-58367782D02*
X127927276Y-58416388D01*
X127927276Y-58416388D02*
X127922111Y-58422243D01*
X127922111Y-58422243D02*
X127867834Y-58486748D01*
X127867834Y-58486748D02*
X127867834Y-60099664D01*
X127867834Y-60099664D02*
X127867773Y-60406105D01*
X127867773Y-60406105D02*
X127867739Y-60673027D01*
X127867739Y-60673027D02*
X127867960Y-60903243D01*
X127867960Y-60903243D02*
X127868660Y-61099569D01*
X127868660Y-61099569D02*
X127870066Y-61264818D01*
X127870066Y-61264818D02*
X127872403Y-61401804D01*
X127872403Y-61401804D02*
X127875896Y-61513342D01*
X127875896Y-61513342D02*
X127880772Y-61602244D01*
X127880772Y-61602244D02*
X127887256Y-61671325D01*
X127887256Y-61671325D02*
X127895575Y-61723400D01*
X127895575Y-61723400D02*
X127905953Y-61761281D01*
X127905953Y-61761281D02*
X127918617Y-61787784D01*
X127918617Y-61787784D02*
X127933792Y-61805721D01*
X127933792Y-61805721D02*
X127951704Y-61817908D01*
X127951704Y-61817908D02*
X127972579Y-61827158D01*
X127972579Y-61827158D02*
X127996643Y-61836284D01*
X127996643Y-61836284D02*
X128007504Y-61840653D01*
X128007504Y-61840653D02*
X128072037Y-61863556D01*
X128072037Y-61863556D02*
X128122022Y-61865915D01*
X128122022Y-61865915D02*
X128179983Y-61847623D01*
X128179983Y-61847623D02*
X128198493Y-61839752D01*
X128198493Y-61839752D02*
X128235200Y-61822984D01*
X128235200Y-61822984D02*
X128264566Y-61804993D01*
X128264566Y-61804993D02*
X128287411Y-61781173D01*
X128287411Y-61781173D02*
X128304552Y-61746918D01*
X128304552Y-61746918D02*
X128316810Y-61697620D01*
X128316810Y-61697620D02*
X128325002Y-61628673D01*
X128325002Y-61628673D02*
X128329949Y-61535471D01*
X128329949Y-61535471D02*
X128332468Y-61413407D01*
X128332468Y-61413407D02*
X128333379Y-61257874D01*
X128333379Y-61257874D02*
X128333500Y-61080329D01*
X128333500Y-61080329D02*
X128333500Y-60448077D01*
X128333500Y-60448077D02*
X128436901Y-60541043D01*
X128436901Y-60541043D02*
X128609238Y-60668590D01*
X128609238Y-60668590D02*
X128799010Y-60759607D01*
X128799010Y-60759607D02*
X129001129Y-60813408D01*
X129001129Y-60813408D02*
X129210508Y-60829308D01*
X129210508Y-60829308D02*
X129422061Y-60806622D01*
X129422061Y-60806622D02*
X129630700Y-60744665D01*
X129630700Y-60744665D02*
X129705629Y-60711895D01*
X129705629Y-60711895D02*
X129809049Y-60648610D01*
X129809049Y-60648610D02*
X129920319Y-60557458D01*
X129920319Y-60557458D02*
X130029213Y-60448853D01*
X130029213Y-60448853D02*
X130125505Y-60333208D01*
X130125505Y-60333208D02*
X130198971Y-60220937D01*
X130198971Y-60220937D02*
X130211591Y-60196632D01*
X130211591Y-60196632D02*
X130276358Y-60043773D01*
X130276358Y-60043773D02*
X130317555Y-59892486D01*
X130317555Y-59892486D02*
X130337648Y-59729627D01*
X130337648Y-59729627D02*
X130338902Y-59567305D01*
X130338902Y-59567305D02*
X129892634Y-59567305D01*
X129892634Y-59567305D02*
X129879519Y-59725779D01*
X129879519Y-59725779D02*
X129828685Y-59907821D01*
X129828685Y-59907821D02*
X129746304Y-60065684D01*
X129746304Y-60065684D02*
X129636598Y-60196726D01*
X129636598Y-60196726D02*
X129503791Y-60298308D01*
X129503791Y-60298308D02*
X129352103Y-60367789D01*
X129352103Y-60367789D02*
X129185756Y-60402529D01*
X129185756Y-60402529D02*
X129008974Y-60399888D01*
X129008974Y-60399888D02*
X128854745Y-60366616D01*
X128854745Y-60366616D02*
X128705803Y-60299363D01*
X128705803Y-60299363D02*
X128576535Y-60198866D01*
X128576535Y-60198866D02*
X128470174Y-60070890D01*
X128470174Y-60070890D02*
X128389953Y-59921203D01*
X128389953Y-59921203D02*
X128339105Y-59755570D01*
X128339105Y-59755570D02*
X128320864Y-59579756D01*
X128320864Y-59579756D02*
X128332108Y-59434473D01*
X128332108Y-59434473D02*
X128380025Y-59254266D01*
X128380025Y-59254266D02*
X128459134Y-59097639D01*
X128459134Y-59097639D02*
X128564852Y-58966941D01*
X128564852Y-58966941D02*
X128692597Y-58864517D01*
X128692597Y-58864517D02*
X128837787Y-58792716D01*
X128837787Y-58792716D02*
X128995840Y-58753883D01*
X128995840Y-58753883D02*
X129162174Y-58750366D01*
X129162174Y-58750366D02*
X129332208Y-58784512D01*
X129332208Y-58784512D02*
X129479611Y-58846699D01*
X129479611Y-58846699D02*
X129619812Y-58944538D01*
X129619812Y-58944538D02*
X129734002Y-59071645D01*
X129734002Y-59071645D02*
X129819394Y-59221893D01*
X129819394Y-59221893D02*
X129873200Y-59389155D01*
X129873200Y-59389155D02*
X129892634Y-59567305D01*
X129892634Y-59567305D02*
X130338902Y-59567305D01*
X130338902Y-59567305D02*
X130339098Y-59542051D01*
X130339098Y-59542051D02*
X130338281Y-59520667D01*
X130338281Y-59520667D02*
X130314547Y-59295715D01*
X130314547Y-59295715D02*
X130261776Y-59097840D01*
X130261776Y-59097840D02*
X130177438Y-58921112D01*
X130177438Y-58921112D02*
X130059006Y-58759602D01*
X130059006Y-58759602D02*
X129977270Y-58674000D01*
X129977270Y-58674000D02*
X129817778Y-58542124D01*
X129817778Y-58542124D02*
X129644827Y-58443802D01*
X129644827Y-58443802D02*
X129451026Y-58375628D01*
X129451026Y-58375628D02*
X129243667Y-58336048D01*
X129243667Y-58336048D02*
X129166554Y-58328981D01*
X129166554Y-58328981D02*
X129060703Y-58323400D01*
X129060703Y-58323400D02*
X128933575Y-58319303D01*
X128933575Y-58319303D02*
X128792631Y-58316692D01*
X128792631Y-58316692D02*
X128645333Y-58315565D01*
X128645333Y-58315565D02*
X128499141Y-58315922D01*
X128499141Y-58315922D02*
X128499141Y-58315922D01*
G36*
X130317555Y-59892486D02*
G01*
X130276358Y-60043773D01*
X130211591Y-60196632D01*
X130198971Y-60220937D01*
X130125505Y-60333208D01*
X130029213Y-60448853D01*
X129920319Y-60557458D01*
X129809049Y-60648610D01*
X129705629Y-60711895D01*
X129630700Y-60744665D01*
X129422061Y-60806622D01*
X129210508Y-60829308D01*
X129001129Y-60813408D01*
X128799010Y-60759607D01*
X128609238Y-60668590D01*
X128436901Y-60541043D01*
X128333500Y-60448077D01*
X128333500Y-61080329D01*
X128333379Y-61257874D01*
X128332468Y-61413407D01*
X128329949Y-61535471D01*
X128325002Y-61628673D01*
X128316810Y-61697620D01*
X128304552Y-61746918D01*
X128287411Y-61781173D01*
X128264566Y-61804993D01*
X128235200Y-61822984D01*
X128198493Y-61839752D01*
X128179983Y-61847623D01*
X128122022Y-61865915D01*
X128072037Y-61863556D01*
X128007504Y-61840653D01*
X127996643Y-61836284D01*
X127972579Y-61827158D01*
X127951704Y-61817908D01*
X127933792Y-61805721D01*
X127918617Y-61787784D01*
X127905953Y-61761281D01*
X127895575Y-61723400D01*
X127887256Y-61671325D01*
X127880772Y-61602244D01*
X127875896Y-61513342D01*
X127872403Y-61401804D01*
X127870066Y-61264818D01*
X127868660Y-61099569D01*
X127867960Y-60903243D01*
X127867739Y-60673027D01*
X127867773Y-60406105D01*
X127867834Y-60099664D01*
X127867834Y-59579756D01*
X128320864Y-59579756D01*
X128339105Y-59755570D01*
X128389953Y-59921203D01*
X128470174Y-60070890D01*
X128576535Y-60198866D01*
X128705803Y-60299363D01*
X128854745Y-60366616D01*
X129008974Y-60399888D01*
X129185756Y-60402529D01*
X129352103Y-60367789D01*
X129503791Y-60298308D01*
X129636598Y-60196726D01*
X129746304Y-60065684D01*
X129828685Y-59907821D01*
X129879519Y-59725779D01*
X129892634Y-59567305D01*
X129873200Y-59389155D01*
X129819394Y-59221893D01*
X129734002Y-59071645D01*
X129619812Y-58944538D01*
X129479611Y-58846699D01*
X129332208Y-58784512D01*
X129162174Y-58750366D01*
X128995840Y-58753883D01*
X128837787Y-58792716D01*
X128692597Y-58864517D01*
X128564852Y-58966941D01*
X128459134Y-59097639D01*
X128380025Y-59254266D01*
X128332108Y-59434473D01*
X128320864Y-59579756D01*
X127867834Y-59579756D01*
X127867834Y-58486748D01*
X127922111Y-58422243D01*
X127927276Y-58416388D01*
X127987315Y-58367782D01*
X128054403Y-58336071D01*
X128074667Y-58332196D01*
X128141819Y-58325901D01*
X128239923Y-58321091D01*
X128361518Y-58317764D01*
X128499141Y-58315922D01*
X128645333Y-58315565D01*
X128792631Y-58316692D01*
X128933575Y-58319303D01*
X129060703Y-58323400D01*
X129166554Y-58328981D01*
X129243667Y-58336048D01*
X129451026Y-58375628D01*
X129644827Y-58443802D01*
X129817778Y-58542124D01*
X129977270Y-58674000D01*
X130059006Y-58759602D01*
X130177438Y-58921112D01*
X130261776Y-59097840D01*
X130314547Y-59295715D01*
X130338281Y-59520667D01*
X130339098Y-59542051D01*
X130338902Y-59567305D01*
X130337648Y-59729627D01*
X130317555Y-59892486D01*
G37*
X130317555Y-59892486D02*
X130276358Y-60043773D01*
X130211591Y-60196632D01*
X130198971Y-60220937D01*
X130125505Y-60333208D01*
X130029213Y-60448853D01*
X129920319Y-60557458D01*
X129809049Y-60648610D01*
X129705629Y-60711895D01*
X129630700Y-60744665D01*
X129422061Y-60806622D01*
X129210508Y-60829308D01*
X129001129Y-60813408D01*
X128799010Y-60759607D01*
X128609238Y-60668590D01*
X128436901Y-60541043D01*
X128333500Y-60448077D01*
X128333500Y-61080329D01*
X128333379Y-61257874D01*
X128332468Y-61413407D01*
X128329949Y-61535471D01*
X128325002Y-61628673D01*
X128316810Y-61697620D01*
X128304552Y-61746918D01*
X128287411Y-61781173D01*
X128264566Y-61804993D01*
X128235200Y-61822984D01*
X128198493Y-61839752D01*
X128179983Y-61847623D01*
X128122022Y-61865915D01*
X128072037Y-61863556D01*
X128007504Y-61840653D01*
X127996643Y-61836284D01*
X127972579Y-61827158D01*
X127951704Y-61817908D01*
X127933792Y-61805721D01*
X127918617Y-61787784D01*
X127905953Y-61761281D01*
X127895575Y-61723400D01*
X127887256Y-61671325D01*
X127880772Y-61602244D01*
X127875896Y-61513342D01*
X127872403Y-61401804D01*
X127870066Y-61264818D01*
X127868660Y-61099569D01*
X127867960Y-60903243D01*
X127867739Y-60673027D01*
X127867773Y-60406105D01*
X127867834Y-60099664D01*
X127867834Y-59579756D01*
X128320864Y-59579756D01*
X128339105Y-59755570D01*
X128389953Y-59921203D01*
X128470174Y-60070890D01*
X128576535Y-60198866D01*
X128705803Y-60299363D01*
X128854745Y-60366616D01*
X129008974Y-60399888D01*
X129185756Y-60402529D01*
X129352103Y-60367789D01*
X129503791Y-60298308D01*
X129636598Y-60196726D01*
X129746304Y-60065684D01*
X129828685Y-59907821D01*
X129879519Y-59725779D01*
X129892634Y-59567305D01*
X129873200Y-59389155D01*
X129819394Y-59221893D01*
X129734002Y-59071645D01*
X129619812Y-58944538D01*
X129479611Y-58846699D01*
X129332208Y-58784512D01*
X129162174Y-58750366D01*
X128995840Y-58753883D01*
X128837787Y-58792716D01*
X128692597Y-58864517D01*
X128564852Y-58966941D01*
X128459134Y-59097639D01*
X128380025Y-59254266D01*
X128332108Y-59434473D01*
X128320864Y-59579756D01*
X127867834Y-59579756D01*
X127867834Y-58486748D01*
X127922111Y-58422243D01*
X127927276Y-58416388D01*
X127987315Y-58367782D01*
X128054403Y-58336071D01*
X128074667Y-58332196D01*
X128141819Y-58325901D01*
X128239923Y-58321091D01*
X128361518Y-58317764D01*
X128499141Y-58315922D01*
X128645333Y-58315565D01*
X128792631Y-58316692D01*
X128933575Y-58319303D01*
X129060703Y-58323400D01*
X129166554Y-58328981D01*
X129243667Y-58336048D01*
X129451026Y-58375628D01*
X129644827Y-58443802D01*
X129817778Y-58542124D01*
X129977270Y-58674000D01*
X130059006Y-58759602D01*
X130177438Y-58921112D01*
X130261776Y-59097840D01*
X130314547Y-59295715D01*
X130338281Y-59520667D01*
X130339098Y-59542051D01*
X130338902Y-59567305D01*
X130337648Y-59729627D01*
X130317555Y-59892486D01*
X125528505Y-58356947D02*
X125454028Y-58398882D01*
X125454028Y-58398882D02*
X125402476Y-58466410D01*
X125402476Y-58466410D02*
X125402456Y-58466455D01*
X125402456Y-58466455D02*
X125390019Y-58502731D01*
X125390019Y-58502731D02*
X125368656Y-58574935D01*
X125368656Y-58574935D02*
X125339764Y-58677942D01*
X125339764Y-58677942D02*
X125304738Y-58806625D01*
X125304738Y-58806625D02*
X125264976Y-58955856D01*
X125264976Y-58955856D02*
X125221872Y-59120510D01*
X125221872Y-59120510D02*
X125178960Y-59287100D01*
X125178960Y-59287100D02*
X125135089Y-59458308D01*
X125135089Y-59458308D02*
X125094430Y-59616116D01*
X125094430Y-59616116D02*
X125058183Y-59755937D01*
X125058183Y-59755937D02*
X125027545Y-59873184D01*
X125027545Y-59873184D02*
X125003716Y-59963268D01*
X125003716Y-59963268D02*
X124987895Y-60021603D01*
X124987895Y-60021603D02*
X124981281Y-60043601D01*
X124981281Y-60043601D02*
X124981247Y-60043643D01*
X124981247Y-60043643D02*
X124973776Y-60025538D01*
X124973776Y-60025538D02*
X124955034Y-59971421D01*
X124955034Y-59971421D02*
X124926450Y-59885662D01*
X124926450Y-59885662D02*
X124889453Y-59772633D01*
X124889453Y-59772633D02*
X124845472Y-59636704D01*
X124845472Y-59636704D02*
X124795939Y-59482245D01*
X124795939Y-59482245D02*
X124742281Y-59313628D01*
X124742281Y-59313628D02*
X124735730Y-59292960D01*
X124735730Y-59292960D02*
X124680680Y-59119975D01*
X124680680Y-59119975D02*
X124628674Y-58958074D01*
X124628674Y-58958074D02*
X124581303Y-58812097D01*
X124581303Y-58812097D02*
X124540158Y-58686882D01*
X124540158Y-58686882D02*
X124506830Y-58587269D01*
X124506830Y-58587269D02*
X124482909Y-58518098D01*
X124482909Y-58518098D02*
X124469987Y-58484206D01*
X124469987Y-58484206D02*
X124469621Y-58483450D01*
X124469621Y-58483450D02*
X124411943Y-58401827D01*
X124411943Y-58401827D02*
X124336508Y-58357249D01*
X124336508Y-58357249D02*
X124254862Y-58345917D01*
X124254862Y-58345917D02*
X124186750Y-58351601D01*
X124186750Y-58351601D02*
X124140293Y-58374017D01*
X124140293Y-58374017D02*
X124108918Y-58405305D01*
X124108918Y-58405305D02*
X124069349Y-58473283D01*
X124069349Y-58473283D02*
X124057834Y-58531084D01*
X124057834Y-58531084D02*
X124064392Y-58563570D01*
X124064392Y-58563570D02*
X124083229Y-58632144D01*
X124083229Y-58632144D02*
X124113083Y-58732783D01*
X124113083Y-58732783D02*
X124152697Y-58861467D01*
X124152697Y-58861467D02*
X124200812Y-59014171D01*
X124200812Y-59014171D02*
X124256167Y-59186875D01*
X124256167Y-59186875D02*
X124317504Y-59375555D01*
X124317504Y-59375555D02*
X124383565Y-59576189D01*
X124383565Y-59576189D02*
X124408388Y-59650953D01*
X124408388Y-59650953D02*
X124486895Y-59886436D01*
X124486895Y-59886436D02*
X124553502Y-60084993D01*
X124553502Y-60084993D02*
X124609452Y-60249944D01*
X124609452Y-60249944D02*
X124655985Y-60384605D01*
X124655985Y-60384605D02*
X124694344Y-60492294D01*
X124694344Y-60492294D02*
X124725770Y-60576329D01*
X124725770Y-60576329D02*
X124751505Y-60640026D01*
X124751505Y-60640026D02*
X124772790Y-60686704D01*
X124772790Y-60686704D02*
X124790867Y-60719680D01*
X124790867Y-60719680D02*
X124806978Y-60742272D01*
X124806978Y-60742272D02*
X124822364Y-60757796D01*
X124822364Y-60757796D02*
X124822762Y-60758133D01*
X124822762Y-60758133D02*
X124907043Y-60804381D01*
X124907043Y-60804381D02*
X124996969Y-60811229D01*
X124996969Y-60811229D02*
X125083461Y-60778815D01*
X125083461Y-60778815D02*
X125116471Y-60753625D01*
X125116471Y-60753625D02*
X125133533Y-60736306D01*
X125133533Y-60736306D02*
X125149613Y-60714139D01*
X125149613Y-60714139D02*
X125166029Y-60683075D01*
X125166029Y-60683075D02*
X125184101Y-60639066D01*
X125184101Y-60639066D02*
X125205149Y-60578060D01*
X125205149Y-60578060D02*
X125230493Y-60496009D01*
X125230493Y-60496009D02*
X125261451Y-60388862D01*
X125261451Y-60388862D02*
X125299343Y-60252571D01*
X125299343Y-60252571D02*
X125345490Y-60083086D01*
X125345490Y-60083086D02*
X125395907Y-59896078D01*
X125395907Y-59896078D02*
X125443606Y-59720494D01*
X125443606Y-59720494D02*
X125488386Y-59559057D01*
X125488386Y-59559057D02*
X125528994Y-59416036D01*
X125528994Y-59416036D02*
X125564177Y-59295698D01*
X125564177Y-59295698D02*
X125592681Y-59202310D01*
X125592681Y-59202310D02*
X125613251Y-59140139D01*
X125613251Y-59140139D02*
X125624635Y-59113453D01*
X125624635Y-59113453D02*
X125625996Y-59112911D01*
X125625996Y-59112911D02*
X125634959Y-59136306D01*
X125634959Y-59136306D02*
X125653902Y-59195894D01*
X125653902Y-59195894D02*
X125681471Y-59287083D01*
X125681471Y-59287083D02*
X125716314Y-59405277D01*
X125716314Y-59405277D02*
X125757077Y-59545884D01*
X125757077Y-59545884D02*
X125802408Y-59704308D01*
X125802408Y-59704308D02*
X125850952Y-59875956D01*
X125850952Y-59875956D02*
X125855205Y-59891084D01*
X125855205Y-59891084D02*
X125904464Y-60065344D01*
X125904464Y-60065344D02*
X125951085Y-60228230D01*
X125951085Y-60228230D02*
X125993631Y-60374879D01*
X125993631Y-60374879D02*
X126030668Y-60500431D01*
X126030668Y-60500431D02*
X126060760Y-60600022D01*
X126060760Y-60600022D02*
X126082474Y-60668792D01*
X126082474Y-60668792D02*
X126094373Y-60701878D01*
X126094373Y-60701878D02*
X126094688Y-60702514D01*
X126094688Y-60702514D02*
X126147218Y-60762045D01*
X126147218Y-60762045D02*
X126224625Y-60799011D01*
X126224625Y-60799011D02*
X126313805Y-60809538D01*
X126313805Y-60809538D02*
X126396750Y-60791823D01*
X126396750Y-60791823D02*
X126445017Y-60761695D01*
X126445017Y-60761695D02*
X126473729Y-60734957D01*
X126473729Y-60734957D02*
X126489564Y-60704322D01*
X126489564Y-60704322D02*
X126516418Y-60637935D01*
X126516418Y-60637935D02*
X126552756Y-60540473D01*
X126552756Y-60540473D02*
X126597043Y-60416613D01*
X126597043Y-60416613D02*
X126647744Y-60271033D01*
X126647744Y-60271033D02*
X126703322Y-60108408D01*
X126703322Y-60108408D02*
X126762242Y-59933416D01*
X126762242Y-59933416D02*
X126822969Y-59750734D01*
X126822969Y-59750734D02*
X126883968Y-59565038D01*
X126883968Y-59565038D02*
X126943703Y-59381007D01*
X126943703Y-59381007D02*
X127000639Y-59203316D01*
X127000639Y-59203316D02*
X127053240Y-59036642D01*
X127053240Y-59036642D02*
X127099971Y-58885663D01*
X127099971Y-58885663D02*
X127139297Y-58755056D01*
X127139297Y-58755056D02*
X127169681Y-58649497D01*
X127169681Y-58649497D02*
X127189590Y-58573663D01*
X127189590Y-58573663D02*
X127197486Y-58532231D01*
X127197486Y-58532231D02*
X127197556Y-58530138D01*
X127197556Y-58530138D02*
X127183186Y-58440061D01*
X127183186Y-58440061D02*
X127139478Y-58380390D01*
X127139478Y-58380390D02*
X127065538Y-58350238D01*
X127065538Y-58350238D02*
X127011386Y-58345917D01*
X127011386Y-58345917D02*
X126937828Y-58353714D01*
X126937828Y-58353714D02*
X126881636Y-58382998D01*
X126881636Y-58382998D02*
X126855776Y-58405640D01*
X126855776Y-58405640D02*
X126841893Y-58419091D01*
X126841893Y-58419091D02*
X126829343Y-58433010D01*
X126829343Y-58433010D02*
X126816946Y-58450693D01*
X126816946Y-58450693D02*
X126803522Y-58475435D01*
X126803522Y-58475435D02*
X126787893Y-58510532D01*
X126787893Y-58510532D02*
X126768877Y-58559279D01*
X126768877Y-58559279D02*
X126745297Y-58624973D01*
X126745297Y-58624973D02*
X126715971Y-58710908D01*
X126715971Y-58710908D02*
X126679721Y-58820381D01*
X126679721Y-58820381D02*
X126635367Y-58956687D01*
X126635367Y-58956687D02*
X126581730Y-59123121D01*
X126581730Y-59123121D02*
X126517629Y-59322980D01*
X126517629Y-59322980D02*
X126441885Y-59559559D01*
X126441885Y-59559559D02*
X126434491Y-59582659D01*
X126434491Y-59582659D02*
X126289298Y-60036234D01*
X126289298Y-60036234D02*
X126080658Y-59328659D01*
X126080658Y-59328659D02*
X126018802Y-59119036D01*
X126018802Y-59119036D02*
X125967576Y-58946162D01*
X125967576Y-58946162D02*
X125925675Y-58806170D01*
X125925675Y-58806170D02*
X125891789Y-58695194D01*
X125891789Y-58695194D02*
X125864611Y-58609369D01*
X125864611Y-58609369D02*
X125842833Y-58544827D01*
X125842833Y-58544827D02*
X125825148Y-58497702D01*
X125825148Y-58497702D02*
X125810247Y-58464129D01*
X125810247Y-58464129D02*
X125796823Y-58440241D01*
X125796823Y-58440241D02*
X125783568Y-58422171D01*
X125783568Y-58422171D02*
X125769174Y-58406054D01*
X125769174Y-58406054D02*
X125768233Y-58405052D01*
X125768233Y-58405052D02*
X125697733Y-58357996D01*
X125697733Y-58357996D02*
X125613782Y-58342639D01*
X125613782Y-58342639D02*
X125528505Y-58356947D01*
X125528505Y-58356947D02*
X125528505Y-58356947D01*
G36*
X125697733Y-58357996D02*
G01*
X125768233Y-58405052D01*
X125769174Y-58406054D01*
X125783568Y-58422171D01*
X125796823Y-58440241D01*
X125810247Y-58464129D01*
X125825148Y-58497702D01*
X125842833Y-58544827D01*
X125864611Y-58609369D01*
X125891789Y-58695194D01*
X125925675Y-58806170D01*
X125967576Y-58946162D01*
X126018802Y-59119036D01*
X126080658Y-59328659D01*
X126289298Y-60036234D01*
X126434491Y-59582659D01*
X126441885Y-59559559D01*
X126517629Y-59322980D01*
X126581730Y-59123121D01*
X126635367Y-58956687D01*
X126679721Y-58820381D01*
X126715971Y-58710908D01*
X126745297Y-58624973D01*
X126768877Y-58559279D01*
X126787893Y-58510532D01*
X126803522Y-58475435D01*
X126816946Y-58450693D01*
X126829343Y-58433010D01*
X126841893Y-58419091D01*
X126855776Y-58405640D01*
X126881636Y-58382998D01*
X126937828Y-58353714D01*
X127011386Y-58345917D01*
X127065538Y-58350238D01*
X127139478Y-58380390D01*
X127183186Y-58440061D01*
X127197556Y-58530138D01*
X127197486Y-58532231D01*
X127189590Y-58573663D01*
X127169681Y-58649497D01*
X127139297Y-58755056D01*
X127099971Y-58885663D01*
X127053240Y-59036642D01*
X127000639Y-59203316D01*
X126943703Y-59381007D01*
X126883968Y-59565038D01*
X126822969Y-59750734D01*
X126762242Y-59933416D01*
X126703322Y-60108408D01*
X126647744Y-60271033D01*
X126597043Y-60416613D01*
X126552756Y-60540473D01*
X126516418Y-60637935D01*
X126489564Y-60704322D01*
X126473729Y-60734957D01*
X126445017Y-60761695D01*
X126396750Y-60791823D01*
X126313805Y-60809538D01*
X126224625Y-60799011D01*
X126147218Y-60762045D01*
X126094688Y-60702514D01*
X126094373Y-60701878D01*
X126082474Y-60668792D01*
X126060760Y-60600022D01*
X126030668Y-60500431D01*
X125993631Y-60374879D01*
X125951085Y-60228230D01*
X125904464Y-60065344D01*
X125855205Y-59891084D01*
X125850952Y-59875956D01*
X125802408Y-59704308D01*
X125757077Y-59545884D01*
X125716314Y-59405277D01*
X125681471Y-59287083D01*
X125653902Y-59195894D01*
X125634959Y-59136306D01*
X125625996Y-59112911D01*
X125624635Y-59113453D01*
X125613251Y-59140139D01*
X125592681Y-59202310D01*
X125564177Y-59295698D01*
X125528994Y-59416036D01*
X125488386Y-59559057D01*
X125443606Y-59720494D01*
X125395907Y-59896078D01*
X125345490Y-60083086D01*
X125299343Y-60252571D01*
X125261451Y-60388862D01*
X125230493Y-60496009D01*
X125205149Y-60578060D01*
X125184101Y-60639066D01*
X125166029Y-60683075D01*
X125149613Y-60714139D01*
X125133533Y-60736306D01*
X125116471Y-60753625D01*
X125083461Y-60778815D01*
X124996969Y-60811229D01*
X124907043Y-60804381D01*
X124822762Y-60758133D01*
X124822364Y-60757796D01*
X124806978Y-60742272D01*
X124790867Y-60719680D01*
X124772790Y-60686704D01*
X124751505Y-60640026D01*
X124725770Y-60576329D01*
X124694344Y-60492294D01*
X124655985Y-60384605D01*
X124609452Y-60249944D01*
X124553502Y-60084993D01*
X124486895Y-59886436D01*
X124408388Y-59650953D01*
X124383565Y-59576189D01*
X124317504Y-59375555D01*
X124256167Y-59186875D01*
X124200812Y-59014171D01*
X124152697Y-58861467D01*
X124113083Y-58732783D01*
X124083229Y-58632144D01*
X124064392Y-58563570D01*
X124057834Y-58531084D01*
X124069349Y-58473283D01*
X124108918Y-58405305D01*
X124140293Y-58374017D01*
X124186750Y-58351601D01*
X124254862Y-58345917D01*
X124336508Y-58357249D01*
X124411943Y-58401827D01*
X124469621Y-58483450D01*
X124469987Y-58484206D01*
X124482909Y-58518098D01*
X124506830Y-58587269D01*
X124540158Y-58686882D01*
X124581303Y-58812097D01*
X124628674Y-58958074D01*
X124680680Y-59119975D01*
X124735730Y-59292960D01*
X124742281Y-59313628D01*
X124795939Y-59482245D01*
X124845472Y-59636704D01*
X124889453Y-59772633D01*
X124926450Y-59885662D01*
X124955034Y-59971421D01*
X124973776Y-60025538D01*
X124981247Y-60043643D01*
X124981281Y-60043601D01*
X124987895Y-60021603D01*
X125003716Y-59963268D01*
X125027545Y-59873184D01*
X125058183Y-59755937D01*
X125094430Y-59616116D01*
X125135089Y-59458308D01*
X125178960Y-59287100D01*
X125221872Y-59120510D01*
X125264976Y-58955856D01*
X125304738Y-58806625D01*
X125339764Y-58677942D01*
X125368656Y-58574935D01*
X125390019Y-58502731D01*
X125402456Y-58466455D01*
X125402476Y-58466410D01*
X125454028Y-58398882D01*
X125528505Y-58356947D01*
X125613782Y-58342639D01*
X125697733Y-58357996D01*
G37*
X125697733Y-58357996D02*
X125768233Y-58405052D01*
X125769174Y-58406054D01*
X125783568Y-58422171D01*
X125796823Y-58440241D01*
X125810247Y-58464129D01*
X125825148Y-58497702D01*
X125842833Y-58544827D01*
X125864611Y-58609369D01*
X125891789Y-58695194D01*
X125925675Y-58806170D01*
X125967576Y-58946162D01*
X126018802Y-59119036D01*
X126080658Y-59328659D01*
X126289298Y-60036234D01*
X126434491Y-59582659D01*
X126441885Y-59559559D01*
X126517629Y-59322980D01*
X126581730Y-59123121D01*
X126635367Y-58956687D01*
X126679721Y-58820381D01*
X126715971Y-58710908D01*
X126745297Y-58624973D01*
X126768877Y-58559279D01*
X126787893Y-58510532D01*
X126803522Y-58475435D01*
X126816946Y-58450693D01*
X126829343Y-58433010D01*
X126841893Y-58419091D01*
X126855776Y-58405640D01*
X126881636Y-58382998D01*
X126937828Y-58353714D01*
X127011386Y-58345917D01*
X127065538Y-58350238D01*
X127139478Y-58380390D01*
X127183186Y-58440061D01*
X127197556Y-58530138D01*
X127197486Y-58532231D01*
X127189590Y-58573663D01*
X127169681Y-58649497D01*
X127139297Y-58755056D01*
X127099971Y-58885663D01*
X127053240Y-59036642D01*
X127000639Y-59203316D01*
X126943703Y-59381007D01*
X126883968Y-59565038D01*
X126822969Y-59750734D01*
X126762242Y-59933416D01*
X126703322Y-60108408D01*
X126647744Y-60271033D01*
X126597043Y-60416613D01*
X126552756Y-60540473D01*
X126516418Y-60637935D01*
X126489564Y-60704322D01*
X126473729Y-60734957D01*
X126445017Y-60761695D01*
X126396750Y-60791823D01*
X126313805Y-60809538D01*
X126224625Y-60799011D01*
X126147218Y-60762045D01*
X126094688Y-60702514D01*
X126094373Y-60701878D01*
X126082474Y-60668792D01*
X126060760Y-60600022D01*
X126030668Y-60500431D01*
X125993631Y-60374879D01*
X125951085Y-60228230D01*
X125904464Y-60065344D01*
X125855205Y-59891084D01*
X125850952Y-59875956D01*
X125802408Y-59704308D01*
X125757077Y-59545884D01*
X125716314Y-59405277D01*
X125681471Y-59287083D01*
X125653902Y-59195894D01*
X125634959Y-59136306D01*
X125625996Y-59112911D01*
X125624635Y-59113453D01*
X125613251Y-59140139D01*
X125592681Y-59202310D01*
X125564177Y-59295698D01*
X125528994Y-59416036D01*
X125488386Y-59559057D01*
X125443606Y-59720494D01*
X125395907Y-59896078D01*
X125345490Y-60083086D01*
X125299343Y-60252571D01*
X125261451Y-60388862D01*
X125230493Y-60496009D01*
X125205149Y-60578060D01*
X125184101Y-60639066D01*
X125166029Y-60683075D01*
X125149613Y-60714139D01*
X125133533Y-60736306D01*
X125116471Y-60753625D01*
X125083461Y-60778815D01*
X124996969Y-60811229D01*
X124907043Y-60804381D01*
X124822762Y-60758133D01*
X124822364Y-60757796D01*
X124806978Y-60742272D01*
X124790867Y-60719680D01*
X124772790Y-60686704D01*
X124751505Y-60640026D01*
X124725770Y-60576329D01*
X124694344Y-60492294D01*
X124655985Y-60384605D01*
X124609452Y-60249944D01*
X124553502Y-60084993D01*
X124486895Y-59886436D01*
X124408388Y-59650953D01*
X124383565Y-59576189D01*
X124317504Y-59375555D01*
X124256167Y-59186875D01*
X124200812Y-59014171D01*
X124152697Y-58861467D01*
X124113083Y-58732783D01*
X124083229Y-58632144D01*
X124064392Y-58563570D01*
X124057834Y-58531084D01*
X124069349Y-58473283D01*
X124108918Y-58405305D01*
X124140293Y-58374017D01*
X124186750Y-58351601D01*
X124254862Y-58345917D01*
X124336508Y-58357249D01*
X124411943Y-58401827D01*
X124469621Y-58483450D01*
X124469987Y-58484206D01*
X124482909Y-58518098D01*
X124506830Y-58587269D01*
X124540158Y-58686882D01*
X124581303Y-58812097D01*
X124628674Y-58958074D01*
X124680680Y-59119975D01*
X124735730Y-59292960D01*
X124742281Y-59313628D01*
X124795939Y-59482245D01*
X124845472Y-59636704D01*
X124889453Y-59772633D01*
X124926450Y-59885662D01*
X124955034Y-59971421D01*
X124973776Y-60025538D01*
X124981247Y-60043643D01*
X124981281Y-60043601D01*
X124987895Y-60021603D01*
X125003716Y-59963268D01*
X125027545Y-59873184D01*
X125058183Y-59755937D01*
X125094430Y-59616116D01*
X125135089Y-59458308D01*
X125178960Y-59287100D01*
X125221872Y-59120510D01*
X125264976Y-58955856D01*
X125304738Y-58806625D01*
X125339764Y-58677942D01*
X125368656Y-58574935D01*
X125390019Y-58502731D01*
X125402456Y-58466455D01*
X125402476Y-58466410D01*
X125454028Y-58398882D01*
X125528505Y-58356947D01*
X125613782Y-58342639D01*
X125697733Y-58357996D01*
D12*
%TO.C,C5*%
X114208781Y-45759970D02*
X114009970Y-45958781D01*
X114930030Y-46481219D02*
X114731219Y-46680030D01*
D10*
%TO.C,D3*%
X128420000Y-29720038D02*
X128420000Y-30220000D01*
X129720000Y-29220000D02*
X128920000Y-29220000D01*
X130220000Y-30219962D02*
X130220000Y-29720000D01*
X129720000Y-30720000D02*
X128920000Y-30720000D01*
X130220000Y-29720000D02*
G75*
G03*
X129720000Y-29220000I-500001J-1D01*
G01*
X128420000Y-30220000D02*
G75*
G03*
X128920000Y-30720000I500001J1D01*
G01*
X129720000Y-30720000D02*
G75*
G03*
X130220000Y-30220000I-1J500001D01*
G01*
X128920000Y-29220000D02*
G75*
G03*
X128420000Y-29720000I1J-500001D01*
G01*
D13*
X129320000Y-28720000D02*
X129920000Y-27920000D01*
X129920000Y-27920000D02*
X128720000Y-27920000D01*
X128720000Y-27920000D02*
X129320000Y-28720000D01*
G36*
X129320000Y-28720000D02*
G01*
X128720000Y-27920000D01*
X129920000Y-27920000D01*
X129320000Y-28720000D01*
G37*
X129320000Y-28720000D02*
X128720000Y-27920000D01*
X129920000Y-27920000D01*
X129320000Y-28720000D01*
D12*
%TO.C,D21*%
X90118750Y-31275000D02*
X91268750Y-31275000D01*
X90118750Y-38575000D02*
X90118750Y-31275000D01*
X95618750Y-38575000D02*
X95618750Y-31275000D01*
%TO.C,D19*%
X146418750Y-57625000D02*
X145268750Y-57625000D01*
X140918750Y-50325000D02*
X140918750Y-57625000D01*
X146418750Y-50325000D02*
X146418750Y-57625000D01*
D13*
%TO.C,D17*%
X115474750Y-66976000D02*
X116236750Y-66976000D01*
X116236750Y-66976000D02*
X116236750Y-66214000D01*
X116236750Y-66214000D02*
X115474750Y-66976000D01*
G36*
X116236750Y-66976000D02*
G01*
X115474750Y-66976000D01*
X116236750Y-66214000D01*
X116236750Y-66976000D01*
G37*
X116236750Y-66976000D02*
X115474750Y-66976000D01*
X116236750Y-66214000D01*
X116236750Y-66976000D01*
D10*
%TO.C,D8*%
X109431250Y-70456288D02*
X109431250Y-70956250D01*
X111231250Y-70956212D02*
X111231250Y-70456250D01*
X110731250Y-71456250D02*
X109931250Y-71456250D01*
X110731250Y-69956250D02*
X109931250Y-69956250D01*
X111231250Y-70456250D02*
G75*
G03*
X110731250Y-69956250I-500001J-1D01*
G01*
X109431250Y-70956250D02*
G75*
G03*
X109931250Y-71456250I500001J1D01*
G01*
X110731250Y-71456250D02*
G75*
G03*
X111231250Y-70956250I-1J500001D01*
G01*
X109931250Y-69956250D02*
G75*
G03*
X109431250Y-70456250I1J-500001D01*
G01*
D13*
X110331250Y-69456250D02*
X110931250Y-68656250D01*
X110931250Y-68656250D02*
X109731250Y-68656250D01*
X109731250Y-68656250D02*
X110331250Y-69456250D01*
G36*
X110331250Y-69456250D02*
G01*
X109731250Y-68656250D01*
X110931250Y-68656250D01*
X110331250Y-69456250D01*
G37*
X110331250Y-69456250D02*
X109731250Y-68656250D01*
X110931250Y-68656250D01*
X110331250Y-69456250D01*
D12*
%TO.C,D20*%
X146418750Y-38575000D02*
X145268750Y-38575000D01*
X146418750Y-31275000D02*
X146418750Y-38575000D01*
X140918750Y-31275000D02*
X140918750Y-38575000D01*
%TO.C,R1*%
X107457500Y-39402742D02*
X107457500Y-39877258D01*
X108502500Y-39402742D02*
X108502500Y-39877258D01*
D13*
%TO.C,D15*%
X134524750Y-47926000D02*
X135286750Y-47926000D01*
X135286750Y-47926000D02*
X135286750Y-47164000D01*
X135286750Y-47164000D02*
X134524750Y-47926000D01*
G36*
X135286750Y-47926000D02*
G01*
X134524750Y-47926000D01*
X135286750Y-47164000D01*
X135286750Y-47926000D01*
G37*
X135286750Y-47926000D02*
X134524750Y-47926000D01*
X135286750Y-47164000D01*
X135286750Y-47926000D01*
%TO.C,D12*%
X140112750Y-31924000D02*
X139350750Y-31924000D01*
X139350750Y-31924000D02*
X139350750Y-32686000D01*
X139350750Y-32686000D02*
X140112750Y-31924000D01*
G36*
X139350750Y-32686000D02*
G01*
X139350750Y-31924000D01*
X140112750Y-31924000D01*
X139350750Y-32686000D01*
G37*
X139350750Y-32686000D02*
X139350750Y-31924000D01*
X140112750Y-31924000D01*
X139350750Y-32686000D01*
D12*
%TO.C,R3*%
X116972742Y-58212500D02*
X117447258Y-58212500D01*
X116972742Y-57167500D02*
X117447258Y-57167500D01*
D10*
%TO.C,D2*%
X111900000Y-27549962D02*
X111900000Y-27050000D01*
X111400000Y-26550000D02*
X110600000Y-26550000D01*
X111400000Y-28050000D02*
X110600000Y-28050000D01*
X110100000Y-27050038D02*
X110100000Y-27550000D01*
X111900000Y-27050000D02*
G75*
G03*
X111400000Y-26550000I-500001J-1D01*
G01*
X110600000Y-26550000D02*
G75*
G03*
X110100000Y-27050000I1J-500001D01*
G01*
X110100000Y-27550000D02*
G75*
G03*
X110600000Y-28050000I500001J1D01*
G01*
X111400000Y-28050000D02*
G75*
G03*
X111900000Y-27550000I-1J500001D01*
G01*
D13*
X111000000Y-26050000D02*
X111600000Y-25250000D01*
X111600000Y-25250000D02*
X110400000Y-25250000D01*
X110400000Y-25250000D02*
X111000000Y-26050000D01*
G36*
X111000000Y-26050000D02*
G01*
X110400000Y-25250000D01*
X111600000Y-25250000D01*
X111000000Y-26050000D01*
G37*
X111000000Y-26050000D02*
X110400000Y-25250000D01*
X111600000Y-25250000D01*
X111000000Y-26050000D01*
D10*
%TO.C,U1*%
X108760000Y-50063476D02*
X108919099Y-50222575D01*
X113886524Y-55190000D02*
X113656714Y-54960190D01*
X113886524Y-55190000D02*
X113656714Y-55419810D01*
X103633476Y-55190000D02*
X103863286Y-54960190D01*
X103633476Y-55190000D02*
X103863286Y-55419810D01*
X108919099Y-50222575D02*
X109926726Y-49214948D01*
X108760000Y-60316524D02*
X108989810Y-60086714D01*
X108760000Y-50063476D02*
X108530190Y-50293286D01*
X108760000Y-60316524D02*
X108530190Y-60086714D01*
D13*
%TO.C,D10*%
X102012750Y-31924000D02*
X101250750Y-31924000D01*
X101250750Y-31924000D02*
X101250750Y-32686000D01*
X101250750Y-32686000D02*
X102012750Y-31924000D01*
G36*
X101250750Y-32686000D02*
G01*
X101250750Y-31924000D01*
X102012750Y-31924000D01*
X101250750Y-32686000D01*
G37*
X101250750Y-32686000D02*
X101250750Y-31924000D01*
X102012750Y-31924000D01*
X101250750Y-32686000D01*
%TO.C,D11*%
X121062750Y-31924000D02*
X120300750Y-31924000D01*
X120300750Y-31924000D02*
X120300750Y-32686000D01*
X120300750Y-32686000D02*
X121062750Y-31924000D01*
G36*
X120300750Y-32686000D02*
G01*
X120300750Y-31924000D01*
X121062750Y-31924000D01*
X120300750Y-32686000D01*
G37*
X120300750Y-32686000D02*
X120300750Y-31924000D01*
X121062750Y-31924000D01*
X120300750Y-32686000D01*
D12*
%TO.C,R2*%
X108957500Y-39877258D02*
X108957500Y-39402742D01*
X110002500Y-39877258D02*
X110002500Y-39402742D01*
%TO.C,SW12*%
X132530000Y-53690000D02*
X132040000Y-54180000D01*
X127090000Y-53690000D02*
X127090000Y-50790000D01*
X128770000Y-54960000D02*
X130850000Y-54960000D01*
X127090000Y-50790000D02*
X127580000Y-50300000D01*
X132530000Y-53690000D02*
X132530000Y-50790000D01*
X127090000Y-53690000D02*
X127580000Y-54180000D01*
X128770000Y-49520000D02*
X130850000Y-49520000D01*
X132530000Y-50790000D02*
X132040000Y-50300000D01*
D13*
%TO.C,D16*%
X96424750Y-66976000D02*
X97186750Y-66976000D01*
X97186750Y-66976000D02*
X97186750Y-66214000D01*
X97186750Y-66214000D02*
X96424750Y-66976000D01*
G36*
X97186750Y-66976000D02*
G01*
X96424750Y-66976000D01*
X97186750Y-66214000D01*
X97186750Y-66976000D01*
G37*
X97186750Y-66976000D02*
X96424750Y-66976000D01*
X97186750Y-66214000D01*
X97186750Y-66976000D01*
D10*
%TO.C,D7*%
X106762500Y-69956250D02*
X105962500Y-69956250D01*
X105462500Y-70456288D02*
X105462500Y-70956250D01*
X106762500Y-71456250D02*
X105962500Y-71456250D01*
X107262500Y-70956212D02*
X107262500Y-70456250D01*
X105462500Y-70956250D02*
G75*
G03*
X105962500Y-71456250I500001J1D01*
G01*
X106762500Y-71456250D02*
G75*
G03*
X107262500Y-70956250I-1J500001D01*
G01*
X105962500Y-69956250D02*
G75*
G03*
X105462500Y-70456250I1J-500001D01*
G01*
X107262500Y-70456250D02*
G75*
G03*
X106762500Y-69956250I-500001J-1D01*
G01*
D13*
X106362500Y-69456250D02*
X106962500Y-68656250D01*
X106962500Y-68656250D02*
X105762500Y-68656250D01*
X105762500Y-68656250D02*
X106362500Y-69456250D01*
G36*
X106362500Y-69456250D02*
G01*
X105762500Y-68656250D01*
X106962500Y-68656250D01*
X106362500Y-69456250D01*
G37*
X106362500Y-69456250D02*
X105762500Y-68656250D01*
X106962500Y-68656250D01*
X106362500Y-69456250D01*
D12*
%TO.C,R4*%
X110737258Y-19103270D02*
X110262742Y-19103270D01*
X110737258Y-18058270D02*
X110262742Y-18058270D01*
%TO.C,C4*%
X109790030Y-45921219D02*
X109591219Y-46120030D01*
X109068781Y-45199970D02*
X108869970Y-45398781D01*
%TO.C,D22*%
X90118750Y-57625000D02*
X90118750Y-50325000D01*
X90118750Y-50325000D02*
X91268750Y-50325000D01*
X95618750Y-57625000D02*
X95618750Y-50325000D01*
D10*
%TO.C,D9*%
X129540000Y-70145000D02*
X128740000Y-70145000D01*
X129540000Y-71645000D02*
X128740000Y-71645000D01*
X130040000Y-71144962D02*
X130040000Y-70645000D01*
X128240000Y-70645038D02*
X128240000Y-71145000D01*
X129540000Y-71645000D02*
G75*
G03*
X130040000Y-71145000I-1J500001D01*
G01*
X128240000Y-71145000D02*
G75*
G03*
X128740000Y-71645000I500001J1D01*
G01*
X130040000Y-70645000D02*
G75*
G03*
X129540000Y-70145000I-500001J-1D01*
G01*
X128740000Y-70145000D02*
G75*
G03*
X128240000Y-70645000I1J-500001D01*
G01*
D13*
X129140000Y-69645000D02*
X129740000Y-68845000D01*
X129740000Y-68845000D02*
X128540000Y-68845000D01*
X128540000Y-68845000D02*
X129140000Y-69645000D01*
G36*
X129140000Y-69645000D02*
G01*
X128540000Y-68845000D01*
X129740000Y-68845000D01*
X129140000Y-69645000D01*
G37*
X129140000Y-69645000D02*
X128540000Y-68845000D01*
X129740000Y-68845000D01*
X129140000Y-69645000D01*
D10*
%TO.C,D6*%
X130281250Y-44762462D02*
X130281250Y-44262500D01*
X128481250Y-44262538D02*
X128481250Y-44762500D01*
X129781250Y-45262500D02*
X128981250Y-45262500D01*
X129781250Y-43762500D02*
X128981250Y-43762500D01*
X130281250Y-44262500D02*
G75*
G03*
X129781250Y-43762500I-500001J-1D01*
G01*
X129781250Y-45262500D02*
G75*
G03*
X130281250Y-44762500I-1J500001D01*
G01*
X128481250Y-44762500D02*
G75*
G03*
X128981250Y-45262500I500001J1D01*
G01*
X128981250Y-43762500D02*
G75*
G03*
X128481250Y-44262500I1J-500001D01*
G01*
D13*
X129381250Y-43262500D02*
X129981250Y-42462500D01*
X129981250Y-42462500D02*
X128781250Y-42462500D01*
X128781250Y-42462500D02*
X129381250Y-43262500D01*
G36*
X129381250Y-43262500D02*
G01*
X128781250Y-42462500D01*
X129981250Y-42462500D01*
X129381250Y-43262500D01*
G37*
X129381250Y-43262500D02*
X128781250Y-42462500D01*
X129981250Y-42462500D01*
X129381250Y-43262500D01*
D12*
%TO.C,U2*%
X107140000Y-37090000D02*
X107140000Y-34640000D01*
X110360000Y-35290000D02*
X110360000Y-37090000D01*
D10*
%TO.C,D4*%
X91000000Y-47845038D02*
X91000000Y-48345000D01*
X92800000Y-48344962D02*
X92800000Y-47845000D01*
X92300000Y-47345000D02*
X91500000Y-47345000D01*
X92300000Y-48845000D02*
X91500000Y-48845000D01*
X91500000Y-47345000D02*
G75*
G03*
X91000000Y-47845000I1J-500001D01*
G01*
X91000000Y-48345000D02*
G75*
G03*
X91500000Y-48845000I500001J1D01*
G01*
X92800000Y-47845000D02*
G75*
G03*
X92300000Y-47345000I-500001J-1D01*
G01*
X92300000Y-48845000D02*
G75*
G03*
X92800000Y-48345000I-1J500001D01*
G01*
D13*
X91900000Y-46845000D02*
X92500000Y-46045000D01*
X92500000Y-46045000D02*
X91300000Y-46045000D01*
X91300000Y-46045000D02*
X91900000Y-46845000D01*
G36*
X91900000Y-46845000D02*
G01*
X91300000Y-46045000D01*
X92500000Y-46045000D01*
X91900000Y-46845000D01*
G37*
X91900000Y-46845000D02*
X91300000Y-46045000D01*
X92500000Y-46045000D01*
X91900000Y-46845000D01*
D12*
%TO.C,C2*%
X113811219Y-50959970D02*
X114010030Y-51158781D01*
X113089970Y-51681219D02*
X113288781Y-51880030D01*
D13*
%TO.C,D18*%
X134524750Y-66976000D02*
X135286750Y-66976000D01*
X135286750Y-66976000D02*
X135286750Y-66214000D01*
X135286750Y-66214000D02*
X134524750Y-66976000D01*
G36*
X135286750Y-66976000D02*
G01*
X134524750Y-66976000D01*
X135286750Y-66214000D01*
X135286750Y-66976000D01*
G37*
X135286750Y-66976000D02*
X134524750Y-66976000D01*
X135286750Y-66214000D01*
X135286750Y-66976000D01*
%TO.C,D14*%
X121062750Y-50974000D02*
X120300750Y-50974000D01*
X120300750Y-50974000D02*
X120300750Y-51736000D01*
X120300750Y-51736000D02*
X121062750Y-50974000D01*
G36*
X120300750Y-51736000D02*
G01*
X120300750Y-50974000D01*
X121062750Y-50974000D01*
X120300750Y-51736000D01*
G37*
X120300750Y-51736000D02*
X120300750Y-50974000D01*
X121062750Y-50974000D01*
X120300750Y-51736000D01*
D12*
%TO.C,C3*%
X107371219Y-48650030D02*
X107570030Y-48451219D01*
X106649970Y-47928781D02*
X106848781Y-47729970D01*
%TO.C,R6*%
X125142742Y-54817500D02*
X125617258Y-54817500D01*
X125142742Y-55862500D02*
X125617258Y-55862500D01*
D10*
%TO.C,D1*%
X91681250Y-28115000D02*
X90881250Y-28115000D01*
X90381250Y-28615038D02*
X90381250Y-29115000D01*
X92181250Y-29114962D02*
X92181250Y-28615000D01*
X91681250Y-29615000D02*
X90881250Y-29615000D01*
X90381250Y-29115000D02*
G75*
G03*
X90881250Y-29615000I500001J1D01*
G01*
X90881250Y-28115000D02*
G75*
G03*
X90381250Y-28615000I1J-500001D01*
G01*
X92181250Y-28615000D02*
G75*
G03*
X91681250Y-28115000I-500001J-1D01*
G01*
X91681250Y-29615000D02*
G75*
G03*
X92181250Y-29115000I-1J500001D01*
G01*
D13*
X91281250Y-27615000D02*
X91881250Y-26815000D01*
X91881250Y-26815000D02*
X90681250Y-26815000D01*
X90681250Y-26815000D02*
X91281250Y-27615000D01*
G36*
X91281250Y-27615000D02*
G01*
X90681250Y-26815000D01*
X91881250Y-26815000D01*
X91281250Y-27615000D01*
G37*
X91281250Y-27615000D02*
X90681250Y-26815000D01*
X91881250Y-26815000D01*
X91281250Y-27615000D01*
D12*
%TO.C,R5*%
X125762742Y-18058270D02*
X126237258Y-18058270D01*
X125762742Y-19103270D02*
X126237258Y-19103270D01*
D13*
%TO.C,D13*%
X96424750Y-47926000D02*
X97186750Y-47926000D01*
X97186750Y-47926000D02*
X97186750Y-47164000D01*
X97186750Y-47164000D02*
X96424750Y-47926000D01*
G36*
X97186750Y-47926000D02*
G01*
X96424750Y-47926000D01*
X97186750Y-47164000D01*
X97186750Y-47926000D01*
G37*
X97186750Y-47926000D02*
X96424750Y-47926000D01*
X97186750Y-47164000D01*
X97186750Y-47926000D01*
%TO.C,Y1*%
X112844924Y-45416548D02*
X112137817Y-44709441D01*
X112137817Y-44709441D02*
X111996396Y-45557969D01*
X111996396Y-45557969D02*
X112844924Y-45416548D01*
G36*
X112844924Y-45416548D02*
G01*
X111996396Y-45557969D01*
X112137817Y-44709441D01*
X112844924Y-45416548D01*
G37*
X112844924Y-45416548D02*
X111996396Y-45557969D01*
X112137817Y-44709441D01*
X112844924Y-45416548D01*
D12*
%TO.C,F1*%
X123150000Y-34347936D02*
X123150000Y-35552064D01*
X124970000Y-34347936D02*
X124970000Y-35552064D01*
D10*
%TO.C,D5*%
X125306250Y-44262538D02*
X125306250Y-44762500D01*
X126606250Y-43762500D02*
X125806250Y-43762500D01*
X126606250Y-45262500D02*
X125806250Y-45262500D01*
X127106250Y-44762462D02*
X127106250Y-44262500D01*
X125806250Y-43762500D02*
G75*
G03*
X125306250Y-44262500I1J-500001D01*
G01*
X127106250Y-44262500D02*
G75*
G03*
X126606250Y-43762500I-500001J-1D01*
G01*
X126606250Y-45262500D02*
G75*
G03*
X127106250Y-44762500I-1J500001D01*
G01*
X125306250Y-44762500D02*
G75*
G03*
X125806250Y-45262500I500001J1D01*
G01*
D13*
X126206250Y-43262500D02*
X126806250Y-42462500D01*
X126806250Y-42462500D02*
X125606250Y-42462500D01*
X125606250Y-42462500D02*
X126206250Y-43262500D01*
G36*
X126206250Y-43262500D02*
G01*
X125606250Y-42462500D01*
X126806250Y-42462500D01*
X126206250Y-43262500D01*
G37*
X126206250Y-43262500D02*
X125606250Y-42462500D01*
X126806250Y-42462500D01*
X126206250Y-43262500D01*
D12*
%TO.C,C1*%
X103741219Y-52320030D02*
X103940030Y-52121219D01*
X103019970Y-51598781D02*
X103218781Y-51399970D01*
%TD*%
M02*
