M48
; DRILL file {KiCad (6.0.0)} date Wed Feb  2 15:10:07 2022
; FORMAT={-:-/ absolute / metric / decimal}
; #@! TF.CreationDate,2022-02-02T15:10:07-06:00
; #@! TF.GenerationSoftware,Kicad,Pcbnew,(6.0.0)
; #@! TF.FileFunction,NonPlated,1,2,NPTH
FMAT,2
METRIC
; #@! TA.AperFunction,NonPlated,NPTH,ComponentDrill
T1C0.650
; #@! TA.AperFunction,NonPlated,NPTH,ComponentDrill
T2C1.702
; #@! TA.AperFunction,NonPlated,NPTH,ComponentDrill
T3C3.988
; #@! TA.AperFunction,NonPlated,NPTH,ComponentDrill
T4C4.250
%
G90
G05
T1
X115.379Y-16.205
X121.159Y-16.205
T2
X94.139Y-25.4
X94.139Y-44.45
X94.139Y-63.5
X104.299Y-25.4
X104.299Y-44.45
X104.299Y-63.5
X113.189Y-25.4
X113.189Y-44.45
X113.189Y-63.5
X123.349Y-25.4
X123.349Y-44.45
X123.349Y-63.5
X132.239Y-25.4
X132.239Y-44.45
X132.239Y-63.5
X142.399Y-25.4
X142.399Y-44.45
X142.399Y-63.5
T3
X99.219Y-25.4
X99.219Y-44.45
X99.219Y-63.5
X118.269Y-25.4
X118.269Y-44.45
X118.269Y-63.5
X137.319Y-25.4
X137.319Y-44.45
X137.319Y-63.5
T4
X99.219Y-30.4
X99.219Y-49.45
X99.219Y-68.5
X118.269Y-30.4
X118.269Y-49.45
X118.269Y-68.5
X137.319Y-30.4
X137.319Y-49.45
X137.319Y-68.5
T0
M30
