%TF.GenerationSoftware,KiCad,Pcbnew,(5.99.0-11539-gc946070005)*%
%TF.CreationDate,2021-08-10T02:47:10-05:00*%
%TF.ProjectId,QS-09,51532d30-392e-46b6-9963-61645f706362,rev?*%
%TF.SameCoordinates,Original*%
%TF.FileFunction,Legend,Bot*%
%TF.FilePolarity,Positive*%
%FSLAX46Y46*%
G04 Gerber Fmt 4.6, Leading zero omitted, Abs format (unit mm)*
G04 Created by KiCad (PCBNEW (5.99.0-11539-gc946070005)) date 2021-08-10 02:47:10*
%MOMM*%
%LPD*%
G01*
G04 APERTURE LIST*
%ADD10C,0.150000*%
%ADD11C,0.010000*%
%ADD12C,0.120000*%
%ADD13C,0.100000*%
G04 APERTURE END LIST*
D10*
X144003690Y-72047619D02*
X144092976Y-72000000D01*
X144176309Y-71904761D01*
X144301309Y-71761904D01*
X144390595Y-71714285D01*
X144485833Y-71714285D01*
X144467976Y-71952380D02*
X144557261Y-71904761D01*
X144640595Y-71809523D01*
X144664404Y-71619047D01*
X144622738Y-71285714D01*
X144551309Y-71095238D01*
X144444166Y-71000000D01*
X144342976Y-70952380D01*
X144152500Y-70952380D01*
X144063214Y-71000000D01*
X143979880Y-71095238D01*
X143956071Y-71285714D01*
X143997738Y-71619047D01*
X144069166Y-71809523D01*
X144176309Y-71904761D01*
X144277500Y-71952380D01*
X144467976Y-71952380D01*
X143652500Y-71904761D02*
X143515595Y-71952380D01*
X143277500Y-71952380D01*
X143176309Y-71904761D01*
X143122738Y-71857142D01*
X143063214Y-71761904D01*
X143051309Y-71666666D01*
X143087023Y-71571428D01*
X143128690Y-71523809D01*
X143217976Y-71476190D01*
X143402500Y-71428571D01*
X143491785Y-71380952D01*
X143533452Y-71333333D01*
X143569166Y-71238095D01*
X143557261Y-71142857D01*
X143497738Y-71047619D01*
X143444166Y-71000000D01*
X143342976Y-70952380D01*
X143104880Y-70952380D01*
X142967976Y-71000000D01*
X142610833Y-71571428D02*
X141848928Y-71571428D01*
X141104880Y-70952380D02*
X141009642Y-70952380D01*
X140920357Y-71000000D01*
X140878690Y-71047619D01*
X140842976Y-71142857D01*
X140819166Y-71333333D01*
X140848928Y-71571428D01*
X140920357Y-71761904D01*
X140979880Y-71857142D01*
X141033452Y-71904761D01*
X141134642Y-71952380D01*
X141229880Y-71952380D01*
X141319166Y-71904761D01*
X141360833Y-71857142D01*
X141396547Y-71761904D01*
X141420357Y-71571428D01*
X141390595Y-71333333D01*
X141319166Y-71142857D01*
X141259642Y-71047619D01*
X141206071Y-71000000D01*
X141104880Y-70952380D01*
X140420357Y-71952380D02*
X140229880Y-71952380D01*
X140128690Y-71904761D01*
X140075119Y-71857142D01*
X139962023Y-71714285D01*
X139890595Y-71523809D01*
X139842976Y-71142857D01*
X139878690Y-71047619D01*
X139920357Y-71000000D01*
X140009642Y-70952380D01*
X140200119Y-70952380D01*
X140301309Y-71000000D01*
X140354880Y-71047619D01*
X140414404Y-71142857D01*
X140444166Y-71380952D01*
X140408452Y-71476190D01*
X140366785Y-71523809D01*
X140277500Y-71571428D01*
X140087023Y-71571428D01*
X139985833Y-71523809D01*
X139932261Y-71476190D01*
X139872738Y-71380952D01*
X138325119Y-71952380D02*
X138259642Y-71428571D01*
X138295357Y-71333333D01*
X138384642Y-71285714D01*
X138575119Y-71285714D01*
X138676309Y-71333333D01*
X138319166Y-71904761D02*
X138420357Y-71952380D01*
X138658452Y-71952380D01*
X138747738Y-71904761D01*
X138783452Y-71809523D01*
X138771547Y-71714285D01*
X138712023Y-71619047D01*
X138610833Y-71571428D01*
X138372738Y-71571428D01*
X138271547Y-71523809D01*
X137706071Y-71952380D02*
X137795357Y-71904761D01*
X137831071Y-71809523D01*
X137723928Y-70952380D01*
X137241785Y-71285714D02*
X137366785Y-72285714D01*
X137247738Y-71333333D02*
X137146547Y-71285714D01*
X136956071Y-71285714D01*
X136866785Y-71333333D01*
X136825119Y-71380952D01*
X136789404Y-71476190D01*
X136825119Y-71761904D01*
X136884642Y-71857142D01*
X136938214Y-71904761D01*
X137039404Y-71952380D01*
X137229880Y-71952380D01*
X137319166Y-71904761D01*
X136420357Y-71952380D02*
X136295357Y-70952380D01*
X135991785Y-71952380D02*
X135926309Y-71428571D01*
X135962023Y-71333333D01*
X136051309Y-71285714D01*
X136194166Y-71285714D01*
X136295357Y-71333333D01*
X136348928Y-71380952D01*
X135087023Y-71952380D02*
X135021547Y-71428571D01*
X135057261Y-71333333D01*
X135146547Y-71285714D01*
X135337023Y-71285714D01*
X135438214Y-71333333D01*
X135081071Y-71904761D02*
X135182261Y-71952380D01*
X135420357Y-71952380D01*
X135509642Y-71904761D01*
X135545357Y-71809523D01*
X135533452Y-71714285D01*
X135473928Y-71619047D01*
X135372738Y-71571428D01*
X135134642Y-71571428D01*
X135033452Y-71523809D01*
X99249434Y-71285714D02*
X99374434Y-72285714D01*
X99326815Y-71904761D02*
X99428005Y-71952380D01*
X99618482Y-71952380D01*
X99707767Y-71904761D01*
X99749434Y-71857142D01*
X99785148Y-71761904D01*
X99749434Y-71476190D01*
X99689910Y-71380952D01*
X99636339Y-71333333D01*
X99535148Y-71285714D01*
X99344672Y-71285714D01*
X99255386Y-71333333D01*
X98344672Y-71285714D02*
X98428005Y-71952380D01*
X98773244Y-71285714D02*
X98838720Y-71809523D01*
X98803005Y-71904761D01*
X98713720Y-71952380D01*
X98570863Y-71952380D01*
X98469672Y-71904761D01*
X98416101Y-71857142D01*
X97523244Y-71952380D02*
X97457767Y-71428571D01*
X97493482Y-71333333D01*
X97582767Y-71285714D01*
X97773244Y-71285714D01*
X97874434Y-71333333D01*
X97517291Y-71904761D02*
X97618482Y-71952380D01*
X97856577Y-71952380D01*
X97945863Y-71904761D01*
X97981577Y-71809523D01*
X97969672Y-71714285D01*
X97910148Y-71619047D01*
X97808958Y-71571428D01*
X97570863Y-71571428D01*
X97469672Y-71523809D01*
X97047053Y-71952380D02*
X96963720Y-71285714D01*
X96987529Y-71476190D02*
X96928005Y-71380952D01*
X96874434Y-71333333D01*
X96773244Y-71285714D01*
X96678005Y-71285714D01*
X96428005Y-71952380D02*
X96303005Y-70952380D01*
X96285148Y-71571428D02*
X96047053Y-71952380D01*
X95963720Y-71285714D02*
X96392291Y-71666666D01*
X95606577Y-71857142D02*
X95564910Y-71904761D01*
X95618482Y-71952380D01*
X95660148Y-71904761D01*
X95606577Y-71857142D01*
X95618482Y-71952380D01*
X95154196Y-71285714D02*
X95047053Y-71952380D01*
X94797053Y-71476190D01*
X94666101Y-71952380D01*
X94392291Y-71285714D01*
X93951815Y-71952380D02*
X94041101Y-71904761D01*
X94082767Y-71857142D01*
X94118482Y-71761904D01*
X94082767Y-71476190D01*
X94023244Y-71380952D01*
X93969672Y-71333333D01*
X93868482Y-71285714D01*
X93725625Y-71285714D01*
X93636339Y-71333333D01*
X93594672Y-71380952D01*
X93558958Y-71476190D01*
X93594672Y-71761904D01*
X93654196Y-71857142D01*
X93707767Y-71904761D01*
X93808958Y-71952380D01*
X93951815Y-71952380D01*
X93189910Y-71952380D02*
X93106577Y-71285714D01*
X93130386Y-71476190D02*
X93070863Y-71380952D01*
X93017291Y-71333333D01*
X92916101Y-71285714D01*
X92820863Y-71285714D01*
X92570863Y-71952380D02*
X92445863Y-70952380D01*
X92428005Y-71571428D02*
X92189910Y-71952380D01*
X92106577Y-71285714D02*
X92535148Y-71666666D01*
X91803005Y-71904761D02*
X91713720Y-71952380D01*
X91523244Y-71952380D01*
X91422053Y-71904761D01*
X91362529Y-71809523D01*
X91356577Y-71761904D01*
X91392291Y-71666666D01*
X91481577Y-71619047D01*
X91624434Y-71619047D01*
X91713720Y-71571428D01*
X91749434Y-71476190D01*
X91743482Y-71428571D01*
X91683958Y-71333333D01*
X91582767Y-71285714D01*
X91439910Y-71285714D01*
X91350624Y-71333333D01*
%TO.C,C5*%
X115599272Y-47244280D02*
X115646412Y-47244280D01*
X115740693Y-47197140D01*
X115787834Y-47149999D01*
X115834974Y-47055719D01*
X115834974Y-46961438D01*
X115811404Y-46890727D01*
X115740693Y-46772876D01*
X115669983Y-46702165D01*
X115552132Y-46631455D01*
X115481421Y-46607884D01*
X115387140Y-46607884D01*
X115292859Y-46655025D01*
X115245719Y-46702165D01*
X115198578Y-46796446D01*
X115198578Y-46843587D01*
X114703603Y-47244280D02*
X114939306Y-47008578D01*
X115198578Y-47220710D01*
X115151438Y-47220710D01*
X115080727Y-47244280D01*
X114962876Y-47362132D01*
X114939306Y-47432842D01*
X114939306Y-47479983D01*
X114962876Y-47550693D01*
X115080727Y-47668544D01*
X115151438Y-47692115D01*
X115198578Y-47692115D01*
X115269289Y-47668544D01*
X115387140Y-47550693D01*
X115410710Y-47479983D01*
X115410710Y-47432842D01*
%TO.C,D3*%
X127812828Y-27877262D02*
X127212828Y-27877262D01*
X127212828Y-28020120D01*
X127241400Y-28105834D01*
X127298542Y-28162977D01*
X127355685Y-28191548D01*
X127469971Y-28220120D01*
X127555685Y-28220120D01*
X127669971Y-28191548D01*
X127727114Y-28162977D01*
X127784257Y-28105834D01*
X127812828Y-28020120D01*
X127812828Y-27877262D01*
X127212828Y-28420120D02*
X127212828Y-28791548D01*
X127441400Y-28591548D01*
X127441400Y-28677262D01*
X127469971Y-28734405D01*
X127498542Y-28762977D01*
X127555685Y-28791548D01*
X127698542Y-28791548D01*
X127755685Y-28762977D01*
X127784257Y-28734405D01*
X127812828Y-28677262D01*
X127812828Y-28505834D01*
X127784257Y-28448691D01*
X127755685Y-28420120D01*
%TO.C,D8*%
X108824078Y-68613512D02*
X108224078Y-68613512D01*
X108224078Y-68756370D01*
X108252650Y-68842084D01*
X108309792Y-68899227D01*
X108366935Y-68927798D01*
X108481221Y-68956370D01*
X108566935Y-68956370D01*
X108681221Y-68927798D01*
X108738364Y-68899227D01*
X108795507Y-68842084D01*
X108824078Y-68756370D01*
X108824078Y-68613512D01*
X108481221Y-69299227D02*
X108452650Y-69242084D01*
X108424078Y-69213512D01*
X108366935Y-69184941D01*
X108338364Y-69184941D01*
X108281221Y-69213512D01*
X108252650Y-69242084D01*
X108224078Y-69299227D01*
X108224078Y-69413512D01*
X108252650Y-69470655D01*
X108281221Y-69499227D01*
X108338364Y-69527798D01*
X108366935Y-69527798D01*
X108424078Y-69499227D01*
X108452650Y-69470655D01*
X108481221Y-69413512D01*
X108481221Y-69299227D01*
X108509792Y-69242084D01*
X108538364Y-69213512D01*
X108595507Y-69184941D01*
X108709792Y-69184941D01*
X108766935Y-69213512D01*
X108795507Y-69242084D01*
X108824078Y-69299227D01*
X108824078Y-69413512D01*
X108795507Y-69470655D01*
X108766935Y-69499227D01*
X108709792Y-69527798D01*
X108595507Y-69527798D01*
X108538364Y-69499227D01*
X108509792Y-69470655D01*
X108481221Y-69413512D01*
%TO.C,R1*%
X107002380Y-39473333D02*
X106526190Y-39140000D01*
X107002380Y-38901904D02*
X106002380Y-38901904D01*
X106002380Y-39282857D01*
X106050000Y-39378095D01*
X106097619Y-39425714D01*
X106192857Y-39473333D01*
X106335714Y-39473333D01*
X106430952Y-39425714D01*
X106478571Y-39378095D01*
X106526190Y-39282857D01*
X106526190Y-38901904D01*
X107002380Y-40425714D02*
X107002380Y-39854285D01*
X107002380Y-40140000D02*
X106002380Y-40140000D01*
X106145238Y-40044761D01*
X106240476Y-39949523D01*
X106288095Y-39854285D01*
%TO.C,D2*%
X109492828Y-25207262D02*
X108892828Y-25207262D01*
X108892828Y-25350120D01*
X108921400Y-25435834D01*
X108978542Y-25492977D01*
X109035685Y-25521548D01*
X109149971Y-25550120D01*
X109235685Y-25550120D01*
X109349971Y-25521548D01*
X109407114Y-25492977D01*
X109464257Y-25435834D01*
X109492828Y-25350120D01*
X109492828Y-25207262D01*
X108949971Y-25778691D02*
X108921400Y-25807262D01*
X108892828Y-25864405D01*
X108892828Y-26007262D01*
X108921400Y-26064405D01*
X108949971Y-26092977D01*
X109007114Y-26121548D01*
X109064257Y-26121548D01*
X109149971Y-26092977D01*
X109492828Y-25750120D01*
X109492828Y-26121548D01*
%TO.C,J1*%
X118602083Y-12708630D02*
X118602083Y-13422916D01*
X118649702Y-13565773D01*
X118744940Y-13661011D01*
X118887797Y-13708630D01*
X118983035Y-13708630D01*
X117602083Y-13708630D02*
X118173511Y-13708630D01*
X117887797Y-13708630D02*
X117887797Y-12708630D01*
X117983035Y-12851488D01*
X118078273Y-12946726D01*
X118173511Y-12994345D01*
%TO.C,U1*%
X102936066Y-54701818D02*
X103336759Y-55102512D01*
X103360330Y-55173223D01*
X103360330Y-55220363D01*
X103336759Y-55291074D01*
X103242478Y-55385355D01*
X103171768Y-55408925D01*
X103124627Y-55408925D01*
X103053917Y-55385355D01*
X102653223Y-54984661D01*
X102653223Y-55974610D02*
X102936066Y-55691768D01*
X102794644Y-55833189D02*
X102299669Y-55338214D01*
X102417521Y-55361785D01*
X102511801Y-55361785D01*
X102582512Y-55338214D01*
%TO.C,R2*%
X111362380Y-39473333D02*
X110886190Y-39140000D01*
X111362380Y-38901904D02*
X110362380Y-38901904D01*
X110362380Y-39282857D01*
X110410000Y-39378095D01*
X110457619Y-39425714D01*
X110552857Y-39473333D01*
X110695714Y-39473333D01*
X110790952Y-39425714D01*
X110838571Y-39378095D01*
X110886190Y-39282857D01*
X110886190Y-38901904D01*
X110457619Y-39854285D02*
X110410000Y-39901904D01*
X110362380Y-39997142D01*
X110362380Y-40235238D01*
X110410000Y-40330476D01*
X110457619Y-40378095D01*
X110552857Y-40425714D01*
X110648095Y-40425714D01*
X110790952Y-40378095D01*
X111362380Y-39806666D01*
X111362380Y-40425714D01*
%TO.C,D7*%
X104855328Y-68613512D02*
X104255328Y-68613512D01*
X104255328Y-68756370D01*
X104283900Y-68842084D01*
X104341042Y-68899227D01*
X104398185Y-68927798D01*
X104512471Y-68956370D01*
X104598185Y-68956370D01*
X104712471Y-68927798D01*
X104769614Y-68899227D01*
X104826757Y-68842084D01*
X104855328Y-68756370D01*
X104855328Y-68613512D01*
X104255328Y-69156370D02*
X104255328Y-69556370D01*
X104855328Y-69299227D01*
%TO.C,R4*%
X110666666Y-17603150D02*
X111000000Y-17126960D01*
X111238095Y-17603150D02*
X111238095Y-16603150D01*
X110857142Y-16603150D01*
X110761904Y-16650770D01*
X110714285Y-16698389D01*
X110666666Y-16793627D01*
X110666666Y-16936484D01*
X110714285Y-17031722D01*
X110761904Y-17079341D01*
X110857142Y-17126960D01*
X111238095Y-17126960D01*
X109809523Y-16936484D02*
X109809523Y-17603150D01*
X110047619Y-16555531D02*
X110285714Y-17269817D01*
X109666666Y-17269817D01*
%TO.C,C4*%
X108869273Y-45074280D02*
X108916413Y-45074280D01*
X109010694Y-45027140D01*
X109057835Y-44979999D01*
X109104975Y-44885719D01*
X109104975Y-44791438D01*
X109081405Y-44720727D01*
X109010694Y-44602876D01*
X108939984Y-44532165D01*
X108822133Y-44461455D01*
X108751422Y-44437884D01*
X108657141Y-44437884D01*
X108562860Y-44485025D01*
X108515720Y-44532165D01*
X108468579Y-44626446D01*
X108468579Y-44673587D01*
X108162166Y-45215702D02*
X108492149Y-45545685D01*
X108091456Y-44909289D02*
X108562860Y-45144991D01*
X108256447Y-45451404D01*
%TO.C,D9*%
X127632828Y-68802262D02*
X127032828Y-68802262D01*
X127032828Y-68945120D01*
X127061400Y-69030834D01*
X127118542Y-69087977D01*
X127175685Y-69116548D01*
X127289971Y-69145120D01*
X127375685Y-69145120D01*
X127489971Y-69116548D01*
X127547114Y-69087977D01*
X127604257Y-69030834D01*
X127632828Y-68945120D01*
X127632828Y-68802262D01*
X127632828Y-69430834D02*
X127632828Y-69545120D01*
X127604257Y-69602262D01*
X127575685Y-69630834D01*
X127489971Y-69687977D01*
X127375685Y-69716548D01*
X127147114Y-69716548D01*
X127089971Y-69687977D01*
X127061400Y-69659405D01*
X127032828Y-69602262D01*
X127032828Y-69487977D01*
X127061400Y-69430834D01*
X127089971Y-69402262D01*
X127147114Y-69373691D01*
X127289971Y-69373691D01*
X127347114Y-69402262D01*
X127375685Y-69430834D01*
X127404257Y-69487977D01*
X127404257Y-69602262D01*
X127375685Y-69659405D01*
X127347114Y-69687977D01*
X127289971Y-69716548D01*
%TO.C,D6*%
X127874078Y-42419762D02*
X127274078Y-42419762D01*
X127274078Y-42562620D01*
X127302650Y-42648334D01*
X127359792Y-42705477D01*
X127416935Y-42734048D01*
X127531221Y-42762620D01*
X127616935Y-42762620D01*
X127731221Y-42734048D01*
X127788364Y-42705477D01*
X127845507Y-42648334D01*
X127874078Y-42562620D01*
X127874078Y-42419762D01*
X127274078Y-43276905D02*
X127274078Y-43162620D01*
X127302650Y-43105477D01*
X127331221Y-43076905D01*
X127416935Y-43019762D01*
X127531221Y-42991191D01*
X127759792Y-42991191D01*
X127816935Y-43019762D01*
X127845507Y-43048334D01*
X127874078Y-43105477D01*
X127874078Y-43219762D01*
X127845507Y-43276905D01*
X127816935Y-43305477D01*
X127759792Y-43334048D01*
X127616935Y-43334048D01*
X127559792Y-43305477D01*
X127531221Y-43276905D01*
X127502650Y-43219762D01*
X127502650Y-43105477D01*
X127531221Y-43048334D01*
X127559792Y-43019762D01*
X127616935Y-42991191D01*
%TO.C,U2*%
X105302380Y-35428095D02*
X106111904Y-35428095D01*
X106207142Y-35475714D01*
X106254761Y-35523333D01*
X106302380Y-35618571D01*
X106302380Y-35809047D01*
X106254761Y-35904285D01*
X106207142Y-35951904D01*
X106111904Y-35999523D01*
X105302380Y-35999523D01*
X105397619Y-36428095D02*
X105350000Y-36475714D01*
X105302380Y-36570952D01*
X105302380Y-36809047D01*
X105350000Y-36904285D01*
X105397619Y-36951904D01*
X105492857Y-36999523D01*
X105588095Y-36999523D01*
X105730952Y-36951904D01*
X106302380Y-36380476D01*
X106302380Y-36999523D01*
%TO.C,D4*%
X90392828Y-46002262D02*
X89792828Y-46002262D01*
X89792828Y-46145120D01*
X89821400Y-46230834D01*
X89878542Y-46287977D01*
X89935685Y-46316548D01*
X90049971Y-46345120D01*
X90135685Y-46345120D01*
X90249971Y-46316548D01*
X90307114Y-46287977D01*
X90364257Y-46230834D01*
X90392828Y-46145120D01*
X90392828Y-46002262D01*
X89992828Y-46859405D02*
X90392828Y-46859405D01*
X89764257Y-46716548D02*
X90192828Y-46573691D01*
X90192828Y-46945120D01*
%TO.C,C2*%
X115055719Y-53309272D02*
X115055719Y-53356412D01*
X115102859Y-53450693D01*
X115150000Y-53497834D01*
X115244280Y-53544974D01*
X115338561Y-53544974D01*
X115409272Y-53521404D01*
X115527123Y-53450693D01*
X115597834Y-53379983D01*
X115668544Y-53262132D01*
X115692115Y-53191421D01*
X115692115Y-53097140D01*
X115644974Y-53002859D01*
X115597834Y-52955719D01*
X115503553Y-52908578D01*
X115456412Y-52908578D01*
X115267851Y-52720016D02*
X115267851Y-52672876D01*
X115244280Y-52602165D01*
X115126429Y-52484314D01*
X115055719Y-52460744D01*
X115008578Y-52460744D01*
X114937867Y-52484314D01*
X114890727Y-52531455D01*
X114843587Y-52625735D01*
X114843587Y-53191421D01*
X114537174Y-52885008D01*
%TO.C,C3*%
X106429273Y-47554280D02*
X106476413Y-47554280D01*
X106570694Y-47507140D01*
X106617835Y-47459999D01*
X106664975Y-47365719D01*
X106664975Y-47271438D01*
X106641405Y-47200727D01*
X106570694Y-47082876D01*
X106499984Y-47012165D01*
X106382133Y-46941455D01*
X106311422Y-46917884D01*
X106217141Y-46917884D01*
X106122860Y-46965025D01*
X106075720Y-47012165D01*
X106028579Y-47106446D01*
X106028579Y-47153587D01*
X105816447Y-47271438D02*
X105510034Y-47577851D01*
X105863588Y-47601421D01*
X105792877Y-47672132D01*
X105769307Y-47742842D01*
X105769307Y-47789983D01*
X105792877Y-47860693D01*
X105910728Y-47978544D01*
X105981439Y-48002115D01*
X106028579Y-48002115D01*
X106099290Y-47978544D01*
X106240711Y-47837123D01*
X106264281Y-47766412D01*
X106264281Y-47719272D01*
%TO.C,D1*%
X89774078Y-26772262D02*
X89174078Y-26772262D01*
X89174078Y-26915120D01*
X89202650Y-27000834D01*
X89259792Y-27057977D01*
X89316935Y-27086548D01*
X89431221Y-27115120D01*
X89516935Y-27115120D01*
X89631221Y-27086548D01*
X89688364Y-27057977D01*
X89745507Y-27000834D01*
X89774078Y-26915120D01*
X89774078Y-26772262D01*
X89774078Y-27686548D02*
X89774078Y-27343691D01*
X89774078Y-27515120D02*
X89174078Y-27515120D01*
X89259792Y-27457977D01*
X89316935Y-27400834D01*
X89345507Y-27343691D01*
%TO.C,R5*%
X126166666Y-17533150D02*
X126500000Y-17056960D01*
X126738095Y-17533150D02*
X126738095Y-16533150D01*
X126357142Y-16533150D01*
X126261904Y-16580770D01*
X126214285Y-16628389D01*
X126166666Y-16723627D01*
X126166666Y-16866484D01*
X126214285Y-16961722D01*
X126261904Y-17009341D01*
X126357142Y-17056960D01*
X126738095Y-17056960D01*
X125261904Y-16533150D02*
X125738095Y-16533150D01*
X125785714Y-17009341D01*
X125738095Y-16961722D01*
X125642857Y-16914103D01*
X125404761Y-16914103D01*
X125309523Y-16961722D01*
X125261904Y-17009341D01*
X125214285Y-17104579D01*
X125214285Y-17342674D01*
X125261904Y-17437912D01*
X125309523Y-17485531D01*
X125404761Y-17533150D01*
X125642857Y-17533150D01*
X125738095Y-17485531D01*
X125785714Y-17437912D01*
%TO.C,Y1*%
X109177487Y-48813917D02*
X108941785Y-49049619D01*
X109601751Y-48719636D02*
X109177487Y-48813917D01*
X109271768Y-48389653D01*
X108352529Y-48460363D02*
X108635372Y-48743206D01*
X108493950Y-48601785D02*
X108988925Y-48106810D01*
X108965355Y-48224661D01*
X108965355Y-48318942D01*
X108988925Y-48389653D01*
%TO.C,F1*%
X122168571Y-34616666D02*
X122168571Y-34283333D01*
X122692380Y-34283333D02*
X121692380Y-34283333D01*
X121692380Y-34759523D01*
X122692380Y-35664285D02*
X122692380Y-35092857D01*
X122692380Y-35378571D02*
X121692380Y-35378571D01*
X121835238Y-35283333D01*
X121930476Y-35188095D01*
X121978095Y-35092857D01*
%TO.C,D5*%
X124699078Y-42419762D02*
X124099078Y-42419762D01*
X124099078Y-42562620D01*
X124127650Y-42648334D01*
X124184792Y-42705477D01*
X124241935Y-42734048D01*
X124356221Y-42762620D01*
X124441935Y-42762620D01*
X124556221Y-42734048D01*
X124613364Y-42705477D01*
X124670507Y-42648334D01*
X124699078Y-42562620D01*
X124699078Y-42419762D01*
X124099078Y-43305477D02*
X124099078Y-43019762D01*
X124384792Y-42991191D01*
X124356221Y-43019762D01*
X124327650Y-43076905D01*
X124327650Y-43219762D01*
X124356221Y-43276905D01*
X124384792Y-43305477D01*
X124441935Y-43334048D01*
X124584792Y-43334048D01*
X124641935Y-43305477D01*
X124670507Y-43276905D01*
X124699078Y-43219762D01*
X124699078Y-43076905D01*
X124670507Y-43019762D01*
X124641935Y-42991191D01*
%TO.C,C1*%
X102259272Y-51764280D02*
X102306412Y-51764280D01*
X102400693Y-51717140D01*
X102447834Y-51669999D01*
X102494974Y-51575719D01*
X102494974Y-51481438D01*
X102471404Y-51410727D01*
X102400693Y-51292876D01*
X102329983Y-51222165D01*
X102212132Y-51151455D01*
X102141421Y-51127884D01*
X102047140Y-51127884D01*
X101952859Y-51175025D01*
X101905719Y-51222165D01*
X101858578Y-51316446D01*
X101858578Y-51363587D01*
X101835008Y-52282825D02*
X102117851Y-51999983D01*
X101976429Y-52141404D02*
X101481455Y-51646429D01*
X101599306Y-51669999D01*
X101693587Y-51669999D01*
X101764297Y-51646429D01*
D11*
%TO.C,Ref\u002A\u002A*%
X130991726Y-55169750D02*
X130850996Y-55182815D01*
X130850996Y-55182815D02*
X130750373Y-55203584D01*
X130750373Y-55203584D02*
X130585902Y-55265119D01*
X130585902Y-55265119D02*
X130414944Y-55353931D01*
X130414944Y-55353931D02*
X130253490Y-55461428D01*
X130253490Y-55461428D02*
X130215537Y-55490978D01*
X130215537Y-55490978D02*
X130153618Y-55540108D01*
X130153618Y-55540108D02*
X130105473Y-55576871D01*
X130105473Y-55576871D02*
X130079556Y-55594856D01*
X130079556Y-55594856D02*
X130077547Y-55595666D01*
X130077547Y-55595666D02*
X130070307Y-55576788D01*
X130070307Y-55576788D02*
X130060918Y-55528734D01*
X130060918Y-55528734D02*
X130055920Y-55495125D01*
X130055920Y-55495125D02*
X130044715Y-55413965D01*
X130044715Y-55413965D02*
X130033358Y-55334609D01*
X130033358Y-55334609D02*
X130030490Y-55315208D01*
X130030490Y-55315208D02*
X130018612Y-55235833D01*
X130018612Y-55235833D02*
X129556667Y-55235833D01*
X129556667Y-55235833D02*
X129556667Y-59934833D01*
X129556667Y-59934833D02*
X130133408Y-59934833D01*
X130133408Y-59934833D02*
X130124606Y-59037325D01*
X130124606Y-59037325D02*
X130115803Y-58139818D01*
X130115803Y-58139818D02*
X130209262Y-58222083D01*
X130209262Y-58222083D02*
X130381871Y-58356152D01*
X130381871Y-58356152D02*
X130567105Y-58468013D01*
X130567105Y-58468013D02*
X130754672Y-58552226D01*
X130754672Y-58552226D02*
X130928816Y-58602297D01*
X130928816Y-58602297D02*
X131036286Y-58615680D01*
X131036286Y-58615680D02*
X131167808Y-58620053D01*
X131167808Y-58620053D02*
X131267199Y-58617211D01*
X131267199Y-58617211D02*
X131510726Y-58585090D01*
X131510726Y-58585090D02*
X131731997Y-58517410D01*
X131731997Y-58517410D02*
X131930139Y-58415149D01*
X131930139Y-58415149D02*
X132104281Y-58279285D01*
X132104281Y-58279285D02*
X132253551Y-58110794D01*
X132253551Y-58110794D02*
X132377076Y-57910653D01*
X132377076Y-57910653D02*
X132473984Y-57679840D01*
X132473984Y-57679840D02*
X132543403Y-57419333D01*
X132543403Y-57419333D02*
X132583336Y-57142623D01*
X132583336Y-57142623D02*
X132591687Y-56897417D01*
X132591687Y-56897417D02*
X131993118Y-56897417D01*
X131993118Y-56897417D02*
X131979806Y-57160683D01*
X131979806Y-57160683D02*
X131939076Y-57394625D01*
X131939076Y-57394625D02*
X131871406Y-57598394D01*
X131871406Y-57598394D02*
X131777273Y-57771142D01*
X131777273Y-57771142D02*
X131657157Y-57912022D01*
X131657157Y-57912022D02*
X131511534Y-58020185D01*
X131511534Y-58020185D02*
X131340884Y-58094785D01*
X131340884Y-58094785D02*
X131312987Y-58103076D01*
X131312987Y-58103076D02*
X131188629Y-58125144D01*
X131188629Y-58125144D02*
X131045436Y-58130513D01*
X131045436Y-58130513D02*
X130899675Y-58120021D01*
X130899675Y-58120021D02*
X130767615Y-58094506D01*
X130767615Y-58094506D02*
X130699667Y-58071473D01*
X130699667Y-58071473D02*
X130502884Y-57968396D01*
X130502884Y-57968396D02*
X130312797Y-57827342D01*
X130312797Y-57827342D02*
X130249875Y-57771132D01*
X130249875Y-57771132D02*
X130128167Y-57657794D01*
X130128167Y-57657794D02*
X130128167Y-56021474D01*
X130128167Y-56021474D02*
X130249875Y-55927986D01*
X130249875Y-55927986D02*
X130442238Y-55801484D01*
X130442238Y-55801484D02*
X130637464Y-55713654D01*
X130637464Y-55713654D02*
X130832437Y-55664425D01*
X130832437Y-55664425D02*
X131024041Y-55653724D01*
X131024041Y-55653724D02*
X131209160Y-55681482D01*
X131209160Y-55681482D02*
X131384677Y-55747626D01*
X131384677Y-55747626D02*
X131547476Y-55852085D01*
X131547476Y-55852085D02*
X131663839Y-55960345D01*
X131663839Y-55960345D02*
X131793620Y-56126295D01*
X131793620Y-56126295D02*
X131889859Y-56309200D01*
X131889859Y-56309200D02*
X131953949Y-56513024D01*
X131953949Y-56513024D02*
X131987285Y-56741733D01*
X131987285Y-56741733D02*
X131993118Y-56897417D01*
X131993118Y-56897417D02*
X132591687Y-56897417D01*
X132591687Y-56897417D02*
X132593907Y-56832268D01*
X132593907Y-56832268D02*
X132566843Y-56540725D01*
X132566843Y-56540725D02*
X132502208Y-56268256D01*
X132502208Y-56268256D02*
X132400063Y-56015122D01*
X132400063Y-56015122D02*
X132260472Y-55781586D01*
X132260472Y-55781586D02*
X132256470Y-55775954D01*
X132256470Y-55775954D02*
X132105873Y-55598880D01*
X132105873Y-55598880D02*
X131925976Y-55444754D01*
X131925976Y-55444754D02*
X131725025Y-55319237D01*
X131725025Y-55319237D02*
X131511265Y-55227991D01*
X131511265Y-55227991D02*
X131419333Y-55201170D01*
X131419333Y-55201170D02*
X131291606Y-55178871D01*
X131291606Y-55178871D02*
X131143833Y-55168417D01*
X131143833Y-55168417D02*
X130991726Y-55169750D01*
X130991726Y-55169750D02*
X130991726Y-55169750D01*
G36*
X132543403Y-57419333D02*
G01*
X132473984Y-57679840D01*
X132377076Y-57910653D01*
X132253551Y-58110794D01*
X132104281Y-58279285D01*
X131930139Y-58415149D01*
X131731997Y-58517410D01*
X131510726Y-58585090D01*
X131267199Y-58617211D01*
X131167808Y-58620053D01*
X131036286Y-58615680D01*
X130928816Y-58602297D01*
X130754672Y-58552226D01*
X130567105Y-58468013D01*
X130381871Y-58356152D01*
X130209262Y-58222083D01*
X130115803Y-58139818D01*
X130124606Y-59037325D01*
X130133408Y-59934833D01*
X129556667Y-59934833D01*
X129556667Y-56021474D01*
X130128167Y-56021474D01*
X130128167Y-57657794D01*
X130249875Y-57771132D01*
X130312797Y-57827342D01*
X130502884Y-57968396D01*
X130699667Y-58071473D01*
X130767615Y-58094506D01*
X130899675Y-58120021D01*
X131045436Y-58130513D01*
X131188629Y-58125144D01*
X131312987Y-58103076D01*
X131340884Y-58094785D01*
X131511534Y-58020185D01*
X131657157Y-57912022D01*
X131777273Y-57771142D01*
X131871406Y-57598394D01*
X131939076Y-57394625D01*
X131979806Y-57160683D01*
X131993118Y-56897417D01*
X131987285Y-56741733D01*
X131953949Y-56513024D01*
X131889859Y-56309200D01*
X131793620Y-56126295D01*
X131663839Y-55960345D01*
X131547476Y-55852085D01*
X131384677Y-55747626D01*
X131209160Y-55681482D01*
X131024041Y-55653724D01*
X130832437Y-55664425D01*
X130637464Y-55713654D01*
X130442238Y-55801484D01*
X130249875Y-55927986D01*
X130128167Y-56021474D01*
X129556667Y-56021474D01*
X129556667Y-55235833D01*
X130018612Y-55235833D01*
X130030490Y-55315208D01*
X130033358Y-55334609D01*
X130044715Y-55413965D01*
X130055920Y-55495125D01*
X130060918Y-55528734D01*
X130070307Y-55576788D01*
X130077547Y-55595666D01*
X130079556Y-55594856D01*
X130105473Y-55576871D01*
X130153618Y-55540108D01*
X130215537Y-55490978D01*
X130253490Y-55461428D01*
X130414944Y-55353931D01*
X130585902Y-55265119D01*
X130750373Y-55203584D01*
X130850996Y-55182815D01*
X130991726Y-55169750D01*
X131143833Y-55168417D01*
X131291606Y-55178871D01*
X131419333Y-55201170D01*
X131511265Y-55227991D01*
X131725025Y-55319237D01*
X131925976Y-55444754D01*
X132105873Y-55598880D01*
X132256470Y-55775954D01*
X132260472Y-55781586D01*
X132400063Y-56015122D01*
X132502208Y-56268256D01*
X132566843Y-56540725D01*
X132593907Y-56832268D01*
X132591687Y-56897417D01*
X132583336Y-57142623D01*
X132543403Y-57419333D01*
G37*
X132543403Y-57419333D02*
X132473984Y-57679840D01*
X132377076Y-57910653D01*
X132253551Y-58110794D01*
X132104281Y-58279285D01*
X131930139Y-58415149D01*
X131731997Y-58517410D01*
X131510726Y-58585090D01*
X131267199Y-58617211D01*
X131167808Y-58620053D01*
X131036286Y-58615680D01*
X130928816Y-58602297D01*
X130754672Y-58552226D01*
X130567105Y-58468013D01*
X130381871Y-58356152D01*
X130209262Y-58222083D01*
X130115803Y-58139818D01*
X130124606Y-59037325D01*
X130133408Y-59934833D01*
X129556667Y-59934833D01*
X129556667Y-56021474D01*
X130128167Y-56021474D01*
X130128167Y-57657794D01*
X130249875Y-57771132D01*
X130312797Y-57827342D01*
X130502884Y-57968396D01*
X130699667Y-58071473D01*
X130767615Y-58094506D01*
X130899675Y-58120021D01*
X131045436Y-58130513D01*
X131188629Y-58125144D01*
X131312987Y-58103076D01*
X131340884Y-58094785D01*
X131511534Y-58020185D01*
X131657157Y-57912022D01*
X131777273Y-57771142D01*
X131871406Y-57598394D01*
X131939076Y-57394625D01*
X131979806Y-57160683D01*
X131993118Y-56897417D01*
X131987285Y-56741733D01*
X131953949Y-56513024D01*
X131889859Y-56309200D01*
X131793620Y-56126295D01*
X131663839Y-55960345D01*
X131547476Y-55852085D01*
X131384677Y-55747626D01*
X131209160Y-55681482D01*
X131024041Y-55653724D01*
X130832437Y-55664425D01*
X130637464Y-55713654D01*
X130442238Y-55801484D01*
X130249875Y-55927986D01*
X130128167Y-56021474D01*
X129556667Y-56021474D01*
X129556667Y-55235833D01*
X130018612Y-55235833D01*
X130030490Y-55315208D01*
X130033358Y-55334609D01*
X130044715Y-55413965D01*
X130055920Y-55495125D01*
X130060918Y-55528734D01*
X130070307Y-55576788D01*
X130077547Y-55595666D01*
X130079556Y-55594856D01*
X130105473Y-55576871D01*
X130153618Y-55540108D01*
X130215537Y-55490978D01*
X130253490Y-55461428D01*
X130414944Y-55353931D01*
X130585902Y-55265119D01*
X130750373Y-55203584D01*
X130850996Y-55182815D01*
X130991726Y-55169750D01*
X131143833Y-55168417D01*
X131291606Y-55178871D01*
X131419333Y-55201170D01*
X131511265Y-55227991D01*
X131725025Y-55319237D01*
X131925976Y-55444754D01*
X132105873Y-55598880D01*
X132256470Y-55775954D01*
X132260472Y-55781586D01*
X132400063Y-56015122D01*
X132502208Y-56268256D01*
X132566843Y-56540725D01*
X132593907Y-56832268D01*
X132591687Y-56897417D01*
X132583336Y-57142623D01*
X132543403Y-57419333D01*
X125072324Y-55236811D02*
X124993211Y-55240020D01*
X124993211Y-55240020D02*
X124946484Y-55245987D01*
X124946484Y-55245987D02*
X124927185Y-55255214D01*
X124927185Y-55255214D02*
X124926620Y-55262291D01*
X124926620Y-55262291D02*
X124932514Y-55286710D01*
X124932514Y-55286710D02*
X124946530Y-55349338D01*
X124946530Y-55349338D02*
X124967977Y-55446979D01*
X124967977Y-55446979D02*
X124996165Y-55576434D01*
X124996165Y-55576434D02*
X125030403Y-55734509D01*
X125030403Y-55734509D02*
X125069999Y-55918005D01*
X125069999Y-55918005D02*
X125114265Y-56123727D01*
X125114265Y-56123727D02*
X125162508Y-56348477D01*
X125162508Y-56348477D02*
X125214039Y-56589058D01*
X125214039Y-56589058D02*
X125268165Y-56842274D01*
X125268165Y-56842274D02*
X125283426Y-56913756D01*
X125283426Y-56913756D02*
X125630250Y-58538761D01*
X125630250Y-58538761D02*
X126000500Y-58533006D01*
X126000500Y-58533006D02*
X126370749Y-58527250D01*
X126370749Y-58527250D02*
X126575068Y-57680583D01*
X126575068Y-57680583D02*
X126625375Y-57468534D01*
X126625375Y-57468534D02*
X126673963Y-57256950D01*
X126673963Y-57256950D02*
X126719339Y-57052778D01*
X126719339Y-57052778D02*
X126760010Y-56862966D01*
X126760010Y-56862966D02*
X126794481Y-56694463D01*
X126794481Y-56694463D02*
X126821259Y-56554215D01*
X126821259Y-56554215D02*
X126836688Y-56463500D01*
X126836688Y-56463500D02*
X126860800Y-56310145D01*
X126860800Y-56310145D02*
X126879876Y-56195560D01*
X126879876Y-56195560D02*
X126894685Y-56116581D01*
X126894685Y-56116581D02*
X126905994Y-56070042D01*
X126905994Y-56070042D02*
X126914571Y-56052779D01*
X126914571Y-56052779D02*
X126921184Y-56061630D01*
X126921184Y-56061630D02*
X126926558Y-56093083D01*
X126926558Y-56093083D02*
X126946795Y-56239072D01*
X126946795Y-56239072D02*
X126975920Y-56414654D01*
X126975920Y-56414654D02*
X127014234Y-56621275D01*
X127014234Y-56621275D02*
X127062042Y-56860379D01*
X127062042Y-56860379D02*
X127119646Y-57133412D01*
X127119646Y-57133412D02*
X127187349Y-57441818D01*
X127187349Y-57441818D02*
X127265456Y-57787044D01*
X127265456Y-57787044D02*
X127354269Y-58170534D01*
X127354269Y-58170534D02*
X127429526Y-58490208D01*
X127429526Y-58490208D02*
X127434798Y-58507388D01*
X127434798Y-58507388D02*
X127445268Y-58519842D01*
X127445268Y-58519842D02*
X127466982Y-58528332D01*
X127466982Y-58528332D02*
X127505984Y-58533616D01*
X127505984Y-58533616D02*
X127568322Y-58536454D01*
X127568322Y-58536454D02*
X127660040Y-58537606D01*
X127660040Y-58537606D02*
X127787185Y-58537832D01*
X127787185Y-58537832D02*
X127808525Y-58537833D01*
X127808525Y-58537833D02*
X127941211Y-58537676D01*
X127941211Y-58537676D02*
X128037615Y-58536700D01*
X128037615Y-58536700D02*
X128103792Y-58534143D01*
X128103792Y-58534143D02*
X128145792Y-58529247D01*
X128145792Y-58529247D02*
X128169669Y-58521252D01*
X128169669Y-58521252D02*
X128181476Y-58509397D01*
X128181476Y-58509397D02*
X128187264Y-58492924D01*
X128187264Y-58492924D02*
X128187938Y-58490208D01*
X128187938Y-58490208D02*
X128194229Y-58462279D01*
X128194229Y-58462279D02*
X128208791Y-58396295D01*
X128208791Y-58396295D02*
X128230900Y-58295568D01*
X128230900Y-58295568D02*
X128259833Y-58163412D01*
X128259833Y-58163412D02*
X128294865Y-58003139D01*
X128294865Y-58003139D02*
X128335275Y-57818060D01*
X128335275Y-57818060D02*
X128380337Y-57611489D01*
X128380337Y-57611489D02*
X128429328Y-57386737D01*
X128429328Y-57386737D02*
X128481526Y-57147117D01*
X128481526Y-57147117D02*
X128536205Y-56895941D01*
X128536205Y-56895941D02*
X128540491Y-56876250D01*
X128540491Y-56876250D02*
X128595288Y-56624621D01*
X128595288Y-56624621D02*
X128647650Y-56384521D01*
X128647650Y-56384521D02*
X128696856Y-56159233D01*
X128696856Y-56159233D02*
X128742185Y-55952043D01*
X128742185Y-55952043D02*
X128782915Y-55766237D01*
X128782915Y-55766237D02*
X128818327Y-55605098D01*
X128818327Y-55605098D02*
X128847698Y-55471913D01*
X128847698Y-55471913D02*
X128870308Y-55369966D01*
X128870308Y-55369966D02*
X128885435Y-55302543D01*
X128885435Y-55302543D02*
X128892359Y-55272928D01*
X128892359Y-55272928D02*
X128892544Y-55272267D01*
X128892544Y-55272267D02*
X128894198Y-55257322D01*
X128894198Y-55257322D02*
X128884547Y-55247185D01*
X128884547Y-55247185D02*
X128857353Y-55241149D01*
X128857353Y-55241149D02*
X128806379Y-55238510D01*
X128806379Y-55238510D02*
X128725390Y-55238560D01*
X128725390Y-55238560D02*
X128612005Y-55240517D01*
X128612005Y-55240517D02*
X128320270Y-55246417D01*
X128320270Y-55246417D02*
X128293858Y-55373417D01*
X128293858Y-55373417D02*
X128242164Y-55623214D01*
X128242164Y-55623214D02*
X128190123Y-55877002D01*
X128190123Y-55877002D02*
X128138559Y-56130612D01*
X128138559Y-56130612D02*
X128088293Y-56379873D01*
X128088293Y-56379873D02*
X128040148Y-56620617D01*
X128040148Y-56620617D02*
X127994949Y-56848673D01*
X127994949Y-56848673D02*
X127953516Y-57059873D01*
X127953516Y-57059873D02*
X127916673Y-57250046D01*
X127916673Y-57250046D02*
X127885243Y-57415023D01*
X127885243Y-57415023D02*
X127860048Y-57550634D01*
X127860048Y-57550634D02*
X127841912Y-57652710D01*
X127841912Y-57652710D02*
X127832322Y-57712333D01*
X127832322Y-57712333D02*
X127813364Y-57841549D01*
X127813364Y-57841549D02*
X127798383Y-57930054D01*
X127798383Y-57930054D02*
X127785808Y-57979106D01*
X127785808Y-57979106D02*
X127774065Y-57989964D01*
X127774065Y-57989964D02*
X127761582Y-57963884D01*
X127761582Y-57963884D02*
X127746785Y-57902124D01*
X127746785Y-57902124D02*
X127728102Y-57805943D01*
X127728102Y-57805943D02*
X127726430Y-57797000D01*
X127726430Y-57797000D02*
X127712387Y-57727673D01*
X127712387Y-57727673D02*
X127689570Y-57622329D01*
X127689570Y-57622329D02*
X127659155Y-57486098D01*
X127659155Y-57486098D02*
X127622317Y-57324109D01*
X127622317Y-57324109D02*
X127580232Y-57141494D01*
X127580232Y-57141494D02*
X127534077Y-56943382D01*
X127534077Y-56943382D02*
X127485026Y-56734904D01*
X127485026Y-56734904D02*
X127434255Y-56521190D01*
X127434255Y-56521190D02*
X127429323Y-56500542D01*
X127429323Y-56500542D02*
X127177675Y-55447500D01*
X127177675Y-55447500D02*
X126603675Y-55447500D01*
X126603675Y-55447500D02*
X126469677Y-56034875D01*
X126469677Y-56034875D02*
X126426952Y-56221228D01*
X126426952Y-56221228D02*
X126379773Y-56425423D01*
X126379773Y-56425423D02*
X126331136Y-56634597D01*
X126331136Y-56634597D02*
X126284039Y-56835888D01*
X126284039Y-56835888D02*
X126241476Y-57016431D01*
X126241476Y-57016431D02*
X126219449Y-57109083D01*
X126219449Y-57109083D02*
X126182846Y-57263656D01*
X126182846Y-57263656D02*
X126146336Y-57420109D01*
X126146336Y-57420109D02*
X126112191Y-57568539D01*
X126112191Y-57568539D02*
X126082683Y-57699037D01*
X126082683Y-57699037D02*
X126060086Y-57801700D01*
X126060086Y-57801700D02*
X126054329Y-57828750D01*
X126054329Y-57828750D02*
X126037147Y-57911814D01*
X126037147Y-57911814D02*
X126024056Y-57971378D01*
X126024056Y-57971378D02*
X126013537Y-58004965D01*
X126013537Y-58004965D02*
X126004068Y-58010098D01*
X126004068Y-58010098D02*
X125994128Y-57984302D01*
X125994128Y-57984302D02*
X125982194Y-57925100D01*
X125982194Y-57925100D02*
X125966747Y-57830016D01*
X125966747Y-57830016D02*
X125946265Y-57696573D01*
X125946265Y-57696573D02*
X125937301Y-57638250D01*
X125937301Y-57638250D02*
X125924513Y-57562222D01*
X125924513Y-57562222D02*
X125904176Y-57450068D01*
X125904176Y-57450068D02*
X125877322Y-57307118D01*
X125877322Y-57307118D02*
X125844983Y-57138701D01*
X125844983Y-57138701D02*
X125808193Y-56950145D01*
X125808193Y-56950145D02*
X125767984Y-56746779D01*
X125767984Y-56746779D02*
X125725388Y-56533932D01*
X125725388Y-56533932D02*
X125681439Y-56316934D01*
X125681439Y-56316934D02*
X125677882Y-56299488D01*
X125677882Y-56299488D02*
X125460917Y-55235893D01*
X125460917Y-55235893D02*
X125188777Y-55235863D01*
X125188777Y-55235863D02*
X125072324Y-55236811D01*
X125072324Y-55236811D02*
X125072324Y-55236811D01*
G36*
X125460917Y-55235893D02*
G01*
X125677882Y-56299488D01*
X125681439Y-56316934D01*
X125725388Y-56533932D01*
X125767984Y-56746779D01*
X125808193Y-56950145D01*
X125844983Y-57138701D01*
X125877322Y-57307118D01*
X125904176Y-57450068D01*
X125924513Y-57562222D01*
X125937301Y-57638250D01*
X125946265Y-57696573D01*
X125966747Y-57830016D01*
X125982194Y-57925100D01*
X125994128Y-57984302D01*
X126004068Y-58010098D01*
X126013537Y-58004965D01*
X126024056Y-57971378D01*
X126037147Y-57911814D01*
X126054329Y-57828750D01*
X126060086Y-57801700D01*
X126082683Y-57699037D01*
X126112191Y-57568539D01*
X126146336Y-57420109D01*
X126182846Y-57263656D01*
X126219449Y-57109083D01*
X126241476Y-57016431D01*
X126284039Y-56835888D01*
X126331136Y-56634597D01*
X126379773Y-56425423D01*
X126426952Y-56221228D01*
X126469677Y-56034875D01*
X126603675Y-55447500D01*
X127177675Y-55447500D01*
X127429323Y-56500542D01*
X127434255Y-56521190D01*
X127485026Y-56734904D01*
X127534077Y-56943382D01*
X127580232Y-57141494D01*
X127622317Y-57324109D01*
X127659155Y-57486098D01*
X127689570Y-57622329D01*
X127712387Y-57727673D01*
X127726430Y-57797000D01*
X127728102Y-57805943D01*
X127746785Y-57902124D01*
X127761582Y-57963884D01*
X127774065Y-57989964D01*
X127785808Y-57979106D01*
X127798383Y-57930054D01*
X127813364Y-57841549D01*
X127832322Y-57712333D01*
X127841912Y-57652710D01*
X127860048Y-57550634D01*
X127885243Y-57415023D01*
X127916673Y-57250046D01*
X127953516Y-57059873D01*
X127994949Y-56848673D01*
X128040148Y-56620617D01*
X128088293Y-56379873D01*
X128138559Y-56130612D01*
X128190123Y-55877002D01*
X128242164Y-55623214D01*
X128293858Y-55373417D01*
X128320270Y-55246417D01*
X128612005Y-55240517D01*
X128725390Y-55238560D01*
X128806379Y-55238510D01*
X128857353Y-55241149D01*
X128884547Y-55247185D01*
X128894198Y-55257322D01*
X128892544Y-55272267D01*
X128892359Y-55272928D01*
X128885435Y-55302543D01*
X128870308Y-55369966D01*
X128847698Y-55471913D01*
X128818327Y-55605098D01*
X128782915Y-55766237D01*
X128742185Y-55952043D01*
X128696856Y-56159233D01*
X128647650Y-56384521D01*
X128595288Y-56624621D01*
X128540491Y-56876250D01*
X128536205Y-56895941D01*
X128481526Y-57147117D01*
X128429328Y-57386737D01*
X128380337Y-57611489D01*
X128335275Y-57818060D01*
X128294865Y-58003139D01*
X128259833Y-58163412D01*
X128230900Y-58295568D01*
X128208791Y-58396295D01*
X128194229Y-58462279D01*
X128187938Y-58490208D01*
X128187264Y-58492924D01*
X128181476Y-58509397D01*
X128169669Y-58521252D01*
X128145792Y-58529247D01*
X128103792Y-58534143D01*
X128037615Y-58536700D01*
X127941211Y-58537676D01*
X127808525Y-58537833D01*
X127787185Y-58537832D01*
X127660040Y-58537606D01*
X127568322Y-58536454D01*
X127505984Y-58533616D01*
X127466982Y-58528332D01*
X127445268Y-58519842D01*
X127434798Y-58507388D01*
X127429526Y-58490208D01*
X127354269Y-58170534D01*
X127265456Y-57787044D01*
X127187349Y-57441818D01*
X127119646Y-57133412D01*
X127062042Y-56860379D01*
X127014234Y-56621275D01*
X126975920Y-56414654D01*
X126946795Y-56239072D01*
X126926558Y-56093083D01*
X126921184Y-56061630D01*
X126914571Y-56052779D01*
X126905994Y-56070042D01*
X126894685Y-56116581D01*
X126879876Y-56195560D01*
X126860800Y-56310145D01*
X126836688Y-56463500D01*
X126821259Y-56554215D01*
X126794481Y-56694463D01*
X126760010Y-56862966D01*
X126719339Y-57052778D01*
X126673963Y-57256950D01*
X126625375Y-57468534D01*
X126575068Y-57680583D01*
X126370749Y-58527250D01*
X126000500Y-58533006D01*
X125630250Y-58538761D01*
X125283426Y-56913756D01*
X125268165Y-56842274D01*
X125214039Y-56589058D01*
X125162508Y-56348477D01*
X125114265Y-56123727D01*
X125069999Y-55918005D01*
X125030403Y-55734509D01*
X124996165Y-55576434D01*
X124967977Y-55446979D01*
X124946530Y-55349338D01*
X124932514Y-55286710D01*
X124926620Y-55262291D01*
X124927185Y-55255214D01*
X124946484Y-55245987D01*
X124993211Y-55240020D01*
X125072324Y-55236811D01*
X125188777Y-55235863D01*
X125460917Y-55235893D01*
G37*
X125460917Y-55235893D02*
X125677882Y-56299488D01*
X125681439Y-56316934D01*
X125725388Y-56533932D01*
X125767984Y-56746779D01*
X125808193Y-56950145D01*
X125844983Y-57138701D01*
X125877322Y-57307118D01*
X125904176Y-57450068D01*
X125924513Y-57562222D01*
X125937301Y-57638250D01*
X125946265Y-57696573D01*
X125966747Y-57830016D01*
X125982194Y-57925100D01*
X125994128Y-57984302D01*
X126004068Y-58010098D01*
X126013537Y-58004965D01*
X126024056Y-57971378D01*
X126037147Y-57911814D01*
X126054329Y-57828750D01*
X126060086Y-57801700D01*
X126082683Y-57699037D01*
X126112191Y-57568539D01*
X126146336Y-57420109D01*
X126182846Y-57263656D01*
X126219449Y-57109083D01*
X126241476Y-57016431D01*
X126284039Y-56835888D01*
X126331136Y-56634597D01*
X126379773Y-56425423D01*
X126426952Y-56221228D01*
X126469677Y-56034875D01*
X126603675Y-55447500D01*
X127177675Y-55447500D01*
X127429323Y-56500542D01*
X127434255Y-56521190D01*
X127485026Y-56734904D01*
X127534077Y-56943382D01*
X127580232Y-57141494D01*
X127622317Y-57324109D01*
X127659155Y-57486098D01*
X127689570Y-57622329D01*
X127712387Y-57727673D01*
X127726430Y-57797000D01*
X127728102Y-57805943D01*
X127746785Y-57902124D01*
X127761582Y-57963884D01*
X127774065Y-57989964D01*
X127785808Y-57979106D01*
X127798383Y-57930054D01*
X127813364Y-57841549D01*
X127832322Y-57712333D01*
X127841912Y-57652710D01*
X127860048Y-57550634D01*
X127885243Y-57415023D01*
X127916673Y-57250046D01*
X127953516Y-57059873D01*
X127994949Y-56848673D01*
X128040148Y-56620617D01*
X128088293Y-56379873D01*
X128138559Y-56130612D01*
X128190123Y-55877002D01*
X128242164Y-55623214D01*
X128293858Y-55373417D01*
X128320270Y-55246417D01*
X128612005Y-55240517D01*
X128725390Y-55238560D01*
X128806379Y-55238510D01*
X128857353Y-55241149D01*
X128884547Y-55247185D01*
X128894198Y-55257322D01*
X128892544Y-55272267D01*
X128892359Y-55272928D01*
X128885435Y-55302543D01*
X128870308Y-55369966D01*
X128847698Y-55471913D01*
X128818327Y-55605098D01*
X128782915Y-55766237D01*
X128742185Y-55952043D01*
X128696856Y-56159233D01*
X128647650Y-56384521D01*
X128595288Y-56624621D01*
X128540491Y-56876250D01*
X128536205Y-56895941D01*
X128481526Y-57147117D01*
X128429328Y-57386737D01*
X128380337Y-57611489D01*
X128335275Y-57818060D01*
X128294865Y-58003139D01*
X128259833Y-58163412D01*
X128230900Y-58295568D01*
X128208791Y-58396295D01*
X128194229Y-58462279D01*
X128187938Y-58490208D01*
X128187264Y-58492924D01*
X128181476Y-58509397D01*
X128169669Y-58521252D01*
X128145792Y-58529247D01*
X128103792Y-58534143D01*
X128037615Y-58536700D01*
X127941211Y-58537676D01*
X127808525Y-58537833D01*
X127787185Y-58537832D01*
X127660040Y-58537606D01*
X127568322Y-58536454D01*
X127505984Y-58533616D01*
X127466982Y-58528332D01*
X127445268Y-58519842D01*
X127434798Y-58507388D01*
X127429526Y-58490208D01*
X127354269Y-58170534D01*
X127265456Y-57787044D01*
X127187349Y-57441818D01*
X127119646Y-57133412D01*
X127062042Y-56860379D01*
X127014234Y-56621275D01*
X126975920Y-56414654D01*
X126946795Y-56239072D01*
X126926558Y-56093083D01*
X126921184Y-56061630D01*
X126914571Y-56052779D01*
X126905994Y-56070042D01*
X126894685Y-56116581D01*
X126879876Y-56195560D01*
X126860800Y-56310145D01*
X126836688Y-56463500D01*
X126821259Y-56554215D01*
X126794481Y-56694463D01*
X126760010Y-56862966D01*
X126719339Y-57052778D01*
X126673963Y-57256950D01*
X126625375Y-57468534D01*
X126575068Y-57680583D01*
X126370749Y-58527250D01*
X126000500Y-58533006D01*
X125630250Y-58538761D01*
X125283426Y-56913756D01*
X125268165Y-56842274D01*
X125214039Y-56589058D01*
X125162508Y-56348477D01*
X125114265Y-56123727D01*
X125069999Y-55918005D01*
X125030403Y-55734509D01*
X124996165Y-55576434D01*
X124967977Y-55446979D01*
X124946530Y-55349338D01*
X124932514Y-55286710D01*
X124926620Y-55262291D01*
X124927185Y-55255214D01*
X124946484Y-55245987D01*
X124993211Y-55240020D01*
X125072324Y-55236811D01*
X125188777Y-55235863D01*
X125460917Y-55235893D01*
D12*
%TO.C,C5*%
X114208781Y-45759970D02*
X114009970Y-45958781D01*
X114930030Y-46481219D02*
X114731219Y-46680030D01*
D10*
%TO.C,D3*%
X128420000Y-29720038D02*
X128420000Y-30220000D01*
X129720000Y-29220000D02*
X128920000Y-29220000D01*
X130220000Y-30219962D02*
X130220000Y-29720000D01*
X129720000Y-30720000D02*
X128920000Y-30720000D01*
X130220000Y-29720000D02*
G75*
G03*
X129720000Y-29220000I-500000J0D01*
G01*
X128420000Y-30220000D02*
G75*
G03*
X128920000Y-30720000I500000J0D01*
G01*
X129720000Y-30720000D02*
G75*
G03*
X130220000Y-30220000I0J500000D01*
G01*
X128920000Y-29220000D02*
G75*
G03*
X128420000Y-29720000I0J-500000D01*
G01*
D13*
X129320000Y-28720000D02*
X129920000Y-27920000D01*
X129920000Y-27920000D02*
X128720000Y-27920000D01*
X128720000Y-27920000D02*
X129320000Y-28720000D01*
G36*
X129320000Y-28720000D02*
G01*
X128720000Y-27920000D01*
X129920000Y-27920000D01*
X129320000Y-28720000D01*
G37*
X129320000Y-28720000D02*
X128720000Y-27920000D01*
X129920000Y-27920000D01*
X129320000Y-28720000D01*
D12*
%TO.C,D21*%
X90118750Y-31275000D02*
X91268750Y-31275000D01*
X90118750Y-38575000D02*
X90118750Y-31275000D01*
X95618750Y-38575000D02*
X95618750Y-31275000D01*
%TO.C,D19*%
X146418750Y-57625000D02*
X145268750Y-57625000D01*
X140918750Y-50325000D02*
X140918750Y-57625000D01*
X146418750Y-50325000D02*
X146418750Y-57625000D01*
D13*
%TO.C,D17*%
X115474750Y-66976000D02*
X116236750Y-66976000D01*
X116236750Y-66976000D02*
X116236750Y-66214000D01*
X116236750Y-66214000D02*
X115474750Y-66976000D01*
G36*
X116236750Y-66976000D02*
G01*
X115474750Y-66976000D01*
X116236750Y-66214000D01*
X116236750Y-66976000D01*
G37*
X116236750Y-66976000D02*
X115474750Y-66976000D01*
X116236750Y-66214000D01*
X116236750Y-66976000D01*
D10*
%TO.C,D8*%
X109431250Y-70456288D02*
X109431250Y-70956250D01*
X111231250Y-70956212D02*
X111231250Y-70456250D01*
X110731250Y-71456250D02*
X109931250Y-71456250D01*
X110731250Y-69956250D02*
X109931250Y-69956250D01*
X111231250Y-70456250D02*
G75*
G03*
X110731250Y-69956250I-500000J0D01*
G01*
X109431250Y-70956250D02*
G75*
G03*
X109931250Y-71456250I500000J0D01*
G01*
X110731250Y-71456250D02*
G75*
G03*
X111231250Y-70956250I0J500000D01*
G01*
X109931250Y-69956250D02*
G75*
G03*
X109431250Y-70456250I0J-500000D01*
G01*
D13*
X110331250Y-69456250D02*
X110931250Y-68656250D01*
X110931250Y-68656250D02*
X109731250Y-68656250D01*
X109731250Y-68656250D02*
X110331250Y-69456250D01*
G36*
X110331250Y-69456250D02*
G01*
X109731250Y-68656250D01*
X110931250Y-68656250D01*
X110331250Y-69456250D01*
G37*
X110331250Y-69456250D02*
X109731250Y-68656250D01*
X110931250Y-68656250D01*
X110331250Y-69456250D01*
D12*
%TO.C,D20*%
X146418750Y-38575000D02*
X145268750Y-38575000D01*
X146418750Y-31275000D02*
X146418750Y-38575000D01*
X140918750Y-31275000D02*
X140918750Y-38575000D01*
%TO.C,R1*%
X107457500Y-39402742D02*
X107457500Y-39877258D01*
X108502500Y-39402742D02*
X108502500Y-39877258D01*
D13*
%TO.C,D15*%
X134524750Y-47926000D02*
X135286750Y-47926000D01*
X135286750Y-47926000D02*
X135286750Y-47164000D01*
X135286750Y-47164000D02*
X134524750Y-47926000D01*
G36*
X135286750Y-47926000D02*
G01*
X134524750Y-47926000D01*
X135286750Y-47164000D01*
X135286750Y-47926000D01*
G37*
X135286750Y-47926000D02*
X134524750Y-47926000D01*
X135286750Y-47164000D01*
X135286750Y-47926000D01*
%TO.C,D12*%
X140112750Y-31924000D02*
X139350750Y-31924000D01*
X139350750Y-31924000D02*
X139350750Y-32686000D01*
X139350750Y-32686000D02*
X140112750Y-31924000D01*
G36*
X139350750Y-32686000D02*
G01*
X139350750Y-31924000D01*
X140112750Y-31924000D01*
X139350750Y-32686000D01*
G37*
X139350750Y-32686000D02*
X139350750Y-31924000D01*
X140112750Y-31924000D01*
X139350750Y-32686000D01*
D10*
%TO.C,D2*%
X111900000Y-27549962D02*
X111900000Y-27050000D01*
X111400000Y-26550000D02*
X110600000Y-26550000D01*
X111400000Y-28050000D02*
X110600000Y-28050000D01*
X110100000Y-27050038D02*
X110100000Y-27550000D01*
X111900000Y-27050000D02*
G75*
G03*
X111400000Y-26550000I-500000J0D01*
G01*
X110600000Y-26550000D02*
G75*
G03*
X110100000Y-27050000I0J-500000D01*
G01*
X110100000Y-27550000D02*
G75*
G03*
X110600000Y-28050000I500000J0D01*
G01*
X111400000Y-28050000D02*
G75*
G03*
X111900000Y-27550000I0J500000D01*
G01*
D13*
X111000000Y-26050000D02*
X111600000Y-25250000D01*
X111600000Y-25250000D02*
X110400000Y-25250000D01*
X110400000Y-25250000D02*
X111000000Y-26050000D01*
G36*
X111000000Y-26050000D02*
G01*
X110400000Y-25250000D01*
X111600000Y-25250000D01*
X111000000Y-26050000D01*
G37*
X111000000Y-26050000D02*
X110400000Y-25250000D01*
X111600000Y-25250000D01*
X111000000Y-26050000D01*
D10*
%TO.C,U1*%
X108760000Y-50063476D02*
X108919099Y-50222575D01*
X113886524Y-55190000D02*
X113656714Y-54960190D01*
X113886524Y-55190000D02*
X113656714Y-55419810D01*
X103633476Y-55190000D02*
X103863286Y-54960190D01*
X103633476Y-55190000D02*
X103863286Y-55419810D01*
X108919099Y-50222575D02*
X109926726Y-49214948D01*
X108760000Y-60316524D02*
X108989810Y-60086714D01*
X108760000Y-50063476D02*
X108530190Y-50293286D01*
X108760000Y-60316524D02*
X108530190Y-60086714D01*
D13*
%TO.C,D10*%
X102012750Y-31924000D02*
X101250750Y-31924000D01*
X101250750Y-31924000D02*
X101250750Y-32686000D01*
X101250750Y-32686000D02*
X102012750Y-31924000D01*
G36*
X101250750Y-32686000D02*
G01*
X101250750Y-31924000D01*
X102012750Y-31924000D01*
X101250750Y-32686000D01*
G37*
X101250750Y-32686000D02*
X101250750Y-31924000D01*
X102012750Y-31924000D01*
X101250750Y-32686000D01*
%TO.C,D11*%
X121062750Y-31924000D02*
X120300750Y-31924000D01*
X120300750Y-31924000D02*
X120300750Y-32686000D01*
X120300750Y-32686000D02*
X121062750Y-31924000D01*
G36*
X120300750Y-32686000D02*
G01*
X120300750Y-31924000D01*
X121062750Y-31924000D01*
X120300750Y-32686000D01*
G37*
X120300750Y-32686000D02*
X120300750Y-31924000D01*
X121062750Y-31924000D01*
X120300750Y-32686000D01*
D12*
%TO.C,R2*%
X108957500Y-39877258D02*
X108957500Y-39402742D01*
X110002500Y-39877258D02*
X110002500Y-39402742D01*
D13*
%TO.C,D16*%
X96424750Y-66976000D02*
X97186750Y-66976000D01*
X97186750Y-66976000D02*
X97186750Y-66214000D01*
X97186750Y-66214000D02*
X96424750Y-66976000D01*
G36*
X97186750Y-66976000D02*
G01*
X96424750Y-66976000D01*
X97186750Y-66214000D01*
X97186750Y-66976000D01*
G37*
X97186750Y-66976000D02*
X96424750Y-66976000D01*
X97186750Y-66214000D01*
X97186750Y-66976000D01*
D10*
%TO.C,D7*%
X106762500Y-69956250D02*
X105962500Y-69956250D01*
X105462500Y-70456288D02*
X105462500Y-70956250D01*
X106762500Y-71456250D02*
X105962500Y-71456250D01*
X107262500Y-70956212D02*
X107262500Y-70456250D01*
X105462500Y-70956250D02*
G75*
G03*
X105962500Y-71456250I500000J0D01*
G01*
X106762500Y-71456250D02*
G75*
G03*
X107262500Y-70956250I0J500000D01*
G01*
X105962500Y-69956250D02*
G75*
G03*
X105462500Y-70456250I0J-500000D01*
G01*
X107262500Y-70456250D02*
G75*
G03*
X106762500Y-69956250I-500000J0D01*
G01*
D13*
X106362500Y-69456250D02*
X106962500Y-68656250D01*
X106962500Y-68656250D02*
X105762500Y-68656250D01*
X105762500Y-68656250D02*
X106362500Y-69456250D01*
G36*
X106362500Y-69456250D02*
G01*
X105762500Y-68656250D01*
X106962500Y-68656250D01*
X106362500Y-69456250D01*
G37*
X106362500Y-69456250D02*
X105762500Y-68656250D01*
X106962500Y-68656250D01*
X106362500Y-69456250D01*
D12*
%TO.C,R4*%
X110737258Y-19103270D02*
X110262742Y-19103270D01*
X110737258Y-18058270D02*
X110262742Y-18058270D01*
%TO.C,C4*%
X109790030Y-45921219D02*
X109591219Y-46120030D01*
X109068781Y-45199970D02*
X108869970Y-45398781D01*
%TO.C,D22*%
X90118750Y-57625000D02*
X90118750Y-50325000D01*
X90118750Y-50325000D02*
X91268750Y-50325000D01*
X95618750Y-57625000D02*
X95618750Y-50325000D01*
D10*
%TO.C,D9*%
X129540000Y-70145000D02*
X128740000Y-70145000D01*
X129540000Y-71645000D02*
X128740000Y-71645000D01*
X130040000Y-71144962D02*
X130040000Y-70645000D01*
X128240000Y-70645038D02*
X128240000Y-71145000D01*
X129540000Y-71645000D02*
G75*
G03*
X130040000Y-71145000I0J500000D01*
G01*
X128240000Y-71145000D02*
G75*
G03*
X128740000Y-71645000I500000J0D01*
G01*
X130040000Y-70645000D02*
G75*
G03*
X129540000Y-70145000I-500000J0D01*
G01*
X128740000Y-70145000D02*
G75*
G03*
X128240000Y-70645000I0J-500000D01*
G01*
D13*
X129140000Y-69645000D02*
X129740000Y-68845000D01*
X129740000Y-68845000D02*
X128540000Y-68845000D01*
X128540000Y-68845000D02*
X129140000Y-69645000D01*
G36*
X129140000Y-69645000D02*
G01*
X128540000Y-68845000D01*
X129740000Y-68845000D01*
X129140000Y-69645000D01*
G37*
X129140000Y-69645000D02*
X128540000Y-68845000D01*
X129740000Y-68845000D01*
X129140000Y-69645000D01*
D10*
%TO.C,D6*%
X130281250Y-44762462D02*
X130281250Y-44262500D01*
X128481250Y-44262538D02*
X128481250Y-44762500D01*
X129781250Y-45262500D02*
X128981250Y-45262500D01*
X129781250Y-43762500D02*
X128981250Y-43762500D01*
X130281250Y-44262500D02*
G75*
G03*
X129781250Y-43762500I-500000J0D01*
G01*
X129781250Y-45262500D02*
G75*
G03*
X130281250Y-44762500I0J500000D01*
G01*
X128481250Y-44762500D02*
G75*
G03*
X128981250Y-45262500I500000J0D01*
G01*
X128981250Y-43762500D02*
G75*
G03*
X128481250Y-44262500I0J-500000D01*
G01*
D13*
X129381250Y-43262500D02*
X129981250Y-42462500D01*
X129981250Y-42462500D02*
X128781250Y-42462500D01*
X128781250Y-42462500D02*
X129381250Y-43262500D01*
G36*
X129381250Y-43262500D02*
G01*
X128781250Y-42462500D01*
X129981250Y-42462500D01*
X129381250Y-43262500D01*
G37*
X129381250Y-43262500D02*
X128781250Y-42462500D01*
X129981250Y-42462500D01*
X129381250Y-43262500D01*
D12*
%TO.C,U2*%
X107140000Y-37090000D02*
X107140000Y-34640000D01*
X110360000Y-35290000D02*
X110360000Y-37090000D01*
D10*
%TO.C,D4*%
X91000000Y-47845038D02*
X91000000Y-48345000D01*
X92800000Y-48344962D02*
X92800000Y-47845000D01*
X92300000Y-47345000D02*
X91500000Y-47345000D01*
X92300000Y-48845000D02*
X91500000Y-48845000D01*
X91500000Y-47345000D02*
G75*
G03*
X91000000Y-47845000I0J-500000D01*
G01*
X91000000Y-48345000D02*
G75*
G03*
X91500000Y-48845000I500000J0D01*
G01*
X92800000Y-47845000D02*
G75*
G03*
X92300000Y-47345000I-500000J0D01*
G01*
X92300000Y-48845000D02*
G75*
G03*
X92800000Y-48345000I0J500000D01*
G01*
D13*
X91900000Y-46845000D02*
X92500000Y-46045000D01*
X92500000Y-46045000D02*
X91300000Y-46045000D01*
X91300000Y-46045000D02*
X91900000Y-46845000D01*
G36*
X91900000Y-46845000D02*
G01*
X91300000Y-46045000D01*
X92500000Y-46045000D01*
X91900000Y-46845000D01*
G37*
X91900000Y-46845000D02*
X91300000Y-46045000D01*
X92500000Y-46045000D01*
X91900000Y-46845000D01*
D12*
%TO.C,C2*%
X113811219Y-50959970D02*
X114010030Y-51158781D01*
X113089970Y-51681219D02*
X113288781Y-51880030D01*
D13*
%TO.C,D18*%
X134524750Y-66976000D02*
X135286750Y-66976000D01*
X135286750Y-66976000D02*
X135286750Y-66214000D01*
X135286750Y-66214000D02*
X134524750Y-66976000D01*
G36*
X135286750Y-66976000D02*
G01*
X134524750Y-66976000D01*
X135286750Y-66214000D01*
X135286750Y-66976000D01*
G37*
X135286750Y-66976000D02*
X134524750Y-66976000D01*
X135286750Y-66214000D01*
X135286750Y-66976000D01*
%TO.C,D14*%
X121062750Y-50974000D02*
X120300750Y-50974000D01*
X120300750Y-50974000D02*
X120300750Y-51736000D01*
X120300750Y-51736000D02*
X121062750Y-50974000D01*
G36*
X120300750Y-51736000D02*
G01*
X120300750Y-50974000D01*
X121062750Y-50974000D01*
X120300750Y-51736000D01*
G37*
X120300750Y-51736000D02*
X120300750Y-50974000D01*
X121062750Y-50974000D01*
X120300750Y-51736000D01*
D12*
%TO.C,C3*%
X107371219Y-48650030D02*
X107570030Y-48451219D01*
X106649970Y-47928781D02*
X106848781Y-47729970D01*
D10*
%TO.C,D1*%
X91681250Y-28115000D02*
X90881250Y-28115000D01*
X90381250Y-28615038D02*
X90381250Y-29115000D01*
X92181250Y-29114962D02*
X92181250Y-28615000D01*
X91681250Y-29615000D02*
X90881250Y-29615000D01*
X90381250Y-29115000D02*
G75*
G03*
X90881250Y-29615000I500000J0D01*
G01*
X90881250Y-28115000D02*
G75*
G03*
X90381250Y-28615000I0J-500000D01*
G01*
X92181250Y-28615000D02*
G75*
G03*
X91681250Y-28115000I-500000J0D01*
G01*
X91681250Y-29615000D02*
G75*
G03*
X92181250Y-29115000I0J500000D01*
G01*
D13*
X91281250Y-27615000D02*
X91881250Y-26815000D01*
X91881250Y-26815000D02*
X90681250Y-26815000D01*
X90681250Y-26815000D02*
X91281250Y-27615000D01*
G36*
X91281250Y-27615000D02*
G01*
X90681250Y-26815000D01*
X91881250Y-26815000D01*
X91281250Y-27615000D01*
G37*
X91281250Y-27615000D02*
X90681250Y-26815000D01*
X91881250Y-26815000D01*
X91281250Y-27615000D01*
D12*
%TO.C,R5*%
X125762742Y-18058270D02*
X126237258Y-18058270D01*
X125762742Y-19103270D02*
X126237258Y-19103270D01*
D13*
%TO.C,D13*%
X96424750Y-47926000D02*
X97186750Y-47926000D01*
X97186750Y-47926000D02*
X97186750Y-47164000D01*
X97186750Y-47164000D02*
X96424750Y-47926000D01*
G36*
X97186750Y-47926000D02*
G01*
X96424750Y-47926000D01*
X97186750Y-47164000D01*
X97186750Y-47926000D01*
G37*
X97186750Y-47926000D02*
X96424750Y-47926000D01*
X97186750Y-47164000D01*
X97186750Y-47926000D01*
%TO.C,Y1*%
X112844924Y-45416548D02*
X112137817Y-44709441D01*
X112137817Y-44709441D02*
X111996396Y-45557969D01*
X111996396Y-45557969D02*
X112844924Y-45416548D01*
G36*
X112844924Y-45416548D02*
G01*
X111996396Y-45557969D01*
X112137817Y-44709441D01*
X112844924Y-45416548D01*
G37*
X112844924Y-45416548D02*
X111996396Y-45557969D01*
X112137817Y-44709441D01*
X112844924Y-45416548D01*
D12*
%TO.C,F1*%
X123150000Y-34347936D02*
X123150000Y-35552064D01*
X124970000Y-34347936D02*
X124970000Y-35552064D01*
D10*
%TO.C,D5*%
X125306250Y-44262538D02*
X125306250Y-44762500D01*
X126606250Y-43762500D02*
X125806250Y-43762500D01*
X126606250Y-45262500D02*
X125806250Y-45262500D01*
X127106250Y-44762462D02*
X127106250Y-44262500D01*
X125806250Y-43762500D02*
G75*
G03*
X125306250Y-44262500I0J-500000D01*
G01*
X127106250Y-44262500D02*
G75*
G03*
X126606250Y-43762500I-500000J0D01*
G01*
X126606250Y-45262500D02*
G75*
G03*
X127106250Y-44762500I0J500000D01*
G01*
X125306250Y-44762500D02*
G75*
G03*
X125806250Y-45262500I500000J0D01*
G01*
D13*
X126206250Y-43262500D02*
X126806250Y-42462500D01*
X126806250Y-42462500D02*
X125606250Y-42462500D01*
X125606250Y-42462500D02*
X126206250Y-43262500D01*
G36*
X126206250Y-43262500D02*
G01*
X125606250Y-42462500D01*
X126806250Y-42462500D01*
X126206250Y-43262500D01*
G37*
X126206250Y-43262500D02*
X125606250Y-42462500D01*
X126806250Y-42462500D01*
X126206250Y-43262500D01*
D12*
%TO.C,C1*%
X103741219Y-52320030D02*
X103940030Y-52121219D01*
X103019970Y-51598781D02*
X103218781Y-51399970D01*
%TD*%
M02*
