M48
; DRILL file {KiCad (6.0.0)} date Wed Feb  2 15:10:07 2022
; FORMAT={-:-/ absolute / metric / decimal}
; #@! TF.CreationDate,2022-02-02T15:10:07-06:00
; #@! TF.GenerationSoftware,Kicad,Pcbnew,(6.0.0)
; #@! TF.FileFunction,Plated,1,2,PTH
FMAT,2
METRIC
; #@! TA.AperFunction,Plated,PTH,ViaDrill
T1C0.400
; #@! TA.AperFunction,Plated,PTH,ComponentDrill
T2C0.600
; #@! TA.AperFunction,Plated,PTH,ComponentDrill
T3C1.000
; #@! TA.AperFunction,Plated,PTH,ComponentDrill
T4C1.500
; #@! TA.AperFunction,Plated,PTH,ComponentDrill
T5C1.524
%
G90
G05
T1
X90.93Y-53.97
X91.25Y-34.74
X94.75Y-49.48
X96.11Y-63.35
X96.57Y-51.88
X99.56Y-56.54
X99.99Y-54.125
X101.61Y-56.07
X101.87Y-47.62
X102.26Y-28.17
X103.1Y-46.14
X103.165Y-31.36
X103.69Y-58.671
X103.759Y-59.699
X103.84Y-48.4
X104.06Y-46.87
X104.21Y-49.76
X104.855Y-29.6
X105.442Y-61.729
X106.85Y-46.6
X107.48Y-62.79
X107.8Y-32.69
X108.254Y-70.706
X108.3Y-29.02
X108.54Y-49.08
X108.77Y-33.76
X109.515Y-27.445
X109.65Y-62.88
X110.399Y-31.532
X111.12Y-44.29
X114.29Y-31.199
X114.504Y-49.494
X114.71Y-50.49
X115.12Y-44.3
X115.82Y-19.09
X115.93Y-51.59
X116.41Y-46.85
X116.64Y-59.66
X117.08Y-27.88
X117.41Y-56.44
X120.82Y-56.24
X120.83Y-51.68
X120.92Y-47.64
X124.035Y-50.788
X124.061Y-32.141
X124.27Y-38.91
X124.55Y-54.46
X125.484Y-46.927
X125.85Y-36.35
X126.209Y-47.802
X126.63Y-29.97
X129.381Y-33.337
X132.72Y-36.35
X133.41Y-29.6
X136.22Y-52.97
X136.64Y-40.02
X141.11Y-31.03
X142.26Y-39.07
X142.46Y-57.91
X144.669Y-59.19
X145.27Y-49.91
X145.29Y-35.16
X145.71Y-60.57
T3
X96.719Y-18.4
X96.719Y-32.9
X99.219Y-32.9
X101.719Y-18.4
X101.719Y-32.9
X134.819Y-18.4
X134.819Y-32.9
X137.319Y-32.9
X139.819Y-18.4
X139.819Y-32.9
T5
X95.409Y-22.86
X95.409Y-41.91
X95.409Y-60.96
X101.759Y-20.32
X101.759Y-39.37
X101.759Y-58.42
X114.459Y-22.86
X114.459Y-41.91
X114.459Y-60.96
X120.809Y-20.32
X120.809Y-39.37
X120.809Y-58.42
X133.509Y-22.86
X133.509Y-41.91
X133.509Y-60.96
X139.859Y-20.32
X139.859Y-39.37
X139.859Y-58.42
T2
G00X113.969Y-12.256
M15
G01X113.969Y-12.856
M16
G05
G00X113.969Y-16.206
M15
G01X113.969Y-17.306
M16
G05
G00X122.569Y-12.256
M15
G01X122.569Y-12.856
M16
G05
G00X122.569Y-16.206
M15
G01X122.569Y-17.306
M16
G05
T4
G00X93.619Y-26.05
M15
G01X93.619Y-24.75
M16
G05
G00X104.819Y-26.05
M15
G01X104.819Y-24.75
M16
G05
G00X131.719Y-26.05
M15
G01X131.719Y-24.75
M16
G05
G00X142.919Y-26.05
M15
G01X142.919Y-24.75
M16
G05
T0
M30
