M48
; DRILL file {KiCad (5.99.0-11539-gc946070005)} date Wed Nov 17 23:23:23 2021
; FORMAT={-:-/ absolute / inch / decimal}
; #@! TF.CreationDate,2021-11-17T23:23:23-06:00
; #@! TF.GenerationSoftware,Kicad,Pcbnew,(5.99.0-11539-gc946070005)
; #@! TF.FileFunction,Plated,1,2,PTH
FMAT,2
INCH
; #@! TA.AperFunction,Plated,PTH,ViaDrill
T1C0.0157
; #@! TA.AperFunction,Plated,PTH,ComponentDrill
T2C0.0236
; #@! TA.AperFunction,Plated,PTH,ComponentDrill
T3C0.0394
; #@! TA.AperFunction,Plated,PTH,ComponentDrill
T4C0.0591
; #@! TA.AperFunction,Plated,PTH,ComponentDrill
T5C0.0600
%
G90
G05
T1
X3.5799Y-2.1248
X3.5925Y-1.3677
X3.7303Y-1.948
X3.7839Y-2.4941
X3.802Y-2.0425
X3.9197Y-2.226
X3.9366Y-2.1309
X4.0004Y-2.2075
X4.0106Y-1.8748
X4.026Y-1.1091
X4.0591Y-1.8165
X4.0616Y-1.2346
X4.0823Y-2.3099
X4.085Y-2.3504
X4.0882Y-1.9055
X4.0969Y-1.8453
X4.1028Y-1.9591
X4.1281Y-1.1654
X4.1513Y-2.4303
X4.2067Y-1.8346
X4.2315Y-2.472
X4.2441Y-1.287
X4.262Y-2.7837
X4.2638Y-1.1425
X4.2732Y-1.9323
X4.2823Y-1.3291
X4.3116Y-1.0805
X4.3169Y-2.4756
X4.3464Y-1.2414
X4.3748Y-1.7437
X4.4996Y-1.2283
X4.508Y-1.9486
X4.5161Y-1.9878
X4.5323Y-1.7441
X4.5598Y-0.7516
X4.5642Y-2.0311
X4.5831Y-1.8445
X4.5921Y-2.3488
X4.6094Y-1.0976
X4.6224Y-2.222
X4.7567Y-2.2142
X4.7571Y-2.0346
X4.7606Y-1.8756
X4.8287Y-1.2669
X4.8833Y-1.9995
X4.8843Y-1.2654
X4.8925Y-1.5319
X4.9035Y-2.1441
X4.9403Y-1.8475
X4.9547Y-1.4311
X4.9689Y-1.882
X4.9854Y-1.1799
X5.2252Y-1.4311
X5.2524Y-1.1654
X5.363Y-2.0854
X5.3795Y-1.5756
X5.5555Y-1.2217
X5.6008Y-1.5382
X5.6087Y-2.2799
X5.6956Y-2.3303
X5.7193Y-1.965
X5.7201Y-1.3843
X5.7366Y-2.3846
T3
X3.8078Y-0.7244
X3.8078Y-1.2953
X3.9062Y-1.2953
X4.0047Y-0.7244
X4.0047Y-1.2953
X5.3078Y-0.7244
X5.3078Y-1.2953
X5.4062Y-1.2953
X5.5047Y-0.7244
X5.5047Y-1.2953
T5
X3.7563Y-0.9
X3.7563Y-1.65
X3.7563Y-2.4
X4.0062Y-0.8
X4.0062Y-1.55
X4.0062Y-2.3
X4.5062Y-0.9
X4.5062Y-1.65
X4.5062Y-2.4
X4.7562Y-0.8
X4.7562Y-1.55
X4.7562Y-2.3
X5.2562Y-0.9
X5.2562Y-1.65
X5.2562Y-2.4
X5.5062Y-0.8
X5.5062Y-1.55
X5.5062Y-2.3
T2
G00X4.487Y-0.4825
M15
G01X4.487Y-0.5062
M16
G05
G00X4.487Y-0.638
M15
G01X4.487Y-0.6813
M16
G05
G00X4.8255Y-0.4825
M15
G01X4.8255Y-0.5062
M16
G05
G00X4.8255Y-0.638
M15
G01X4.8255Y-0.6813
M16
G05
T4
G00X3.6858Y-1.0256
M15
G01X3.6858Y-0.9744
M16
G05
G00X4.1267Y-1.0256
M15
G01X4.1267Y-0.9744
M16
G05
G00X5.1858Y-1.0256
M15
G01X5.1858Y-0.9744
M16
G05
G00X5.6267Y-1.0256
M15
G01X5.6267Y-0.9744
M16
G05
T0
M30
