%TF.GenerationSoftware,KiCad,Pcbnew,(6.0.0)*%
%TF.CreationDate,2022-02-02T15:10:05-06:00*%
%TF.ProjectId,QS-09,51532d30-392e-46b6-9963-61645f706362,rev?*%
%TF.SameCoordinates,Original*%
%TF.FileFunction,Soldermask,Bot*%
%TF.FilePolarity,Negative*%
%FSLAX46Y46*%
G04 Gerber Fmt 4.6, Leading zero omitted, Abs format (unit mm)*
G04 Created by KiCad (PCBNEW (6.0.0)) date 2022-02-02 15:10:05*
%MOMM*%
%LPD*%
G01*
G04 APERTURE LIST*
G04 Aperture macros list*
%AMRoundRect*
0 Rectangle with rounded corners*
0 $1 Rounding radius*
0 $2 $3 $4 $5 $6 $7 $8 $9 X,Y pos of 4 corners*
0 Add a 4 corners polygon primitive as box body*
4,1,4,$2,$3,$4,$5,$6,$7,$8,$9,$2,$3,0*
0 Add four circle primitives for the rounded corners*
1,1,$1+$1,$2,$3*
1,1,$1+$1,$4,$5*
1,1,$1+$1,$6,$7*
1,1,$1+$1,$8,$9*
0 Add four rect primitives between the rounded corners*
20,1,$1+$1,$2,$3,$4,$5,0*
20,1,$1+$1,$4,$5,$6,$7,0*
20,1,$1+$1,$6,$7,$8,$9,0*
20,1,$1+$1,$8,$9,$2,$3,0*%
%AMRotRect*
0 Rectangle, with rotation*
0 The origin of the aperture is its center*
0 $1 length*
0 $2 width*
0 $3 Rotation angle, in degrees counterclockwise*
0 Add horizontal line*
21,1,$1,$2,0,0,$3*%
%AMFreePoly0*
4,1,29,0.525059,0.400000,0.532183,0.397025,0.539142,0.394142,0.539154,0.394113,0.539183,0.394101,0.542091,0.387023,0.545000,0.380000,0.545000,-0.380000,0.539142,-0.394142,0.525000,-0.400000,-0.650000,-0.400000,-0.664142,-0.394142,-0.670000,-0.380000,-0.664142,-0.365858,-0.661679,-0.364838,-0.660791,-0.359704,-0.656239,-0.356495,-0.559149,-0.185882,-0.476269,-0.002265,-0.410871,0.188280,
-0.364735,0.379087,-0.365041,0.380578,-0.365871,0.382599,-0.365592,0.383267,-0.365853,0.384541,-0.363693,0.387815,-0.359972,0.396724,-0.345813,0.402541,0.525059,0.400000,0.525059,0.400000,$1*%
%AMFreePoly1*
4,1,34,0.539142,0.394142,0.545000,0.380000,0.545000,-0.380000,0.542091,-0.387023,0.539183,-0.394101,0.539154,-0.394113,0.539142,-0.394142,0.532183,-0.397025,0.525059,-0.400000,-0.345813,-0.402541,-0.359972,-0.396724,-0.365871,-0.382599,-0.364366,-0.378935,-0.368023,-0.373455,-0.366933,-0.367992,-0.414066,-0.177436,-0.480459,0.012760,-0.564296,0.195936,-0.661559,0.364788,-0.664142,0.365858,
-0.665002,0.367933,-0.666846,0.369219,-0.667839,0.374782,-0.670000,0.380000,-0.669140,0.382076,-0.669535,0.384289,-0.666303,0.388925,-0.664142,0.394142,-0.662067,0.395002,-0.660781,0.396846,-0.655218,0.397839,-0.650000,0.400000,0.525000,0.400000,0.539142,0.394142,0.539142,0.394142,$1*%
%AMFreePoly2*
4,1,34,0.319736,0.407785,0.429772,0.357533,0.521194,0.278316,0.586594,0.176551,0.620674,0.060484,0.620674,-0.060484,0.586594,-0.176551,0.521194,-0.278316,0.429772,-0.357533,0.319736,-0.407785,0.200000,-0.425000,0.199999,-0.425000,-0.575001,-0.424979,-0.592678,-0.417657,-0.600000,-0.399978,-0.592678,-0.382301,-0.591802,-0.381938,-0.590898,-0.375869,-0.586419,-0.372551,-0.489387,-0.192699,
-0.407196,0.000019,-0.342984,0.199450,-0.298808,0.397123,-0.300000,0.400000,-0.299129,0.402104,-0.299623,0.404329,-0.295567,0.410704,-0.292678,0.417678,-0.290574,0.418549,-0.289351,0.420472,-0.281976,0.422110,-0.275000,0.425000,0.200000,0.425000,0.319736,0.407785,0.319736,0.407785,$1*%
G04 Aperture macros list end*
%ADD10C,0.010000*%
%ADD11C,0.120000*%
%ADD12R,2.000000X2.000000*%
%ADD13C,2.000000*%
%ADD14R,2.000000X3.200000*%
%ADD15RoundRect,0.225000X-0.017678X0.335876X-0.335876X0.017678X0.017678X-0.335876X0.335876X-0.017678X0*%
%ADD16C,1.701800*%
%ADD17C,3.987800*%
%ADD18C,2.540000*%
%ADD19RoundRect,0.250000X0.350000X-0.250000X0.350000X0.250000X-0.350000X0.250000X-0.350000X-0.250000X0*%
%ADD20R,1.000000X1.500000*%
%ADD21C,4.250000*%
%ADD22FreePoly0,0.000000*%
%ADD23FreePoly1,0.000000*%
%ADD24FreePoly2,180.000000*%
%ADD25FreePoly1,180.000000*%
%ADD26RoundRect,0.200000X-0.275000X0.200000X-0.275000X-0.200000X0.275000X-0.200000X0.275000X0.200000X0*%
%ADD27FreePoly0,180.000000*%
%ADD28FreePoly2,0.000000*%
%ADD29RoundRect,0.200000X-0.200000X-0.275000X0.200000X-0.275000X0.200000X0.275000X-0.200000X0.275000X0*%
%ADD30C,0.650000*%
%ADD31RoundRect,0.150000X-0.150000X-0.575000X0.150000X-0.575000X0.150000X0.575000X-0.150000X0.575000X0*%
%ADD32RoundRect,0.075000X-0.075000X-0.650000X0.075000X-0.650000X0.075000X0.650000X-0.075000X0.650000X0*%
%ADD33O,1.100000X2.200000*%
%ADD34O,1.300000X1.900000*%
%ADD35RotRect,1.600000X0.550000X225.000000*%
%ADD36RotRect,1.600000X0.550000X135.000000*%
%ADD37RoundRect,0.200000X0.275000X-0.200000X0.275000X0.200000X-0.275000X0.200000X-0.275000X-0.200000X0*%
%ADD38R,1.100000X1.800000*%
%ADD39RoundRect,0.200000X0.200000X0.275000X-0.200000X0.275000X-0.200000X-0.275000X0.200000X-0.275000X0*%
%ADD40R,0.650000X1.060000*%
%ADD41RoundRect,0.225000X-0.335876X-0.017678X-0.017678X-0.335876X0.335876X0.017678X0.017678X0.335876X0*%
%ADD42RoundRect,0.225000X0.017678X-0.335876X0.335876X-0.017678X-0.017678X0.335876X-0.335876X0.017678X0*%
%ADD43RotRect,1.400000X1.200000X315.000000*%
%ADD44RoundRect,0.250000X-0.625000X0.375000X-0.625000X-0.375000X0.625000X-0.375000X0.625000X0.375000X0*%
G04 APERTURE END LIST*
D10*
%TO.C,Ref\u002A\u002A*%
X127611323Y-58779834D02*
X127570688Y-58794164D01*
X127570688Y-58794164D02*
X127518687Y-58830413D01*
X127518687Y-58830413D02*
X127495301Y-58851800D01*
X127495301Y-58851800D02*
X127423334Y-58923767D01*
X127423334Y-58923767D02*
X127423334Y-62165832D01*
X127423334Y-62165832D02*
X127481542Y-62230401D01*
X127481542Y-62230401D02*
X127559233Y-62287381D01*
X127559233Y-62287381D02*
X127650947Y-62307275D01*
X127650947Y-62307275D02*
X127747192Y-62288201D01*
X127747192Y-62288201D02*
X127755339Y-62284695D01*
X127755339Y-62284695D02*
X127814732Y-62241154D01*
X127814732Y-62241154D02*
X127862898Y-62176885D01*
X127862898Y-62176885D02*
X127887813Y-62109089D01*
X127887813Y-62109089D02*
X127889000Y-62093468D01*
X127889000Y-62093468D02*
X127870779Y-62066808D01*
X127870779Y-62066808D02*
X127837264Y-62060667D01*
X127837264Y-62060667D02*
X127786512Y-62047120D01*
X127786512Y-62047120D02*
X127731533Y-62014058D01*
X127731533Y-62014058D02*
X127726139Y-62009589D01*
X127726139Y-62009589D02*
X127666750Y-61958511D01*
X127666750Y-61958511D02*
X127661065Y-60369172D01*
X127661065Y-60369172D02*
X127655379Y-58779833D01*
X127655379Y-58779833D02*
X127611323Y-58779834D01*
X127611323Y-58779834D02*
X127611323Y-58779834D01*
G36*
X127661065Y-60369172D02*
G01*
X127666750Y-61958511D01*
X127726139Y-62009589D01*
X127731533Y-62014058D01*
X127786512Y-62047120D01*
X127837264Y-62060667D01*
X127870779Y-62066808D01*
X127889000Y-62093468D01*
X127887813Y-62109089D01*
X127862898Y-62176885D01*
X127814732Y-62241154D01*
X127755339Y-62284695D01*
X127747192Y-62288201D01*
X127650947Y-62307275D01*
X127559233Y-62287381D01*
X127481542Y-62230401D01*
X127423334Y-62165832D01*
X127423334Y-58923767D01*
X127495301Y-58851800D01*
X127518687Y-58830413D01*
X127570688Y-58794164D01*
X127611323Y-58779834D01*
X127655379Y-58779833D01*
X127661065Y-60369172D01*
G37*
X127661065Y-60369172D02*
X127666750Y-61958511D01*
X127726139Y-62009589D01*
X127731533Y-62014058D01*
X127786512Y-62047120D01*
X127837264Y-62060667D01*
X127870779Y-62066808D01*
X127889000Y-62093468D01*
X127887813Y-62109089D01*
X127862898Y-62176885D01*
X127814732Y-62241154D01*
X127755339Y-62284695D01*
X127747192Y-62288201D01*
X127650947Y-62307275D01*
X127559233Y-62287381D01*
X127481542Y-62230401D01*
X127423334Y-62165832D01*
X127423334Y-58923767D01*
X127495301Y-58851800D01*
X127518687Y-58830413D01*
X127570688Y-58794164D01*
X127611323Y-58779834D01*
X127655379Y-58779833D01*
X127661065Y-60369172D01*
X128322917Y-61199269D02*
X128407584Y-61229489D01*
X128407584Y-61229489D02*
X128493568Y-61250116D01*
X128493568Y-61250116D02*
X128607094Y-61263600D01*
X128607094Y-61263600D02*
X128733918Y-61269579D01*
X128733918Y-61269579D02*
X128859796Y-61267696D01*
X128859796Y-61267696D02*
X128970485Y-61257590D01*
X128970485Y-61257590D02*
X129032000Y-61245239D01*
X129032000Y-61245239D02*
X129221404Y-61175951D01*
X129221404Y-61175951D02*
X129388627Y-61077014D01*
X129388627Y-61077014D02*
X129510685Y-60975738D01*
X129510685Y-60975738D02*
X129570306Y-60918137D01*
X129570306Y-60918137D02*
X129614517Y-60871888D01*
X129614517Y-60871888D02*
X129636812Y-60843968D01*
X129636812Y-60843968D02*
X129637959Y-60839236D01*
X129637959Y-60839236D02*
X129616332Y-60843959D01*
X129616332Y-60843959D02*
X129569074Y-60865277D01*
X129569074Y-60865277D02*
X129515682Y-60893507D01*
X129515682Y-60893507D02*
X129324288Y-60976933D01*
X129324288Y-60976933D02*
X129120499Y-61022949D01*
X129120499Y-61022949D02*
X128911540Y-61031551D01*
X128911540Y-61031551D02*
X128704637Y-61002734D01*
X128704637Y-61002734D02*
X128507015Y-60936494D01*
X128507015Y-60936494D02*
X128422625Y-60894244D01*
X128422625Y-60894244D02*
X128310667Y-60831697D01*
X128310667Y-60831697D02*
X128322917Y-61199269D01*
X128322917Y-61199269D02*
X128322917Y-61199269D01*
G36*
X128422625Y-60894244D02*
G01*
X128507015Y-60936494D01*
X128704637Y-61002734D01*
X128911540Y-61031551D01*
X129120499Y-61022949D01*
X129324288Y-60976933D01*
X129515682Y-60893507D01*
X129569074Y-60865277D01*
X129616332Y-60843959D01*
X129637959Y-60839236D01*
X129636812Y-60843968D01*
X129614517Y-60871888D01*
X129570306Y-60918137D01*
X129510685Y-60975738D01*
X129388627Y-61077014D01*
X129221404Y-61175951D01*
X129032000Y-61245239D01*
X128970485Y-61257590D01*
X128859796Y-61267696D01*
X128733918Y-61269579D01*
X128607094Y-61263600D01*
X128493568Y-61250116D01*
X128407584Y-61229489D01*
X128322917Y-61199269D01*
X128310667Y-60831697D01*
X128422625Y-60894244D01*
G37*
X128422625Y-60894244D02*
X128507015Y-60936494D01*
X128704637Y-61002734D01*
X128911540Y-61031551D01*
X129120499Y-61022949D01*
X129324288Y-60976933D01*
X129515682Y-60893507D01*
X129569074Y-60865277D01*
X129616332Y-60843959D01*
X129637959Y-60839236D01*
X129636812Y-60843968D01*
X129614517Y-60871888D01*
X129570306Y-60918137D01*
X129510685Y-60975738D01*
X129388627Y-61077014D01*
X129221404Y-61175951D01*
X129032000Y-61245239D01*
X128970485Y-61257590D01*
X128859796Y-61267696D01*
X128733918Y-61269579D01*
X128607094Y-61263600D01*
X128493568Y-61250116D01*
X128407584Y-61229489D01*
X128322917Y-61199269D01*
X128310667Y-60831697D01*
X128422625Y-60894244D01*
X125465133Y-59583082D02*
X125446520Y-59641183D01*
X125446520Y-59641183D02*
X125422497Y-59723002D01*
X125422497Y-59723002D02*
X125395764Y-59819650D01*
X125395764Y-59819650D02*
X125329581Y-60065716D01*
X125329581Y-60065716D02*
X125485293Y-60612631D01*
X125485293Y-60612631D02*
X125536694Y-60791648D01*
X125536694Y-60791648D02*
X125579302Y-60934015D01*
X125579302Y-60934015D02*
X125615472Y-61043920D01*
X125615472Y-61043920D02*
X125647559Y-61125551D01*
X125647559Y-61125551D02*
X125677919Y-61183098D01*
X125677919Y-61183098D02*
X125708907Y-61220749D01*
X125708907Y-61220749D02*
X125742879Y-61242691D01*
X125742879Y-61242691D02*
X125782190Y-61253115D01*
X125782190Y-61253115D02*
X125829194Y-61256208D01*
X125829194Y-61256208D02*
X125847264Y-61256334D01*
X125847264Y-61256334D02*
X125922783Y-61248059D01*
X125922783Y-61248059D02*
X125981300Y-61217530D01*
X125981300Y-61217530D02*
X126004078Y-61198125D01*
X126004078Y-61198125D02*
X126044821Y-61150671D01*
X126044821Y-61150671D02*
X126073773Y-61099133D01*
X126073773Y-61099133D02*
X126086917Y-61054344D01*
X126086917Y-61054344D02*
X126080231Y-61027135D01*
X126080231Y-61027135D02*
X126068869Y-61023500D01*
X126068869Y-61023500D02*
X126033846Y-61014960D01*
X126033846Y-61014960D02*
X125981345Y-60994011D01*
X125981345Y-60994011D02*
X125972970Y-60990119D01*
X125972970Y-60990119D02*
X125949882Y-60978523D01*
X125949882Y-60978523D02*
X125929935Y-60964931D01*
X125929935Y-60964931D02*
X125911622Y-60945319D01*
X125911622Y-60945319D02*
X125893433Y-60915663D01*
X125893433Y-60915663D02*
X125873859Y-60871937D01*
X125873859Y-60871937D02*
X125851392Y-60810118D01*
X125851392Y-60810118D02*
X125824521Y-60726180D01*
X125824521Y-60726180D02*
X125791739Y-60616100D01*
X125791739Y-60616100D02*
X125751536Y-60475852D01*
X125751536Y-60475852D02*
X125702404Y-60301411D01*
X125702404Y-60301411D02*
X125665909Y-60171158D01*
X125665909Y-60171158D02*
X125622001Y-60016377D01*
X125622001Y-60016377D02*
X125581204Y-59876419D01*
X125581204Y-59876419D02*
X125544993Y-59756035D01*
X125544993Y-59756035D02*
X125514839Y-59659977D01*
X125514839Y-59659977D02*
X125492214Y-59592999D01*
X125492214Y-59592999D02*
X125478593Y-59559852D01*
X125478593Y-59559852D02*
X125475708Y-59557325D01*
X125475708Y-59557325D02*
X125465133Y-59583082D01*
X125465133Y-59583082D02*
X125465133Y-59583082D01*
G36*
X125478593Y-59559852D02*
G01*
X125492214Y-59592999D01*
X125514839Y-59659977D01*
X125544993Y-59756035D01*
X125581204Y-59876419D01*
X125622001Y-60016377D01*
X125665909Y-60171158D01*
X125702404Y-60301411D01*
X125751536Y-60475852D01*
X125791739Y-60616100D01*
X125824521Y-60726180D01*
X125851392Y-60810118D01*
X125873859Y-60871937D01*
X125893433Y-60915663D01*
X125911622Y-60945319D01*
X125929935Y-60964931D01*
X125949882Y-60978523D01*
X125972970Y-60990119D01*
X125981345Y-60994011D01*
X126033846Y-61014960D01*
X126068869Y-61023500D01*
X126080231Y-61027135D01*
X126086917Y-61054344D01*
X126073773Y-61099133D01*
X126044821Y-61150671D01*
X126004078Y-61198125D01*
X125981300Y-61217530D01*
X125922783Y-61248059D01*
X125847264Y-61256334D01*
X125829194Y-61256208D01*
X125782190Y-61253115D01*
X125742879Y-61242691D01*
X125708907Y-61220749D01*
X125677919Y-61183098D01*
X125647559Y-61125551D01*
X125615472Y-61043920D01*
X125579302Y-60934015D01*
X125536694Y-60791648D01*
X125485293Y-60612631D01*
X125329581Y-60065716D01*
X125395764Y-59819650D01*
X125422497Y-59723002D01*
X125446520Y-59641183D01*
X125465133Y-59583082D01*
X125475708Y-59557325D01*
X125478593Y-59559852D01*
G37*
X125478593Y-59559852D02*
X125492214Y-59592999D01*
X125514839Y-59659977D01*
X125544993Y-59756035D01*
X125581204Y-59876419D01*
X125622001Y-60016377D01*
X125665909Y-60171158D01*
X125702404Y-60301411D01*
X125751536Y-60475852D01*
X125791739Y-60616100D01*
X125824521Y-60726180D01*
X125851392Y-60810118D01*
X125873859Y-60871937D01*
X125893433Y-60915663D01*
X125911622Y-60945319D01*
X125929935Y-60964931D01*
X125949882Y-60978523D01*
X125972970Y-60990119D01*
X125981345Y-60994011D01*
X126033846Y-61014960D01*
X126068869Y-61023500D01*
X126080231Y-61027135D01*
X126086917Y-61054344D01*
X126073773Y-61099133D01*
X126044821Y-61150671D01*
X126004078Y-61198125D01*
X125981300Y-61217530D01*
X125922783Y-61248059D01*
X125847264Y-61256334D01*
X125829194Y-61256208D01*
X125782190Y-61253115D01*
X125742879Y-61242691D01*
X125708907Y-61220749D01*
X125677919Y-61183098D01*
X125647559Y-61125551D01*
X125615472Y-61043920D01*
X125579302Y-60934015D01*
X125536694Y-60791648D01*
X125485293Y-60612631D01*
X125329581Y-60065716D01*
X125395764Y-59819650D01*
X125422497Y-59723002D01*
X125446520Y-59641183D01*
X125465133Y-59583082D01*
X125475708Y-59557325D01*
X125478593Y-59559852D01*
X123752814Y-58799701D02*
X123696132Y-58824169D01*
X123696132Y-58824169D02*
X123655268Y-58859232D01*
X123655268Y-58859232D02*
X123624594Y-58919000D01*
X123624594Y-58919000D02*
X123613334Y-58977478D01*
X123613334Y-58977478D02*
X123619945Y-59013973D01*
X123619945Y-59013973D02*
X123638764Y-59085104D01*
X123638764Y-59085104D02*
X123668267Y-59186295D01*
X123668267Y-59186295D02*
X123706931Y-59312972D01*
X123706931Y-59312972D02*
X123753233Y-59460561D01*
X123753233Y-59460561D02*
X123805651Y-59624487D01*
X123805651Y-59624487D02*
X123862661Y-59800176D01*
X123862661Y-59800176D02*
X123922740Y-59983054D01*
X123922740Y-59983054D02*
X123984365Y-60168545D01*
X123984365Y-60168545D02*
X124046014Y-60352077D01*
X124046014Y-60352077D02*
X124106162Y-60529074D01*
X124106162Y-60529074D02*
X124163288Y-60694963D01*
X124163288Y-60694963D02*
X124215867Y-60845168D01*
X124215867Y-60845168D02*
X124262378Y-60975115D01*
X124262378Y-60975115D02*
X124301297Y-61080231D01*
X124301297Y-61080231D02*
X124331101Y-61155940D01*
X124331101Y-61155940D02*
X124350267Y-61197669D01*
X124350267Y-61197669D02*
X124354575Y-61203786D01*
X124354575Y-61203786D02*
X124400274Y-61228333D01*
X124400274Y-61228333D02*
X124467565Y-61246773D01*
X124467565Y-61246773D02*
X124499097Y-61251239D01*
X124499097Y-61251239D02*
X124566615Y-61254167D01*
X124566615Y-61254167D02*
X124612508Y-61242650D01*
X124612508Y-61242650D02*
X124656622Y-61210724D01*
X124656622Y-61210724D02*
X124667889Y-61200528D01*
X124667889Y-61200528D02*
X124713346Y-61148215D01*
X124713346Y-61148215D02*
X124743402Y-61094696D01*
X124743402Y-61094696D02*
X124746770Y-61083780D01*
X124746770Y-61083780D02*
X124750567Y-61042870D01*
X124750567Y-61042870D02*
X124728919Y-61022626D01*
X124728919Y-61022626D02*
X124697267Y-61013890D01*
X124697267Y-61013890D02*
X124635833Y-60987695D01*
X124635833Y-60987695D02*
X124592352Y-60953611D01*
X124592352Y-60953611D02*
X124576613Y-60923561D01*
X124576613Y-60923561D02*
X124549059Y-60856298D01*
X124549059Y-60856298D02*
X124510796Y-60754922D01*
X124510796Y-60754922D02*
X124462928Y-60622530D01*
X124462928Y-60622530D02*
X124406562Y-60462224D01*
X124406562Y-60462224D02*
X124342803Y-60277103D01*
X124342803Y-60277103D02*
X124272757Y-60070267D01*
X124272757Y-60070267D02*
X124205852Y-59869917D01*
X124205852Y-59869917D02*
X124138995Y-59669046D01*
X124138995Y-59669046D02*
X124075737Y-59480122D01*
X124075737Y-59480122D02*
X124017396Y-59307001D01*
X124017396Y-59307001D02*
X123965290Y-59153542D01*
X123965290Y-59153542D02*
X123920737Y-59023603D01*
X123920737Y-59023603D02*
X123885056Y-58921040D01*
X123885056Y-58921040D02*
X123859563Y-58849712D01*
X123859563Y-58849712D02*
X123845576Y-58813477D01*
X123845576Y-58813477D02*
X123843727Y-58809899D01*
X123843727Y-58809899D02*
X123807133Y-58793604D01*
X123807133Y-58793604D02*
X123752814Y-58799701D01*
X123752814Y-58799701D02*
X123752814Y-58799701D01*
G36*
X123843727Y-58809899D02*
G01*
X123845576Y-58813477D01*
X123859563Y-58849712D01*
X123885056Y-58921040D01*
X123920737Y-59023603D01*
X123965290Y-59153542D01*
X124017396Y-59307001D01*
X124075737Y-59480122D01*
X124138995Y-59669046D01*
X124205852Y-59869917D01*
X124272757Y-60070267D01*
X124342803Y-60277103D01*
X124406562Y-60462224D01*
X124462928Y-60622530D01*
X124510796Y-60754922D01*
X124549059Y-60856298D01*
X124576613Y-60923561D01*
X124592352Y-60953611D01*
X124635833Y-60987695D01*
X124697267Y-61013890D01*
X124728919Y-61022626D01*
X124750567Y-61042870D01*
X124746770Y-61083780D01*
X124743402Y-61094696D01*
X124713346Y-61148215D01*
X124667889Y-61200528D01*
X124656622Y-61210724D01*
X124612508Y-61242650D01*
X124566615Y-61254167D01*
X124499097Y-61251239D01*
X124467565Y-61246773D01*
X124400274Y-61228333D01*
X124354575Y-61203786D01*
X124350267Y-61197669D01*
X124331101Y-61155940D01*
X124301297Y-61080231D01*
X124262378Y-60975115D01*
X124215867Y-60845168D01*
X124163288Y-60694963D01*
X124106162Y-60529074D01*
X124046014Y-60352077D01*
X123984365Y-60168545D01*
X123922740Y-59983054D01*
X123862661Y-59800176D01*
X123805651Y-59624487D01*
X123753233Y-59460561D01*
X123706931Y-59312972D01*
X123668267Y-59186295D01*
X123638764Y-59085104D01*
X123619945Y-59013973D01*
X123613334Y-58977478D01*
X123624594Y-58919000D01*
X123655268Y-58859232D01*
X123696132Y-58824169D01*
X123752814Y-58799701D01*
X123807133Y-58793604D01*
X123843727Y-58809899D01*
G37*
X123843727Y-58809899D02*
X123845576Y-58813477D01*
X123859563Y-58849712D01*
X123885056Y-58921040D01*
X123920737Y-59023603D01*
X123965290Y-59153542D01*
X124017396Y-59307001D01*
X124075737Y-59480122D01*
X124138995Y-59669046D01*
X124205852Y-59869917D01*
X124272757Y-60070267D01*
X124342803Y-60277103D01*
X124406562Y-60462224D01*
X124462928Y-60622530D01*
X124510796Y-60754922D01*
X124549059Y-60856298D01*
X124576613Y-60923561D01*
X124592352Y-60953611D01*
X124635833Y-60987695D01*
X124697267Y-61013890D01*
X124728919Y-61022626D01*
X124750567Y-61042870D01*
X124746770Y-61083780D01*
X124743402Y-61094696D01*
X124713346Y-61148215D01*
X124667889Y-61200528D01*
X124656622Y-61210724D01*
X124612508Y-61242650D01*
X124566615Y-61254167D01*
X124499097Y-61251239D01*
X124467565Y-61246773D01*
X124400274Y-61228333D01*
X124354575Y-61203786D01*
X124350267Y-61197669D01*
X124331101Y-61155940D01*
X124301297Y-61080231D01*
X124262378Y-60975115D01*
X124215867Y-60845168D01*
X124163288Y-60694963D01*
X124106162Y-60529074D01*
X124046014Y-60352077D01*
X123984365Y-60168545D01*
X123922740Y-59983054D01*
X123862661Y-59800176D01*
X123805651Y-59624487D01*
X123753233Y-59460561D01*
X123706931Y-59312972D01*
X123668267Y-59186295D01*
X123638764Y-59085104D01*
X123619945Y-59013973D01*
X123613334Y-58977478D01*
X123624594Y-58919000D01*
X123655268Y-58859232D01*
X123696132Y-58824169D01*
X123752814Y-58799701D01*
X123807133Y-58793604D01*
X123843727Y-58809899D01*
X128706117Y-58972159D02*
X128589492Y-59005108D01*
X128589492Y-59005108D02*
X128492838Y-59052355D01*
X128492838Y-59052355D02*
X128425134Y-59111823D01*
X128425134Y-59111823D02*
X128409089Y-59136755D01*
X128409089Y-59136755D02*
X128381767Y-59196521D01*
X128381767Y-59196521D02*
X128380276Y-59226395D01*
X128380276Y-59226395D02*
X128406751Y-59231565D01*
X128406751Y-59231565D02*
X128444486Y-59222856D01*
X128444486Y-59222856D02*
X128548060Y-59205631D01*
X128548060Y-59205631D02*
X128672792Y-59203226D01*
X128672792Y-59203226D02*
X128800536Y-59214742D01*
X128800536Y-59214742D02*
X128913142Y-59239275D01*
X128913142Y-59239275D02*
X128936688Y-59247295D01*
X128936688Y-59247295D02*
X129053570Y-59308251D01*
X129053570Y-59308251D02*
X129169871Y-59399090D01*
X129169871Y-59399090D02*
X129273796Y-59508873D01*
X129273796Y-59508873D02*
X129353552Y-59626661D01*
X129353552Y-59626661D02*
X129360895Y-59640729D01*
X129360895Y-59640729D02*
X129388700Y-59699131D01*
X129388700Y-59699131D02*
X129406744Y-59749923D01*
X129406744Y-59749923D02*
X129417126Y-59805082D01*
X129417126Y-59805082D02*
X129421947Y-59876585D01*
X129421947Y-59876585D02*
X129423307Y-59976409D01*
X129423307Y-59976409D02*
X129423344Y-59996917D01*
X129423344Y-59996917D02*
X129421855Y-60099661D01*
X129421855Y-60099661D02*
X129417642Y-60193470D01*
X129417642Y-60193470D02*
X129411410Y-60266091D01*
X129411410Y-60266091D02*
X129406027Y-60298542D01*
X129406027Y-60298542D02*
X129398154Y-60346666D01*
X129398154Y-60346666D02*
X129409891Y-60364397D01*
X129409891Y-60364397D02*
X129445554Y-60352673D01*
X129445554Y-60352673D02*
X129499829Y-60318956D01*
X129499829Y-60318956D02*
X129565639Y-60251929D01*
X129565639Y-60251929D02*
X129619012Y-60152684D01*
X129619012Y-60152684D02*
X129657812Y-60030063D01*
X129657812Y-60030063D02*
X129679902Y-59892907D01*
X129679902Y-59892907D02*
X129683146Y-59750061D01*
X129683146Y-59750061D02*
X129667995Y-59622972D01*
X129667995Y-59622972D02*
X129612291Y-59438370D01*
X129612291Y-59438370D02*
X129523821Y-59279634D01*
X129523821Y-59279634D02*
X129404341Y-59148706D01*
X129404341Y-59148706D02*
X129255607Y-59047526D01*
X129255607Y-59047526D02*
X129086022Y-58979919D01*
X129086022Y-58979919D02*
X128963362Y-58957485D01*
X128963362Y-58957485D02*
X128833734Y-58955592D01*
X128833734Y-58955592D02*
X128706117Y-58972159D01*
X128706117Y-58972159D02*
X128706117Y-58972159D01*
G36*
X128963362Y-58957485D02*
G01*
X129086022Y-58979919D01*
X129255607Y-59047526D01*
X129404341Y-59148706D01*
X129523821Y-59279634D01*
X129612291Y-59438370D01*
X129667995Y-59622972D01*
X129683146Y-59750061D01*
X129679902Y-59892907D01*
X129657812Y-60030063D01*
X129619012Y-60152684D01*
X129565639Y-60251929D01*
X129499829Y-60318956D01*
X129445554Y-60352673D01*
X129409891Y-60364397D01*
X129398154Y-60346666D01*
X129406027Y-60298542D01*
X129411410Y-60266091D01*
X129417642Y-60193470D01*
X129421855Y-60099661D01*
X129423344Y-59996917D01*
X129423307Y-59976409D01*
X129421947Y-59876585D01*
X129417126Y-59805082D01*
X129406744Y-59749923D01*
X129388700Y-59699131D01*
X129360895Y-59640729D01*
X129353552Y-59626661D01*
X129273796Y-59508873D01*
X129169871Y-59399090D01*
X129053570Y-59308251D01*
X128936688Y-59247295D01*
X128913142Y-59239275D01*
X128800536Y-59214742D01*
X128672792Y-59203226D01*
X128548060Y-59205631D01*
X128444486Y-59222856D01*
X128406751Y-59231565D01*
X128380276Y-59226395D01*
X128381767Y-59196521D01*
X128409089Y-59136755D01*
X128425134Y-59111823D01*
X128492838Y-59052355D01*
X128589492Y-59005108D01*
X128706117Y-58972159D01*
X128833734Y-58955592D01*
X128963362Y-58957485D01*
G37*
X128963362Y-58957485D02*
X129086022Y-58979919D01*
X129255607Y-59047526D01*
X129404341Y-59148706D01*
X129523821Y-59279634D01*
X129612291Y-59438370D01*
X129667995Y-59622972D01*
X129683146Y-59750061D01*
X129679902Y-59892907D01*
X129657812Y-60030063D01*
X129619012Y-60152684D01*
X129565639Y-60251929D01*
X129499829Y-60318956D01*
X129445554Y-60352673D01*
X129409891Y-60364397D01*
X129398154Y-60346666D01*
X129406027Y-60298542D01*
X129411410Y-60266091D01*
X129417642Y-60193470D01*
X129421855Y-60099661D01*
X129423344Y-59996917D01*
X129423307Y-59976409D01*
X129421947Y-59876585D01*
X129417126Y-59805082D01*
X129406744Y-59749923D01*
X129388700Y-59699131D01*
X129360895Y-59640729D01*
X129353552Y-59626661D01*
X129273796Y-59508873D01*
X129169871Y-59399090D01*
X129053570Y-59308251D01*
X128936688Y-59247295D01*
X128913142Y-59239275D01*
X128800536Y-59214742D01*
X128672792Y-59203226D01*
X128548060Y-59205631D01*
X128444486Y-59222856D01*
X128406751Y-59231565D01*
X128380276Y-59226395D01*
X128381767Y-59196521D01*
X128409089Y-59136755D01*
X128425134Y-59111823D01*
X128492838Y-59052355D01*
X128589492Y-59005108D01*
X128706117Y-58972159D01*
X128833734Y-58955592D01*
X128963362Y-58957485D01*
X126465386Y-58813999D02*
X126414926Y-58847197D01*
X126414926Y-58847197D02*
X126404546Y-58856587D01*
X126404546Y-58856587D02*
X126376662Y-58889935D01*
X126376662Y-58889935D02*
X126348874Y-58938938D01*
X126348874Y-58938938D02*
X126318483Y-59009904D01*
X126318483Y-59009904D02*
X126282792Y-59109139D01*
X126282792Y-59109139D02*
X126239105Y-59242950D01*
X126239105Y-59242950D02*
X126238566Y-59244651D01*
X126238566Y-59244651D02*
X126134304Y-59573584D01*
X126134304Y-59573584D02*
X126168469Y-59695292D01*
X126168469Y-59695292D02*
X126188574Y-59759794D01*
X126188574Y-59759794D02*
X126206151Y-59803921D01*
X126206151Y-59803921D02*
X126215695Y-59817000D01*
X126215695Y-59817000D02*
X126225385Y-59797691D01*
X126225385Y-59797691D02*
X126245776Y-59743381D01*
X126245776Y-59743381D02*
X126275011Y-59659497D01*
X126275011Y-59659497D02*
X126311231Y-59551466D01*
X126311231Y-59551466D02*
X126352578Y-59424714D01*
X126352578Y-59424714D02*
X126387842Y-59314292D01*
X126387842Y-59314292D02*
X126436882Y-59158598D01*
X126436882Y-59158598D02*
X126473937Y-59038503D01*
X126473937Y-59038503D02*
X126500092Y-58949344D01*
X126500092Y-58949344D02*
X126516434Y-58886456D01*
X126516434Y-58886456D02*
X126524050Y-58845175D01*
X126524050Y-58845175D02*
X126524026Y-58820836D01*
X126524026Y-58820836D02*
X126517450Y-58808774D01*
X126517450Y-58808774D02*
X126506597Y-58804520D01*
X126506597Y-58804520D02*
X126465386Y-58813999D01*
X126465386Y-58813999D02*
X126465386Y-58813999D01*
G36*
X126517450Y-58808774D02*
G01*
X126524026Y-58820836D01*
X126524050Y-58845175D01*
X126516434Y-58886456D01*
X126500092Y-58949344D01*
X126473937Y-59038503D01*
X126436882Y-59158598D01*
X126387842Y-59314292D01*
X126352578Y-59424714D01*
X126311231Y-59551466D01*
X126275011Y-59659497D01*
X126245776Y-59743381D01*
X126225385Y-59797691D01*
X126215695Y-59817000D01*
X126206151Y-59803921D01*
X126188574Y-59759794D01*
X126168469Y-59695292D01*
X126134304Y-59573584D01*
X126238566Y-59244651D01*
X126239105Y-59242950D01*
X126282792Y-59109139D01*
X126318483Y-59009904D01*
X126348874Y-58938938D01*
X126376662Y-58889935D01*
X126404546Y-58856587D01*
X126414926Y-58847197D01*
X126465386Y-58813999D01*
X126506597Y-58804520D01*
X126517450Y-58808774D01*
G37*
X126517450Y-58808774D02*
X126524026Y-58820836D01*
X126524050Y-58845175D01*
X126516434Y-58886456D01*
X126500092Y-58949344D01*
X126473937Y-59038503D01*
X126436882Y-59158598D01*
X126387842Y-59314292D01*
X126352578Y-59424714D01*
X126311231Y-59551466D01*
X126275011Y-59659497D01*
X126245776Y-59743381D01*
X126225385Y-59797691D01*
X126215695Y-59817000D01*
X126206151Y-59803921D01*
X126188574Y-59759794D01*
X126168469Y-59695292D01*
X126134304Y-59573584D01*
X126238566Y-59244651D01*
X126239105Y-59242950D01*
X126282792Y-59109139D01*
X126318483Y-59009904D01*
X126348874Y-58938938D01*
X126376662Y-58889935D01*
X126404546Y-58856587D01*
X126414926Y-58847197D01*
X126465386Y-58813999D01*
X126506597Y-58804520D01*
X126517450Y-58808774D01*
X125067259Y-58809500D02*
X125021414Y-58830859D01*
X125021414Y-58830859D02*
X125011570Y-58838076D01*
X125011570Y-58838076D02*
X124980477Y-58875268D01*
X124980477Y-58875268D02*
X124948898Y-58938759D01*
X124948898Y-58938759D02*
X124915399Y-59032521D01*
X124915399Y-59032521D02*
X124878545Y-59160526D01*
X124878545Y-59160526D02*
X124840242Y-59312793D01*
X124840242Y-59312793D02*
X124818116Y-59406896D01*
X124818116Y-59406896D02*
X124805553Y-59472340D01*
X124805553Y-59472340D02*
X124802181Y-59521616D01*
X124802181Y-59521616D02*
X124807631Y-59567218D01*
X124807631Y-59567218D02*
X124821532Y-59621637D01*
X124821532Y-59621637D02*
X124830190Y-59651460D01*
X124830190Y-59651460D02*
X124852294Y-59722540D01*
X124852294Y-59722540D02*
X124871649Y-59776990D01*
X124871649Y-59776990D02*
X124883347Y-59801794D01*
X124883347Y-59801794D02*
X124892252Y-59786980D01*
X124892252Y-59786980D02*
X124909712Y-59736490D01*
X124909712Y-59736490D02*
X124934130Y-59655746D01*
X124934130Y-59655746D02*
X124963908Y-59550172D01*
X124963908Y-59550172D02*
X124997449Y-59425188D01*
X124997449Y-59425188D02*
X125020508Y-59336127D01*
X125020508Y-59336127D02*
X125055772Y-59198503D01*
X125055772Y-59198503D02*
X125087925Y-59073917D01*
X125087925Y-59073917D02*
X125115376Y-58968457D01*
X125115376Y-58968457D02*
X125136537Y-58888209D01*
X125136537Y-58888209D02*
X125149817Y-58839261D01*
X125149817Y-58839261D02*
X125153337Y-58827459D01*
X125153337Y-58827459D02*
X125146348Y-58806816D01*
X125146348Y-58806816D02*
X125113280Y-58801157D01*
X125113280Y-58801157D02*
X125067259Y-58809500D01*
X125067259Y-58809500D02*
X125067259Y-58809500D01*
G36*
X125146348Y-58806816D02*
G01*
X125153337Y-58827459D01*
X125149817Y-58839261D01*
X125136537Y-58888209D01*
X125115376Y-58968457D01*
X125087925Y-59073917D01*
X125055772Y-59198503D01*
X125020508Y-59336127D01*
X124997449Y-59425188D01*
X124963908Y-59550172D01*
X124934130Y-59655746D01*
X124909712Y-59736490D01*
X124892252Y-59786980D01*
X124883347Y-59801794D01*
X124871649Y-59776990D01*
X124852294Y-59722540D01*
X124830190Y-59651460D01*
X124821532Y-59621637D01*
X124807631Y-59567218D01*
X124802181Y-59521616D01*
X124805553Y-59472340D01*
X124818116Y-59406896D01*
X124840242Y-59312793D01*
X124878545Y-59160526D01*
X124915399Y-59032521D01*
X124948898Y-58938759D01*
X124980477Y-58875268D01*
X125011570Y-58838076D01*
X125021414Y-58830859D01*
X125067259Y-58809500D01*
X125113280Y-58801157D01*
X125146348Y-58806816D01*
G37*
X125146348Y-58806816D02*
X125153337Y-58827459D01*
X125149817Y-58839261D01*
X125136537Y-58888209D01*
X125115376Y-58968457D01*
X125087925Y-59073917D01*
X125055772Y-59198503D01*
X125020508Y-59336127D01*
X124997449Y-59425188D01*
X124963908Y-59550172D01*
X124934130Y-59655746D01*
X124909712Y-59736490D01*
X124892252Y-59786980D01*
X124883347Y-59801794D01*
X124871649Y-59776990D01*
X124852294Y-59722540D01*
X124830190Y-59651460D01*
X124821532Y-59621637D01*
X124807631Y-59567218D01*
X124802181Y-59521616D01*
X124805553Y-59472340D01*
X124818116Y-59406896D01*
X124840242Y-59312793D01*
X124878545Y-59160526D01*
X124915399Y-59032521D01*
X124948898Y-58938759D01*
X124980477Y-58875268D01*
X125011570Y-58838076D01*
X125021414Y-58830859D01*
X125067259Y-58809500D01*
X125113280Y-58801157D01*
X125146348Y-58806816D01*
D11*
%TO.C,SW3*%
X114966750Y-22860000D02*
G75*
G03*
X114966750Y-22860000I-508000J0D01*
G01*
%TO.C,SW10*%
X114966750Y-60960000D02*
G75*
G03*
X114966750Y-60960000I-508000J0D01*
G01*
%TO.C,SW6*%
X95916750Y-41910000D02*
G75*
G03*
X95916750Y-41910000I-508000J0D01*
G01*
%TO.C,SW7*%
X114966750Y-41910000D02*
G75*
G03*
X114966750Y-41910000I-508000J0D01*
G01*
%TO.C,SW11*%
X134016750Y-60960000D02*
G75*
G03*
X134016750Y-60960000I-508000J0D01*
G01*
%TO.C,SW4*%
X134016750Y-22860000D02*
G75*
G03*
X134016750Y-22860000I-508000J0D01*
G01*
%TO.C,SW8*%
X134016750Y-41910000D02*
G75*
G03*
X134016750Y-41910000I-508000J0D01*
G01*
%TO.C,SW9*%
X95916750Y-60960000D02*
G75*
G03*
X95916750Y-60960000I-508000J0D01*
G01*
%TO.C,SW2*%
X95916750Y-22860000D02*
G75*
G03*
X95916750Y-22860000I-508000J0D01*
G01*
%TD*%
D12*
%TO.C,SW5*%
X134818750Y-32900000D03*
D13*
X139818750Y-32900000D03*
X137318750Y-32900000D03*
D14*
X142918750Y-25400000D03*
X131718750Y-25400000D03*
D13*
X139818750Y-18400000D03*
X134818750Y-18400000D03*
%TD*%
D12*
%TO.C,SW1*%
X96718750Y-32900000D03*
D13*
X101718750Y-32900000D03*
X99218750Y-32900000D03*
D14*
X93618750Y-25400000D03*
X104818750Y-25400000D03*
D13*
X101718750Y-18400000D03*
X96718750Y-18400000D03*
%TD*%
D15*
%TO.C,C5*%
X115018008Y-45671992D03*
X113921992Y-46768008D03*
%TD*%
D16*
%TO.C,SW3*%
X123348750Y-25400000D03*
D17*
X118268750Y-25400000D03*
D16*
X113188750Y-25400000D03*
D18*
X120808750Y-20320000D03*
X114458750Y-22860000D03*
%TD*%
D16*
%TO.C,SW10*%
X123348750Y-63500000D03*
X113188750Y-63500000D03*
D17*
X118268750Y-63500000D03*
D18*
X120808750Y-58420000D03*
X114458750Y-60960000D03*
%TD*%
D19*
%TO.C,D3*%
X129320000Y-29970000D03*
X129320000Y-26670000D03*
%TD*%
D20*
%TO.C,D21*%
X94468750Y-37375000D03*
X91268750Y-37375000D03*
X91268750Y-32475000D03*
X94468750Y-32475000D03*
%TD*%
%TO.C,D19*%
X142068750Y-51525000D03*
X145268750Y-51525000D03*
X145268750Y-56425000D03*
X142068750Y-56425000D03*
%TD*%
D21*
%TO.C,D17*%
X118268750Y-68500000D03*
D22*
X120935750Y-69300000D03*
D23*
X120910350Y-67700000D03*
D24*
X115703350Y-67700000D03*
D25*
X115627150Y-69300000D03*
%TD*%
D19*
%TO.C,D8*%
X110331250Y-70706250D03*
X110331250Y-67406250D03*
%TD*%
D20*
%TO.C,D20*%
X142068750Y-32475000D03*
X145268750Y-32475000D03*
X145268750Y-37375000D03*
X142068750Y-37375000D03*
%TD*%
D26*
%TO.C,R1*%
X107980000Y-38815000D03*
X107980000Y-40465000D03*
%TD*%
D21*
%TO.C,D15*%
X137318750Y-49450000D03*
D22*
X139985750Y-50250000D03*
D23*
X139960350Y-48650000D03*
D24*
X134753350Y-48650000D03*
D25*
X134677150Y-50250000D03*
%TD*%
D21*
%TO.C,D12*%
X137318750Y-30400000D03*
D27*
X134651750Y-29600000D03*
D25*
X134677150Y-31200000D03*
D28*
X139884150Y-31200000D03*
D23*
X139960350Y-29600000D03*
%TD*%
D17*
%TO.C,SW6*%
X99218750Y-44450000D03*
D16*
X104298750Y-44450000D03*
X94138750Y-44450000D03*
D18*
X101758750Y-39370000D03*
X95408750Y-41910000D03*
%TD*%
D29*
%TO.C,R3*%
X116385000Y-57690000D03*
X118035000Y-57690000D03*
%TD*%
D19*
%TO.C,D2*%
X111000000Y-27300000D03*
X111000000Y-24000000D03*
%TD*%
D30*
%TO.C,J1*%
X115378750Y-16205250D03*
X121158750Y-16205250D03*
D31*
X115018750Y-17531250D03*
X115818750Y-17531250D03*
D32*
X117018750Y-17531250D03*
X118014750Y-17531250D03*
X118518750Y-17531250D03*
X119518750Y-17531250D03*
D31*
X121518750Y-17531250D03*
X120718750Y-17531250D03*
D32*
X120018750Y-17531250D03*
X119018750Y-17531250D03*
X117518750Y-17531250D03*
X116518750Y-17531250D03*
D33*
X113968750Y-16756250D03*
D34*
X122568750Y-12556250D03*
D33*
X122568750Y-16756250D03*
D34*
X113968750Y-12556250D03*
%TD*%
D35*
%TO.C,U1*%
X109785305Y-50204897D03*
X110350990Y-50770583D03*
X110916676Y-51336268D03*
X111482361Y-51901953D03*
X112048047Y-52467639D03*
X112613732Y-53033324D03*
X113179417Y-53599010D03*
X113745103Y-54164695D03*
D36*
X113745103Y-56215305D03*
X113179417Y-56780990D03*
X112613732Y-57346676D03*
X112048047Y-57912361D03*
X111482361Y-58478047D03*
X110916676Y-59043732D03*
X110350990Y-59609417D03*
X109785305Y-60175103D03*
D35*
X107734695Y-60175103D03*
X107169010Y-59609417D03*
X106603324Y-59043732D03*
X106037639Y-58478047D03*
X105471953Y-57912361D03*
X104906268Y-57346676D03*
X104340583Y-56780990D03*
X103774897Y-56215305D03*
D36*
X103774897Y-54164695D03*
X104340583Y-53599010D03*
X104906268Y-53033324D03*
X105471953Y-52467639D03*
X106037639Y-51901953D03*
X106603324Y-51336268D03*
X107169010Y-50770583D03*
X107734695Y-50204897D03*
%TD*%
D21*
%TO.C,D10*%
X99218750Y-30400000D03*
D27*
X96551750Y-29600000D03*
D25*
X96577150Y-31200000D03*
D28*
X101784150Y-31200000D03*
D23*
X101860350Y-29600000D03*
%TD*%
D21*
%TO.C,D11*%
X118268750Y-30400000D03*
D27*
X115601750Y-29600000D03*
D25*
X115627150Y-31200000D03*
D28*
X120834150Y-31200000D03*
D23*
X120910350Y-29600000D03*
%TD*%
D37*
%TO.C,R2*%
X109480000Y-40465000D03*
X109480000Y-38815000D03*
%TD*%
D38*
%TO.C,SW12*%
X131660000Y-49140000D03*
X131660000Y-55340000D03*
X127960000Y-49140000D03*
X127960000Y-55340000D03*
%TD*%
D21*
%TO.C,D16*%
X99218750Y-68500000D03*
D22*
X101885750Y-69300000D03*
D23*
X101860350Y-67700000D03*
D24*
X96653350Y-67700000D03*
D25*
X96577150Y-69300000D03*
%TD*%
D19*
%TO.C,D7*%
X106362500Y-70706250D03*
X106362500Y-67406250D03*
%TD*%
D39*
%TO.C,R4*%
X111325000Y-18580770D03*
X109675000Y-18580770D03*
%TD*%
D16*
%TO.C,SW7*%
X123348750Y-44450000D03*
X113188750Y-44450000D03*
D17*
X118268750Y-44450000D03*
D18*
X120808750Y-39370000D03*
X114458750Y-41910000D03*
%TD*%
D15*
%TO.C,C4*%
X109878008Y-45111992D03*
X108781992Y-46208008D03*
%TD*%
D20*
%TO.C,D22*%
X94468750Y-56425000D03*
X91268750Y-56425000D03*
X91268750Y-51525000D03*
X94468750Y-51525000D03*
%TD*%
D19*
%TO.C,D9*%
X129140000Y-70895000D03*
X129140000Y-67595000D03*
%TD*%
%TO.C,D6*%
X129381250Y-44512500D03*
X129381250Y-41212500D03*
%TD*%
D17*
%TO.C,SW11*%
X137318750Y-63500000D03*
D16*
X132238750Y-63500000D03*
X142398750Y-63500000D03*
D18*
X139858750Y-58420000D03*
X133508750Y-60960000D03*
%TD*%
D16*
%TO.C,SW4*%
X132238750Y-25400000D03*
D17*
X137318750Y-25400000D03*
D16*
X142398750Y-25400000D03*
D18*
X139858750Y-20320000D03*
X133508750Y-22860000D03*
%TD*%
D40*
%TO.C,U2*%
X107800000Y-35090000D03*
X108750000Y-35090000D03*
X109700000Y-35090000D03*
X109700000Y-37290000D03*
X108750000Y-37290000D03*
X107800000Y-37290000D03*
%TD*%
D19*
%TO.C,D4*%
X91900000Y-48095000D03*
X91900000Y-44795000D03*
%TD*%
D41*
%TO.C,C2*%
X113001992Y-50871992D03*
X114098008Y-51968008D03*
%TD*%
D16*
%TO.C,SW8*%
X132238750Y-44450000D03*
D17*
X137318750Y-44450000D03*
D16*
X142398750Y-44450000D03*
D18*
X139858750Y-39370000D03*
X133508750Y-41910000D03*
%TD*%
D21*
%TO.C,D18*%
X137318750Y-68500000D03*
D22*
X139985750Y-69300000D03*
D23*
X139960350Y-67700000D03*
D24*
X134753350Y-67700000D03*
D25*
X134677150Y-69300000D03*
%TD*%
D21*
%TO.C,D14*%
X118268750Y-49450000D03*
D27*
X115601750Y-48650000D03*
D25*
X115627150Y-50250000D03*
D28*
X120834150Y-50250000D03*
D23*
X120910350Y-48650000D03*
%TD*%
D42*
%TO.C,C3*%
X106561992Y-48738008D03*
X107658008Y-47641992D03*
%TD*%
D29*
%TO.C,R6*%
X124555000Y-55340000D03*
X126205000Y-55340000D03*
%TD*%
D19*
%TO.C,D1*%
X91281250Y-28865000D03*
X91281250Y-25565000D03*
%TD*%
D29*
%TO.C,R5*%
X125175000Y-18580770D03*
X126825000Y-18580770D03*
%TD*%
D16*
%TO.C,SW9*%
X94138750Y-63500000D03*
X104298750Y-63500000D03*
D17*
X99218750Y-63500000D03*
D18*
X101758750Y-58420000D03*
X95408750Y-60960000D03*
%TD*%
D21*
%TO.C,D13*%
X99218750Y-49450000D03*
D22*
X101885750Y-50250000D03*
D23*
X101860350Y-48650000D03*
D24*
X96653350Y-48650000D03*
D25*
X96577150Y-50250000D03*
%TD*%
D43*
%TO.C,Y1*%
X111183223Y-46371142D03*
X112738858Y-47926777D03*
X111536777Y-49128858D03*
X109981142Y-47573223D03*
%TD*%
D44*
%TO.C,F1*%
X124060000Y-33550000D03*
X124060000Y-36350000D03*
%TD*%
D17*
%TO.C,SW2*%
X99218750Y-25400000D03*
D16*
X94138750Y-25400000D03*
X104298750Y-25400000D03*
D18*
X101758750Y-20320000D03*
X95408750Y-22860000D03*
%TD*%
D19*
%TO.C,D5*%
X126206250Y-44512500D03*
X126206250Y-41212500D03*
%TD*%
D42*
%TO.C,C1*%
X102931992Y-52408008D03*
X104028008Y-51311992D03*
%TD*%
M02*
